<svg width="20" height="21" viewBox="0 0 20 21" fill="none" xmlns="http://www.w3.org/2000/svg">
<path d="M10.3939 2.58085C10.1424 2.47305 9.85763 2.47305 9.60608 2.58085L2.60608 5.58085C2.2384 5.73843 2 6.09997 2 6.5C2 6.90003 2.2384 7.26157 2.60608 7.41915L5.25037 8.55241C5.34653 8.44347 5.46706 8.35473 5.60608 8.29515L9.60608 6.58087C10.1137 6.36331 10.7016 6.59846 10.9191 7.10609C11.1367 7.61372 10.9015 8.2016 10.3939 8.41916L7.66668 9.58797L9.60608 10.4191C9.85763 10.527 10.1424 10.527 10.3939 10.4191L17.3939 7.41915C17.7616 7.26157 18 6.90003 18 6.5C18 6.09997 17.7616 5.73843 17.3939 5.58085L10.3939 2.58085Z" fill="#21272A"/>
<path d="M3.31004 9.89673L5 10.621V14.7226C4.65723 14.6449 4.30705 14.5867 3.95071 14.5494C3.48094 14.5001 3.1097 14.1289 3.06044 13.6591C3.02046 13.2778 3 12.891 3 12.4998C3 11.6033 3.10741 10.7315 3.31004 9.89673Z" fill="#21272A"/>
<path d="M9.29996 17.0725C8.62708 16.4129 7.85167 15.8584 7 15.4351V11.4781L8.81824 12.2574C9.57289 12.5808 10.4271 12.5808 11.1818 12.2574L16.69 9.89673C16.8926 10.7315 17 11.6033 17 12.4998C17 12.891 16.9795 13.2778 16.9396 13.6591C16.8903 14.1289 16.5191 14.5001 16.0493 14.5494C13.9765 14.7667 12.1124 15.688 10.7 17.0725C10.3112 17.4537 9.68881 17.4537 9.29996 17.0725Z" fill="#21272A"/>
<path d="M6 18.5C6.55228 18.5 7 18.0523 7 17.5V15.4351C6.37136 15.1227 5.70117 14.8817 5 14.7226V17.5C5 18.0523 5.44772 18.5 6 18.5Z" fill="#21272A"/>
</svg>
