<svg width="20" height="21" viewBox="0 0 20 21" fill="none" xmlns="http://www.w3.org/2000/svg">
<path d="M5 4.5C5 3.94772 4.55228 3.5 4 3.5C3.44772 3.5 3 3.94772 3 4.5V11.7676C2.4022 12.1134 2 12.7597 2 13.5C2 14.2403 2.4022 14.8866 3 15.2324V16.5C3 17.0523 3.44772 17.5 4 17.5C4.55228 17.5 5 17.0523 5 16.5V15.2324C5.5978 14.8866 6 14.2403 6 13.5C6 12.7597 5.5978 12.1134 5 11.7676V4.5Z" fill="#21272A"/>
<path d="M11 4.5C11 3.94772 10.5523 3.5 10 3.5C9.44772 3.5 9 3.94772 9 4.5V5.76756C8.4022 6.11337 8 6.75972 8 7.5C8 8.24028 8.4022 8.88663 9 9.23244V16.5C9 17.0523 9.44772 17.5 10 17.5C10.5523 17.5 11 17.0523 11 16.5V9.23244C11.5978 8.88663 12 8.24028 12 7.5C12 6.75972 11.5978 6.11337 11 5.76756V4.5Z" fill="#21272A"/>
<path d="M16 3.5C16.5523 3.5 17 3.94772 17 4.5V11.7676C17.5978 12.1134 18 12.7597 18 13.5C18 14.2403 17.5978 14.8866 17 15.2324V16.5C17 17.0523 16.5523 17.5 16 17.5C15.4477 17.5 15 17.0523 15 16.5V15.2324C14.4022 14.8866 14 14.2403 14 13.5C14 12.7597 14.4022 12.1134 15 11.7676V4.5C15 3.94772 15.4477 3.5 16 3.5Z" fill="#21272A"/>
</svg>
