<svg width="20" height="21" viewBox="0 0 20 21" fill="none" xmlns="http://www.w3.org/2000/svg">
<path fill-rule="evenodd" clip-rule="evenodd" d="M18 13.5V5.5C18 4.39543 17.1046 3.5 16 3.5H4C2.89543 3.5 2 4.39543 2 5.5V13.5C2 14.6046 2.89543 15.5 4 15.5H7L10 18.5L13 15.5H16C17.1046 15.5 18 14.6046 18 13.5ZM5 7.5C5 6.94772 5.44772 6.5 6 6.5H14C14.5523 6.5 15 6.94772 15 7.5C15 8.05228 14.5523 8.5 14 8.5H6C5.44772 8.5 5 8.05228 5 7.5ZM6 10.5C5.44772 10.5 5 10.9477 5 11.5C5 12.0523 5.44772 12.5 6 12.5H9C9.55229 12.5 10 12.0523 10 11.5C10 10.9477 9.55229 10.5 9 10.5H6Z" fill="#21272A"/>
</svg>
