<svg width="34" height="34" viewBox="0 0 34 34" fill="none" xmlns="http://www.w3.org/2000/svg">
<path d="M24.6464 30.7234C23.0646 32.2567 21.3376 32.0146 19.6752 31.2883C17.9159 30.5459 16.3019 30.5136 14.4458 31.2883C12.1216 32.289 10.895 31.9985 9.50695 30.7234C1.63059 22.605 2.79268 10.2416 11.7343 9.78972C13.9132 9.9027 15.4304 10.9841 16.7054 11.0809C18.61 10.6936 20.4338 9.5799 22.4674 9.72516C24.9046 9.91884 26.7446 10.8872 27.9551 12.6304C22.9194 15.6486 24.1137 22.2822 28.7298 24.1383C27.8098 26.5593 26.6155 28.9642 24.6302 30.7396L24.6464 30.7234ZM16.544 9.69288C16.3019 6.09364 19.2233 3.12387 22.5804 2.83334C23.0485 6.99749 18.8036 10.0964 16.544 9.69288Z" fill="#B4BBC5"/>
</svg>
