<svg width="20" height="21" viewBox="0 0 20 21" fill="none" xmlns="http://www.w3.org/2000/svg">
<path fill-rule="evenodd" clip-rule="evenodd" d="M10 18.5C14.4183 18.5 18 14.9183 18 10.5C18 6.08172 14.4183 2.5 10 2.5C5.58172 2.5 2 6.08172 2 10.5C2 14.9183 5.58172 18.5 10 18.5ZM13.7071 9.79289L10.7071 6.79289C10.3166 6.40237 9.68342 6.40237 9.29289 6.79289C8.90237 7.18342 8.90237 7.81658 9.29289 8.20711L10.5858 9.5L7 9.5C6.44772 9.5 6 9.94771 6 10.5C6 11.0523 6.44772 11.5 7 11.5H10.5858L9.29289 12.7929C8.90237 13.1834 8.90237 13.8166 9.29289 14.2071C9.68342 14.5976 10.3166 14.5976 10.7071 14.2071L13.7071 11.2071C14.0976 10.8166 14.0976 10.1834 13.7071 9.79289Z" fill="#21272A"/>
</svg>
