<svg width="20" height="21" viewBox="0 0 20 21" fill="none" xmlns="http://www.w3.org/2000/svg">
<path fill-rule="evenodd" clip-rule="evenodd" d="M10 18.5C14.4183 18.5 18 14.9183 18 10.5C18 6.08172 14.4183 2.5 10 2.5C5.58172 2.5 2 6.08172 2 10.5C2 14.9183 5.58172 18.5 10 18.5ZM11 7.5C11 6.94772 10.5523 6.5 10 6.5C9.44771 6.5 9 6.94772 9 7.5L9 11.0858L7.70711 9.79289C7.31658 9.40237 6.68342 9.40237 6.29289 9.79289C5.90237 10.1834 5.90237 10.8166 6.29289 11.2071L9.29289 14.2071C9.68342 14.5976 10.3166 14.5976 10.7071 14.2071L13.7071 11.2071C14.0976 10.8166 14.0976 10.1834 13.7071 9.79289C13.3166 9.40237 12.6834 9.40237 12.2929 9.79289L11 11.0858V7.5Z" fill="#21272A"/>
</svg>
