<svg width="20" height="21" viewBox="0 0 20 21" fill="none" xmlns="http://www.w3.org/2000/svg">
<path fill-rule="evenodd" clip-rule="evenodd" d="M10 18.5C14.4183 18.5 18 14.9183 18 10.5C18 6.08172 14.4183 2.5 10 2.5C5.58172 2.5 2 6.08172 2 10.5C2 14.9183 5.58172 18.5 10 18.5ZM10.7071 8.20711C11.0976 7.81658 11.0976 7.18342 10.7071 6.79289C10.3166 6.40237 9.68342 6.40237 9.29289 6.79289L6.29289 9.79289C5.90237 10.1834 5.90237 10.8166 6.29289 11.2071L9.29289 14.2071C9.68342 14.5976 10.3166 14.5976 10.7071 14.2071C11.0976 13.8166 11.0976 13.1834 10.7071 12.7929L9.41421 11.5H13C13.5523 11.5 14 11.0523 14 10.5C14 9.94772 13.5523 9.5 13 9.5L9.41421 9.5L10.7071 8.20711Z" fill="#21272A"/>
</svg>
