<svg width="20" height="21" viewBox="0 0 20 21" fill="none" xmlns="http://www.w3.org/2000/svg">
<path fill-rule="evenodd" clip-rule="evenodd" d="M10 18.5C14.4183 18.5 18 14.9183 18 10.5C18 6.08172 14.4183 2.5 10 2.5C5.58172 2.5 2 6.08172 2 10.5C2 14.9183 5.58172 18.5 10 18.5ZM13.7071 9.79289L10.7071 6.79289C10.3166 6.40237 9.68342 6.40237 9.29289 6.79289L6.29289 9.79289C5.90237 10.1834 5.90237 10.8166 6.29289 11.2071C6.68342 11.5976 7.31658 11.5976 7.70711 11.2071L9 9.91421L9 13.5C9 14.0523 9.44771 14.5 10 14.5C10.5523 14.5 11 14.0523 11 13.5V9.91421L12.2929 11.2071C12.6834 11.5976 13.3166 11.5976 13.7071 11.2071C14.0976 10.8166 14.0976 10.1834 13.7071 9.79289Z" fill="#21272A"/>
</svg>
