<svg width="20" height="21" viewBox="0 0 20 21" fill="none" xmlns="http://www.w3.org/2000/svg">
<path fill-rule="evenodd" clip-rule="evenodd" d="M14.2426 6.25736C11.8995 3.91421 8.10051 3.91421 5.75736 6.25736C3.41421 8.60051 3.41421 12.3995 5.75736 14.7426C7.79395 16.7792 10.9325 17.0464 13.257 15.5408C13.7205 15.2405 14.3397 15.3729 14.6399 15.8364C14.9402 16.3 14.8078 16.9191 14.3443 17.2194C11.2445 19.2273 7.0606 18.8743 4.34315 16.1569C1.21895 13.0327 1.21895 7.96734 4.34315 4.84315C7.46734 1.71895 12.5327 1.71895 15.6569 4.84315C17.2187 6.40503 18 8.4542 18 10.5C18 12.1569 16.6569 13.5 15 13.5C14.3247 13.5 13.7015 13.2769 13.2001 12.9003C12.4703 13.8717 11.3085 14.5 10 14.5C7.79086 14.5 6 12.7091 6 10.5C6 8.29086 7.79086 6.5 10 6.5C12.2091 6.5 14 8.29086 14 10.5C14 11.0523 14.4477 11.5 15 11.5C15.5523 11.5 16 11.0523 16 10.5C16 8.96294 15.4144 7.4291 14.2426 6.25736ZM12 10.5C12 9.39543 11.1046 8.5 10 8.5C8.89543 8.5 8 9.39543 8 10.5C8 11.6046 8.89543 12.5 10 12.5C11.1046 12.5 12 11.6046 12 10.5Z" fill="#21272A"/>
</svg>
