<svg width="20" height="21" viewBox="0 0 20 21" fill="none" xmlns="http://www.w3.org/2000/svg">
<path fill-rule="evenodd" clip-rule="evenodd" d="M6.70711 5.37868C7.26972 4.81607 8.03278 4.5 8.82843 4.5H15C16.6569 4.5 18 5.84315 18 7.5V13.5C18 15.1569 16.6569 16.5 15 16.5H8.82843C8.03278 16.5 7.26972 16.1839 6.70711 15.6213L2.29289 11.2071C2.10536 11.0196 2 10.7652 2 10.5C2 10.2348 2.10536 9.98043 2.29289 9.79289L6.70711 5.37868ZM10.7071 7.79289C10.3166 7.40237 9.68342 7.40237 9.29289 7.79289C8.90237 8.18342 8.90237 8.81658 9.29289 9.20711L10.5858 10.5L9.29289 11.7929C8.90237 12.1834 8.90237 12.8166 9.29289 13.2071C9.68342 13.5976 10.3166 13.5976 10.7071 13.2071L12 11.9142L13.2929 13.2071C13.6834 13.5976 14.3166 13.5976 14.7071 13.2071C15.0976 12.8166 15.0976 12.1834 14.7071 11.7929L13.4142 10.5L14.7071 9.20711C15.0976 8.81658 15.0976 8.18342 14.7071 7.79289C14.3166 7.40237 13.6834 7.40237 13.2929 7.79289L12 9.08579L10.7071 7.79289Z" fill="#21272A"/>
</svg>
