<svg width="20" height="21" viewBox="0 0 20 21" fill="none" xmlns="http://www.w3.org/2000/svg">
<path fill-rule="evenodd" clip-rule="evenodd" d="M6.99985 2.5C6.59539 2.5 6.23075 2.74364 6.07597 3.11732C5.92119 3.49099 6.00675 3.92111 6.29275 4.20711L6.99985 4.91421V8.67157C6.99985 8.93679 6.8945 9.19114 6.70696 9.37868L2.70696 13.3787C0.817066 15.2686 2.15556 18.5 4.82828 18.5H15.1714C17.8441 18.5 19.1826 15.2686 17.2927 13.3787L13.2927 9.37868C13.1052 9.19114 12.9999 8.93679 12.9999 8.67157V4.91421L13.707 4.20711C13.993 3.92111 14.0785 3.49099 13.9237 3.11732C13.769 2.74364 13.4043 2.5 12.9999 2.5H6.99985ZM8.99985 8.67157V4.5H10.9999V8.67157C10.9999 9.46722 11.3159 10.2303 11.8785 10.7929L12.9061 11.8204C12.1892 11.6537 11.4377 11.6874 10.7349 11.9217L10.2647 12.0784C9.44364 12.3521 8.55596 12.3521 7.73489 12.0784L7.17244 11.8909C7.13436 11.8782 7.09607 11.8667 7.05762 11.8564L8.12117 10.7929C8.68378 10.2303 8.99985 9.46722 8.99985 8.67157Z" fill="#21272A"/>
</svg>
