<svg width="30" height="30" viewBox="0 0 30 30" fill="none" xmlns="http://www.w3.org/2000/svg">
<g clip-path="url(#clip0_151_81)">
<path d="M15 30C23.2843 30 30 23.2843 30 15C30 6.71573 23.2843 0 15 0C6.71573 0 0 6.71573 0 15C0 23.2843 6.71573 30 15 30Z" fill="#2A81BF"/>
<path d="M10.5973 8.20319C11.2441 8.20319 11.8345 8.26079 12.3685 8.37479C12.9025 8.48879 13.3585 8.67599 13.7389 8.93639C14.1193 9.19679 14.4145 9.54239 14.6245 9.97439C14.8345 10.4064 14.9389 10.9392 14.9389 11.574C14.9389 12.2592 14.7829 12.8304 14.4721 13.2876C14.1613 13.7448 13.7005 14.1192 13.0921 14.4108C13.9297 14.652 14.5549 15.0744 14.9677 15.6768C15.3805 16.2792 15.5869 17.0064 15.5869 17.8572C15.5869 18.5424 15.4537 19.1364 15.1873 19.638C14.9209 20.1396 14.5621 20.5488 14.1109 20.8656C13.6597 21.1836 13.1461 21.4176 12.5689 21.57C11.9881 21.7224 11.3893 21.7992 10.7893 21.798H4.20007V8.20319H10.5973ZM10.2169 13.7052C10.7497 13.7052 11.1877 13.578 11.5309 13.3248C11.8741 13.0704 12.0457 12.6588 12.0445 12.0876C12.0445 11.7708 11.9869 11.5104 11.8729 11.3076C11.7589 11.1048 11.6065 10.9452 11.4157 10.8312C11.2249 10.7172 11.0065 10.638 10.7593 10.5936C10.5049 10.5492 10.2469 10.5264 9.98767 10.5276H7.19047V13.7076L10.2169 13.7052ZM10.3885 19.4736C10.6705 19.4748 10.9513 19.446 11.2261 19.3884C11.4925 19.3308 11.7277 19.236 11.9305 19.1028C12.1333 18.9696 12.2953 18.7884 12.4165 18.5604C12.5365 18.3324 12.5977 18.0396 12.5977 17.6844C12.5977 16.9872 12.4009 16.488 12.0073 16.1904C11.6137 15.8916 11.0929 15.7428 10.4461 15.7428H7.19047V19.4748L10.3885 19.4736ZM19.3477 19.188C19.7533 19.5816 20.3377 19.7784 21.0997 19.7784C21.6457 19.7784 22.1149 19.6416 22.5085 19.3692C22.9021 19.0968 23.1433 18.8076 23.2321 18.5028H25.6117C25.2313 19.6836 24.6469 20.5272 23.8597 21.0348C23.0725 21.5424 22.1209 21.7968 21.0037 21.7968C20.2297 21.7968 19.5313 21.6732 18.9097 21.426C18.2881 21.1788 17.7613 20.826 17.3293 20.3688C16.8973 19.9116 16.5637 19.3668 16.3297 18.732C16.0957 18.0972 15.9781 17.3988 15.9781 16.638C15.9781 15.9024 16.0981 15.2172 16.3393 14.5824C16.5805 13.9476 16.9237 13.3992 17.3677 12.936C17.8117 12.4728 18.3421 12.108 18.9577 11.8416C19.5733 11.5752 20.2561 11.442 21.0049 11.442C21.8425 11.442 22.5721 11.604 23.1949 11.928C23.8165 12.252 24.3277 12.6864 24.7273 13.2324C25.1269 13.7784 25.4161 14.4 25.5937 15.0984C25.7713 15.7968 25.8349 16.5264 25.7845 17.2884H18.6829C18.7201 18.1608 18.9421 18.7956 19.3477 19.188ZM22.4041 14.01C22.0801 13.6548 21.5881 13.4772 20.9281 13.4772C20.4961 13.4772 20.1373 13.5504 19.8529 13.6956C19.5673 13.842 19.3393 14.022 19.1677 14.238C18.9961 14.454 18.8761 14.682 18.8065 14.9232C18.7369 15.1644 18.6949 15.3804 18.6829 15.57H23.0809C22.9525 14.886 22.7269 14.3652 22.4041 14.01ZM18.2197 8.89319H23.7145V10.4172H18.2197V8.89319Z" fill="white"/>
</g>
<defs>
<clipPath id="clip0_151_81">
<rect width="30" height="30" fill="white"/>
</clipPath>
</defs>
</svg>
