<svg width="24" height="24" viewBox="0 0 24 24" fill="none" xmlns="http://www.w3.org/2000/svg">
<g clip-path="url(#clip0_151_52)">
<path d="M12 24C18.6274 24 24 18.6274 24 12C24 5.37258 18.6274 0 12 0C5.37258 0 0 5.37258 0 12C0 18.6274 5.37258 24 12 24Z" fill="#2A81BF"/>
<path d="M8.47775 6.56256C8.99519 6.56256 9.4675 6.60864 9.89471 6.69984C10.3219 6.79104 10.6867 6.9408 10.991 7.14912C11.2953 7.35744 11.5315 7.63392 11.6995 7.97952C11.8675 8.32512 11.951 8.75136 11.951 9.2592C11.951 9.80736 11.8262 10.2643 11.5776 10.6301C11.3289 10.9958 10.9603 11.2954 10.4736 11.5286C11.1437 11.7216 11.6438 12.0595 11.9741 12.5414C12.3043 13.0234 12.4694 13.6051 12.4694 14.2858C12.4694 14.8339 12.3629 15.3091 12.1497 15.7104C11.9366 16.1117 11.6496 16.439 11.2886 16.6925C10.9277 16.9469 10.5168 17.1341 10.055 17.256C9.59039 17.3779 9.11135 17.4394 8.63135 17.4384H3.35999V6.56256H8.47775ZM8.17343 10.9642C8.59967 10.9642 8.95007 10.8624 9.22463 10.6598C9.49919 10.4563 9.63647 10.127 9.63551 9.67008C9.63551 9.41664 9.58943 9.20832 9.49823 9.04608C9.40703 8.88384 9.28511 8.75616 9.13247 8.66496C8.97983 8.57376 8.80511 8.5104 8.60735 8.47488C8.40383 8.43936 8.19743 8.42112 7.99007 8.42208H5.75231V10.9661L8.17343 10.9642ZM8.31071 15.5789C8.53631 15.5798 8.76095 15.5568 8.98079 15.5107C9.19391 15.4646 9.38207 15.3888 9.54431 15.2822C9.70655 15.1757 9.83615 15.0307 9.9331 14.8483C10.0291 14.6659 10.0781 14.4317 10.0781 14.1475C10.0781 13.5898 9.92063 13.1904 9.60575 12.9523C9.29087 12.7133 8.87423 12.5942 8.35679 12.5942H5.75231V15.5798L8.31071 15.5789ZM15.4781 15.3504C15.8025 15.6653 16.2701 15.8227 16.8797 15.8227C17.3165 15.8227 17.6918 15.7133 18.0067 15.4954C18.3216 15.2774 18.5145 15.0461 18.5856 14.8022H20.4893C20.1849 15.7469 19.7174 16.4218 19.0877 16.8278C18.4579 17.2339 17.6966 17.4374 16.8029 17.4374C16.1837 17.4374 15.6249 17.3386 15.1277 17.1408C14.6304 16.943 14.2089 16.6608 13.8633 16.295C13.5177 15.9293 13.2509 15.4934 13.0637 14.9856C12.8765 14.4778 12.7824 13.919 12.7824 13.3104C12.7824 12.7219 12.8784 12.1738 13.0713 11.6659C13.2643 11.1581 13.5389 10.7194 13.8941 10.3488C14.2493 9.97824 14.6736 9.6864 15.1661 9.47328C15.6585 9.26016 16.2048 9.1536 16.8038 9.1536C17.4739 9.1536 18.0576 9.2832 18.5558 9.5424C19.0531 9.8016 19.4621 10.1491 19.7817 10.5859C20.1014 11.0227 20.3328 11.52 20.4749 12.0787C20.6169 12.6374 20.6678 13.2211 20.6275 13.8307H14.9462C14.976 14.5286 15.1536 15.0365 15.4781 15.3504ZM17.9232 11.208C17.664 10.9238 17.2704 10.7818 16.7424 10.7818C16.3968 10.7818 16.1097 10.8403 15.8822 10.9565C15.6537 11.0736 15.4713 11.2176 15.3341 11.3904C15.1968 11.5632 15.1008 11.7456 15.0451 11.9386C14.9894 12.1315 14.9558 12.3043 14.9462 12.456H18.4646C18.3619 11.9088 18.1814 11.4922 17.9232 11.208ZM14.5757 7.11456H18.9715V8.33376H14.5757V7.11456Z" fill="white"/>
</g>
<defs>
<clipPath id="clip0_151_52">
<rect width="24" height="24" fill="white"/>
</clipPath>
</defs>
</svg>
