<svg width="20" height="21" viewBox="0 0 20 21" fill="none" xmlns="http://www.w3.org/2000/svg">
<path d="M10 2.5C6.68632 2.5 4.00003 5.18629 4.00003 8.5V12.0858L3.29292 12.7929C3.00692 13.0789 2.92137 13.509 3.07615 13.8827C3.23093 14.2564 3.59557 14.5 4.00003 14.5H16C16.4045 14.5 16.7691 14.2564 16.9239 13.8827C17.0787 13.509 16.9931 13.0789 16.7071 12.7929L16 12.0858V8.5C16 5.18629 13.3137 2.5 10 2.5Z" fill="#21272A"/>
<path d="M10 18.5C8.34315 18.5 7 17.1569 7 15.5H13C13 17.1569 11.6569 18.5 10 18.5Z" fill="#21272A"/>
</svg>
