<svg width="20" height="21" viewBox="0 0 20 21" fill="none" xmlns="http://www.w3.org/2000/svg">
<path d="M9 5.30423C7.9428 4.78906 6.75516 4.5 5.5 4.5C4.24484 4.5 3.0572 4.78906 2 5.30423V15.3042C3.0572 14.7891 4.24484 14.5 5.5 14.5C7.1686 14.5 8.71789 15.0108 10 15.8847C11.2821 15.0108 12.8314 14.5 14.5 14.5C15.7552 14.5 16.9428 14.7891 18 15.3042V5.30423C16.9428 4.78906 15.7552 4.5 14.5 4.5C13.2448 4.5 12.0572 4.78906 11 5.30423V12.5C11 13.0523 10.5523 13.5 10 13.5C9.44772 13.5 9 13.0523 9 12.5V5.30423Z" fill="#21272A"/>
</svg>
