<svg width="20" height="21" viewBox="0 0 20 21" fill="none" xmlns="http://www.w3.org/2000/svg">
<path d="M6 3.5C6 2.94772 6.44772 2.5 7 2.5H7.01C7.56228 2.5 8.01 2.94772 8.01 3.5C8.01 4.05228 7.56228 4.5 7.01 4.5H7C6.44772 4.5 6 4.05228 6 3.5Z" fill="#21272A"/>
<path d="M8 6.5C8 5.94772 7.55228 5.5 7 5.5C6.44772 5.5 6 5.94772 6 6.5V7.5C4.89543 7.5 4 8.39543 4 9.5V10.5C2.89543 10.5 2 11.3954 2 12.5V13.1833C2.36868 13.2866 2.72499 13.4482 3.0547 13.668C3.62713 14.0496 4.37287 14.0496 4.9453 13.668C6.18953 12.8385 7.81047 12.8385 9.0547 13.668C9.62713 14.0496 10.3729 14.0496 10.9453 13.668C12.1895 12.8385 13.8105 12.8385 15.0547 13.668C15.6271 14.0496 16.3729 14.0496 16.9453 13.668C17.275 13.4482 17.6313 13.2866 18 13.1833V12.5C18 11.3954 17.1046 10.5 16 10.5V9.5C16 8.39543 15.1046 7.5 14 7.5V6.5C14 5.94772 13.5523 5.5 13 5.5C12.4477 5.5 12 5.94772 12 6.5V7.5H11V6.5C11 5.94772 10.5523 5.5 10 5.5C9.44772 5.5 9 5.94772 9 6.5V7.5H8V6.5Z" fill="#21272A"/>
<path d="M18 15.3679C16.7633 16.1614 15.1714 16.1495 13.9453 15.3321C13.3729 14.9505 12.6271 14.9505 12.0547 15.3321C10.8105 16.1616 9.18953 16.1616 7.9453 15.3321C7.37287 14.9505 6.62713 14.9505 6.0547 15.3321C4.82863 16.1495 3.23675 16.1614 2 15.3679V17.5C2 18.0523 2.44772 18.5 3 18.5H17C17.5523 18.5 18 18.0523 18 17.5V15.3679Z" fill="#21272A"/>
<path d="M9 3.5C9 2.94772 9.44772 2.5 10 2.5H10.01C10.5623 2.5 11.01 2.94772 11.01 3.5C11.01 4.05228 10.5623 4.5 10.01 4.5H10C9.44772 4.5 9 4.05228 9 3.5Z" fill="#21272A"/>
<path d="M12 3.5C12 2.94772 12.4477 2.5 13 2.5H13.01C13.5623 2.5 14.01 2.94772 14.01 3.5C14.01 4.05228 13.5623 4.5 13.01 4.5H13C12.4477 4.5 12 4.05228 12 3.5Z" fill="#21272A"/>
</svg>
