<svg width="20" height="21" viewBox="0 0 20 21" fill="none" xmlns="http://www.w3.org/2000/svg">
<path fill-rule="evenodd" clip-rule="evenodd" d="M4 5.5C2.89543 5.5 2 6.39543 2 7.5V15.5C2 16.6046 2.89543 17.5 4 17.5H16C17.1046 17.5 18 16.6046 18 15.5V7.5C18 6.39543 17.1046 5.5 16 5.5H14.4142C14.149 5.5 13.8946 5.39464 13.7071 5.20711L12.5858 4.08579C12.2107 3.71071 11.702 3.5 11.1716 3.5H8.82843C8.29799 3.5 7.78929 3.71071 7.41421 4.08579L6.29289 5.20711C6.10536 5.39464 5.851 5.5 5.58579 5.5H4ZM10 14.5C11.6569 14.5 13 13.1569 13 11.5C13 9.84315 11.6569 8.5 10 8.5C8.34315 8.5 7 9.84315 7 11.5C7 13.1569 8.34315 14.5 10 14.5Z" fill="#21272A"/>
</svg>
