<svg width="26" height="26" viewBox="0 0 26 26" fill="none" xmlns="http://www.w3.org/2000/svg">
<path d="M7.93343 14.94C9.67157 14.94 11.0645 16.3465 11.0645 18.097V22.2993C11.0645 24.0375 9.67157 25.4551 7.93343 25.4551H3.76685C2.04104 25.4551 0.635742 24.0375 0.635742 22.2993V18.097C0.635742 16.3465 2.04104 14.94 3.76685 14.94H7.93343ZM22.1591 14.94C23.8849 14.94 25.2902 16.3465 25.2902 18.097V22.2993C25.2902 24.0375 23.8849 25.4551 22.1591 25.4551H17.9925C16.2544 25.4551 14.8614 24.0375 14.8614 22.2993V18.097C14.8614 16.3465 16.2544 14.94 17.9925 14.94H22.1591ZM7.93343 0.801086C9.67157 0.801086 11.0645 2.21871 11.0645 3.95808V8.16041C11.0645 9.91087 9.67157 11.3162 7.93343 11.3162H3.76685C2.04104 11.3162 0.635742 9.91087 0.635742 8.16041V3.95808C0.635742 2.21871 2.04104 0.801086 3.76685 0.801086H7.93343ZM22.1591 0.801086C23.8849 0.801086 25.2902 2.21871 25.2902 3.95808V8.16041C25.2902 9.91087 23.8849 11.3162 22.1591 11.3162H17.9925C16.2544 11.3162 14.8614 9.91087 14.8614 8.16041V3.95808C14.8614 2.21871 16.2544 0.801086 17.9925 0.801086H22.1591Z" fill="#1273B8" fill-opacity="0.8"/>
</svg>
