<svg width="20" height="21" viewBox="0 0 20 21" fill="none" xmlns="http://www.w3.org/2000/svg">
<path fill-rule="evenodd" clip-rule="evenodd" d="M5 3.5C3.89543 3.5 3 4.39543 3 5.5V15.5C3 16.6046 3.89543 17.5 5 17.5H15C16.1046 17.5 17 16.6046 17 15.5V5.5C17 4.39543 16.1046 3.5 15 3.5H5ZM14 7.5C14 6.94772 13.5523 6.5 13 6.5C12.4477 6.5 12 6.94772 12 7.5V13.5C12 14.0523 12.4477 14.5 13 14.5C13.5523 14.5 14 14.0523 14 13.5V7.5ZM11 9.5C11 8.94772 10.5523 8.5 10 8.5C9.44772 8.5 9 8.94772 9 9.5V13.5C9 14.0523 9.44772 14.5 10 14.5C10.5523 14.5 11 14.0523 11 13.5V9.5ZM8 12.5C8 11.9477 7.55228 11.5 7 11.5C6.44772 11.5 6 11.9477 6 12.5V13.5C6 14.0523 6.44772 14.5 7 14.5C7.55228 14.5 8 14.0523 8 13.5V12.5Z" fill="#21272A"/>
</svg>
