<svg width="20" height="21" viewBox="0 0 20 21" fill="none" xmlns="http://www.w3.org/2000/svg">
<path d="M2 11.5C2 10.9477 2.44772 10.5 3 10.5H5C5.55228 10.5 6 10.9477 6 11.5V16.5C6 17.0523 5.55228 17.5 5 17.5H3C2.44772 17.5 2 17.0523 2 16.5V11.5Z" fill="#21272A"/>
<path d="M8 7.5C8 6.94772 8.44772 6.5 9 6.5H11C11.5523 6.5 12 6.94772 12 7.5V16.5C12 17.0523 11.5523 17.5 11 17.5H9C8.44772 17.5 8 17.0523 8 16.5V7.5Z" fill="#21272A"/>
<path d="M14 4.5C14 3.94772 14.4477 3.5 15 3.5H17C17.5523 3.5 18 3.94772 18 4.5V16.5C18 17.0523 17.5523 17.5 17 17.5H15C14.4477 17.5 14 17.0523 14 16.5V4.5Z" fill="#21272A"/>
</svg>
