<svg width="20" height="21" viewBox="0 0 20 21" fill="none" xmlns="http://www.w3.org/2000/svg">
<path d="M2 5.5C2 4.39543 2.89543 3.5 4 3.5H11C12.1046 3.5 13 4.39543 13 5.5V9.5C13 10.6046 12.1046 11.5 11 11.5H9L6 14.5V11.5H4C2.89543 11.5 2 10.6046 2 9.5V5.5Z" fill="#21272A"/>
<path d="M15 7.5V9.5C15 11.7091 13.2091 13.5 11 13.5H9.82843L8.06173 15.2667C8.34154 15.4156 8.66091 15.5 9 15.5H11L14 18.5V15.5H16C17.1046 15.5 18 14.6046 18 13.5V9.5C18 8.39543 17.1046 7.5 16 7.5H15Z" fill="#21272A"/>
</svg>
