<svg width="20" height="21" viewBox="0 0 20 21" fill="none" xmlns="http://www.w3.org/2000/svg">
<path fill-rule="evenodd" clip-rule="evenodd" d="M15.7071 4.79289C16.0976 5.18342 16.0976 5.81658 15.7071 6.20711L10.7071 11.2071C10.3166 11.5976 9.68342 11.5976 9.29289 11.2071L4.29289 6.20711C3.90237 5.81658 3.90237 5.18342 4.29289 4.79289C4.68342 4.40237 5.31658 4.40237 5.70711 4.79289L10 9.08579L14.2929 4.79289C14.6834 4.40237 15.3166 4.40237 15.7071 4.79289ZM15.7071 10.7929C16.0976 11.1834 16.0976 11.8166 15.7071 12.2071L10.7071 17.2071C10.3166 17.5976 9.68342 17.5976 9.29289 17.2071L4.29289 12.2071C3.90237 11.8166 3.90237 11.1834 4.29289 10.7929C4.68342 10.4024 5.31658 10.4024 5.70711 10.7929L10 15.0858L14.2929 10.7929C14.6834 10.4024 15.3166 10.4024 15.7071 10.7929Z" fill="#21272A"/>
</svg>
