<svg width="20" height="21" viewBox="0 0 20 21" fill="none" xmlns="http://www.w3.org/2000/svg">
<path fill-rule="evenodd" clip-rule="evenodd" d="M10.2929 16.2071C9.90237 15.8166 9.90237 15.1834 10.2929 14.7929L14.5858 10.5L10.2929 6.20711C9.90237 5.81658 9.90237 5.18342 10.2929 4.79289C10.6834 4.40237 11.3166 4.40237 11.7071 4.79289L16.7071 9.79289C17.0976 10.1834 17.0976 10.8166 16.7071 11.2071L11.7071 16.2071C11.3166 16.5976 10.6834 16.5976 10.2929 16.2071Z" fill="#21272A"/>
<path fill-rule="evenodd" clip-rule="evenodd" d="M4.29289 16.2071C3.90237 15.8166 3.90237 15.1834 4.29289 14.7929L8.58579 10.5L4.29289 6.20711C3.90237 5.81658 3.90237 5.18342 4.29289 4.79289C4.68342 4.40237 5.31658 4.40237 5.70711 4.79289L10.7071 9.79289C11.0976 10.1834 11.0976 10.8166 10.7071 11.2071L5.70711 16.2071C5.31658 16.5976 4.68342 16.5976 4.29289 16.2071Z" fill="#21272A"/>
</svg>
