<svg width="20" height="21" viewBox="0 0 20 21" fill="none" xmlns="http://www.w3.org/2000/svg">
<path fill-rule="evenodd" clip-rule="evenodd" d="M4.29289 16.2071C3.90237 15.8166 3.90237 15.1834 4.29289 14.7929L9.29289 9.79289C9.68342 9.40237 10.3166 9.40237 10.7071 9.79289L15.7071 14.7929C16.0976 15.1834 16.0976 15.8166 15.7071 16.2071C15.3166 16.5976 14.6834 16.5976 14.2929 16.2071L10 11.9142L5.70711 16.2071C5.31658 16.5976 4.68342 16.5976 4.29289 16.2071ZM4.29289 10.2071C3.90237 9.81658 3.90237 9.18342 4.29289 8.79289L9.29289 3.79289C9.68342 3.40237 10.3166 3.40237 10.7071 3.79289L15.7071 8.79289C16.0976 9.18342 16.0976 9.81658 15.7071 10.2071C15.3166 10.5976 14.6834 10.5976 14.2929 10.2071L10 5.91421L5.70711 10.2071C5.31658 10.5976 4.68342 10.5976 4.29289 10.2071Z" fill="#21272A"/>
</svg>
