<svg width="20" height="21" viewBox="0 0 20 21" fill="none" xmlns="http://www.w3.org/2000/svg">
<path d="M9 2.5C8.44772 2.5 8 2.94772 8 3.5C8 4.05228 8.44772 4.5 9 4.5H11C11.5523 4.5 12 4.05228 12 3.5C12 2.94772 11.5523 2.5 11 2.5H9Z" fill="#21272A"/>
<path fill-rule="evenodd" clip-rule="evenodd" d="M4 5.5C4 4.39543 4.89543 3.5 6 3.5C6 5.15685 7.34315 6.5 9 6.5H11C12.6569 6.5 14 5.15685 14 3.5C15.1046 3.5 16 4.39543 16 5.5V16.5C16 17.6046 15.1046 18.5 14 18.5H6C4.89543 18.5 4 17.6046 4 16.5V5.5ZM13.7071 11.2071C14.0976 10.8166 14.0976 10.1834 13.7071 9.79289C13.3166 9.40237 12.6834 9.40237 12.2929 9.79289L9 13.0858L7.70711 11.7929C7.31658 11.4024 6.68342 11.4024 6.29289 11.7929C5.90237 12.1834 5.90237 12.8166 6.29289 13.2071L8.29289 15.2071C8.68342 15.5976 9.31658 15.5976 9.70711 15.2071L13.7071 11.2071Z" fill="#21272A"/>
</svg>
