<svg width="20" height="21" viewBox="0 0 20 21" fill="none" xmlns="http://www.w3.org/2000/svg">
<path fill-rule="evenodd" clip-rule="evenodd" d="M2 10C2 11.933 3.567 13.5 5.5 13.5H9V16.0858L7.70711 14.7929C7.31658 14.4024 6.68342 14.4024 6.29289 14.7929C5.90237 15.1834 5.90237 15.8166 6.29289 16.2071L9.29289 19.2071C9.68342 19.5976 10.3166 19.5976 10.7071 19.2071L13.7071 16.2071C14.0976 15.8166 14.0976 15.1834 13.7071 14.7929C13.3166 14.4024 12.6834 14.4024 12.2929 14.7929L11 16.0858V13.5H13.5C15.9853 13.5 18 11.4853 18 9C18 6.51472 15.9853 4.5 13.5 4.5C13.2912 4.5 13.0857 4.51422 12.8845 4.54175C12.4551 2.79538 10.8788 1.5 9 1.5C6.79086 1.5 5 3.29086 5 5.5C5 5.85223 5.04553 6.19382 5.13102 6.51922C3.37146 6.70358 2 8.19163 2 10ZM11 13.5H9V8.5C9 7.94772 9.44772 7.5 10 7.5C10.5523 7.5 11 7.94772 11 8.5V13.5Z" fill="#21272A"/>
</svg>
