<svg width="20" height="21" viewBox="0 0 20 21" fill="none" xmlns="http://www.w3.org/2000/svg">
<path d="M5.5 13.5C3.567 13.5 2 11.933 2 10C2 8.19163 3.37146 6.70358 5.13102 6.51922C5.04553 6.19382 5 5.85223 5 5.5C5 3.29086 6.79086 1.5 9 1.5C10.8788 1.5 12.4551 2.79538 12.8845 4.54175C13.0857 4.51422 13.2912 4.5 13.5 4.5C15.9853 4.5 18 6.51472 18 9C18 11.4853 15.9853 13.5 13.5 13.5H11V9.91421L12.2929 11.2071C12.6834 11.5976 13.3166 11.5976 13.7071 11.2071C14.0976 10.8166 14.0976 10.1834 13.7071 9.79289L10.7071 6.79289C10.3166 6.40237 9.68342 6.40237 9.29289 6.79289L6.29289 9.79289C5.90237 10.1834 5.90237 10.8166 6.29289 11.2071C6.68342 11.5976 7.31658 11.5976 7.70711 11.2071L9 9.91421L9 13.5H5.5Z" fill="#21272A"/>
<path d="M9 13.5H11L11 18.5C11 19.0523 10.5523 19.5 10 19.5C9.44772 19.5 9 19.0523 9 18.5L9 13.5Z" fill="#21272A"/>
</svg>
