<svg width="20" height="21" viewBox="0 0 20 21" fill="none" xmlns="http://www.w3.org/2000/svg">
<path fill-rule="evenodd" clip-rule="evenodd" d="M12.3162 3.55134C12.8402 3.72599 13.1233 4.29231 12.9487 4.81625L8.94868 16.8163C8.77404 17.3402 8.20772 17.6234 7.68377 17.4487C7.15983 17.2741 6.87667 16.7077 7.05132 16.1838L11.0513 4.1838C11.226 3.65986 11.7923 3.3767 12.3162 3.55134ZM5.70711 6.79292C6.09763 7.18344 6.09763 7.81661 5.70711 8.20713L3.41421 10.5L5.70711 12.7929C6.09763 13.1834 6.09763 13.8166 5.70711 14.2071C5.31658 14.5977 4.68342 14.5977 4.29289 14.2071L1.29289 11.2071C0.902369 10.8166 0.902369 10.1834 1.29289 9.79292L4.29289 6.79292C4.68342 6.4024 5.31658 6.4024 5.70711 6.79292ZM14.2929 6.79292C14.6834 6.4024 15.3166 6.4024 15.7071 6.79292L18.7071 9.79292C19.0976 10.1834 19.0976 10.8166 18.7071 11.2071L15.7071 14.2071C15.3166 14.5977 14.6834 14.5977 14.2929 14.2071C13.9024 13.8166 13.9024 13.1834 14.2929 12.7929L16.5858 10.5L14.2929 8.20713C13.9024 7.81661 13.9024 7.18344 14.2929 6.79292Z" fill="#21272A"/>
</svg>
