<svg width="20" height="21" viewBox="0 0 20 21" fill="none" xmlns="http://www.w3.org/2000/svg">
<path fill-rule="evenodd" clip-rule="evenodd" d="M4 2.5C2.89543 2.5 2 3.39543 2 4.5V15.5C2 17.1569 3.34315 18.5 5 18.5C6.65685 18.5 8 17.1569 8 15.5V4.5C8 3.39543 7.10457 2.5 6 2.5H4ZM5 16.5C5.55228 16.5 6 16.0523 6 15.5C6 14.9477 5.55228 14.5 5 14.5C4.44772 14.5 4 14.9477 4 15.5C4 16.0523 4.44772 16.5 5 16.5Z" fill="#21272A"/>
<path d="M10 14.7426L14.8995 9.84308C15.6805 9.06203 15.6805 7.7957 14.8995 7.01465L13.4853 5.60044C12.7042 4.81939 11.4379 4.81939 10.6568 5.60044L10 6.25728V14.7426Z" fill="#21272A"/>
<path d="M16 18.5H9.07104L15.071 12.5H16C17.1046 12.5 18 13.3954 18 14.5V16.5C18 17.6046 17.1046 18.5 16 18.5Z" fill="#21272A"/>
</svg>
