<svg width="20" height="21" viewBox="0 0 20 21" fill="none" xmlns="http://www.w3.org/2000/svg">
<path d="M4 4.5C2.89543 4.5 2 5.39543 2 6.5V7.5H18V6.5C18 5.39543 17.1046 4.5 16 4.5H4Z" fill="#21272A"/>
<path fill-rule="evenodd" clip-rule="evenodd" d="M18 9.5H2V14.5C2 15.6046 2.89543 16.5 4 16.5H16C17.1046 16.5 18 15.6046 18 14.5V9.5ZM4 13.5C4 12.9477 4.44772 12.5 5 12.5H6C6.55228 12.5 7 12.9477 7 13.5C7 14.0523 6.55228 14.5 6 14.5H5C4.44772 14.5 4 14.0523 4 13.5ZM9 12.5C8.44772 12.5 8 12.9477 8 13.5C8 14.0523 8.44772 14.5 9 14.5H10C10.5523 14.5 11 14.0523 11 13.5C11 12.9477 10.5523 12.5 10 12.5H9Z" fill="#21272A"/>
</svg>
