<svg width="20" height="21" viewBox="0 0 20 21" fill="none" xmlns="http://www.w3.org/2000/svg">
<path d="M11 17.5C11 17.8466 11.1795 18.1684 11.4743 18.3507C11.7691 18.5329 12.1372 18.5494 12.4472 18.3944L16.4472 16.3944C16.786 16.225 17 15.8788 17 15.5V9.73607C17 9.38949 16.8205 9.06762 16.5257 8.88542C16.2309 8.70321 15.8628 8.68665 15.5528 8.84164L11.5528 10.8416C11.214 11.011 11 11.3573 11 11.7361V17.5Z" fill="#21272A"/>
<path d="M15.2111 6.77639C15.5499 6.607 15.7639 6.26074 15.7639 5.88197C15.7639 5.50319 15.5499 5.15693 15.2111 4.98754L10.4472 2.60557C10.1657 2.46481 9.83431 2.46481 9.55279 2.60557L4.78885 4.98754C4.45007 5.15693 4.23607 5.50319 4.23607 5.88197C4.23607 6.26074 4.45007 6.607 4.78885 6.77639L9.55279 9.15836C9.83431 9.29912 10.1657 9.29912 10.4472 9.15836L15.2111 6.77639Z" fill="#21272A"/>
<path d="M4.44721 8.84164C4.13723 8.68665 3.76909 8.70321 3.47427 8.88542C3.17945 9.06762 3 9.38949 3 9.73607V15.5C3 15.8788 3.214 16.225 3.55279 16.3944L7.55279 18.3944C7.86277 18.5494 8.23091 18.5329 8.52573 18.3507C8.82055 18.1684 9 17.8466 9 17.5V11.7361C9 11.3573 8.786 11.011 8.44721 10.8416L4.44721 8.84164Z" fill="#21272A"/>
</svg>
