<svg width="20" height="21" viewBox="0 0 20 21" fill="none" xmlns="http://www.w3.org/2000/svg">
<path d="M9.50386 1.63176C9.81129 1.45608 10.1887 1.45608 10.4961 1.63176L12.2461 2.63176C12.7257 2.90577 12.8923 3.51662 12.6182 3.99614C12.3442 4.47566 11.7334 4.64225 11.2539 4.36824L10 3.65175L8.74614 4.36824C8.26662 4.64225 7.65577 4.47566 7.38176 3.99614C7.10775 3.51662 7.27434 2.90577 7.75386 2.63176L9.50386 1.63176Z" fill="#21272A"/>
<path d="M5.61824 5.00386C5.89225 5.48338 5.72566 6.09423 5.24614 6.36824L5.01556 6.5L5.24614 6.63176C5.72566 6.90577 5.89225 7.51662 5.61824 7.99614C5.34423 8.47566 4.73338 8.64225 4.25386 8.36824L4 8.22318V8.5C4 9.05228 3.55228 9.5 3 9.5C2.44772 9.5 2 9.05228 2 8.5V6.5C2 6.25001 2.09173 6.02145 2.24336 5.84614C2.27802 5.80603 2.31598 5.76854 2.35699 5.73411C2.40754 5.69163 2.46236 5.65405 2.52071 5.62213L4.25386 4.63176C4.73338 4.35775 5.34423 4.52434 5.61824 5.00386Z" fill="#21272A"/>
<path d="M14.3818 5.00386C14.6558 4.52434 15.2666 4.35775 15.7461 4.63176L17.4793 5.62212C17.5376 5.65405 17.5925 5.69162 17.643 5.73411C17.8613 5.91755 18 6.19258 18 6.5V8.5C18 9.05228 17.5523 9.5 17 9.5C16.4477 9.5 16 9.05228 16 8.5V8.22318L15.7461 8.36824C15.2666 8.64225 14.6558 8.47566 14.3818 7.99614C14.1077 7.51662 14.2743 6.90577 14.7539 6.63176L14.9844 6.5L14.7539 6.36824C14.2743 6.09423 14.1077 5.48338 14.3818 5.00386Z" fill="#21272A"/>
<path d="M7.38176 9.00386C7.65577 8.52434 8.26662 8.35775 8.74614 8.63176L10 9.34825L11.2539 8.63176C11.7334 8.35775 12.3442 8.52434 12.6182 9.00386C12.8923 9.48338 12.7257 10.0942 12.2461 10.3682L11 11.0803V12.5C11 13.0523 10.5523 13.5 10 13.5C9.44772 13.5 9 13.0523 9 12.5V11.0803L7.75386 10.3682C7.27434 10.0942 7.10775 9.48338 7.38176 9.00386Z" fill="#21272A"/>
<path d="M3 11.5C3.55228 11.5 4 11.9477 4 12.5V13.9197L5.24614 14.6318C5.72566 14.9058 5.89225 15.5166 5.61824 15.9961C5.34423 16.4757 4.73338 16.6423 4.25386 16.3682L2.50386 15.3682C2.19229 15.1902 2 14.8589 2 14.5V12.5C2 11.9477 2.44772 11.5 3 11.5Z" fill="#21272A"/>
<path d="M17 11.5C17.5523 11.5 18 11.9477 18 12.5V14.5C18 14.8589 17.8077 15.1902 17.4961 15.3682L15.7461 16.3682C15.2666 16.6423 14.6558 16.4757 14.3818 15.9961C14.1077 15.5166 14.2743 14.9058 14.7539 14.6318L16 13.9197V12.5C16 11.9477 16.4477 11.5 17 11.5Z" fill="#21272A"/>
<path d="M7.38176 17.0039C7.65577 16.5243 8.26662 16.3577 8.74614 16.6318L9 16.7768V16.5C9 15.9477 9.44772 15.5 10 15.5C10.5523 15.5 11 15.9477 11 16.5V16.7768L11.2539 16.6318C11.7334 16.3577 12.3442 16.5243 12.6182 17.0039C12.8923 17.4834 12.7257 18.0942 12.2461 18.3682L10.5113 19.3596C10.3617 19.4488 10.1868 19.5 10 19.5C9.81316 19.5 9.63828 19.4488 9.48866 19.3596L7.75386 18.3682C7.27434 18.0942 7.10775 17.4834 7.38176 17.0039Z" fill="#21272A"/>
</svg>
