<svg width="20" height="21" viewBox="0 0 20 21" fill="none" xmlns="http://www.w3.org/2000/svg">
<path fill-rule="evenodd" clip-rule="evenodd" d="M10 18.5C14.4183 18.5 18 14.9183 18 10.5C18 6.08172 14.4183 2.5 10 2.5C5.58172 2.5 2 6.08172 2 10.5C2 14.9183 5.58172 18.5 10 18.5ZM7 4.5C6.44772 4.5 6 4.94772 6 5.5C6 6.05228 6.44772 6.5 7 6.5C7.55228 6.5 8 6.94772 8 7.5V8.5H7C6.44772 8.5 6 8.94772 6 9.5C6 10.0523 6.44772 10.5 7 10.5H8V13.5C8 15.1569 9.34315 16.5 11 16.5C12.6569 16.5 14 15.1569 14 13.5V12.5C14 11.9477 13.5523 11.5 13 11.5C12.4477 11.5 12 11.9477 12 12.5V13.5C12 14.0523 11.5523 14.5 11 14.5C10.4477 14.5 10 14.0523 10 13.5V10.5H13C13.5523 10.5 14 10.0523 14 9.5C14 8.94772 13.5523 8.5 13 8.5H10V7.5C10 5.84315 8.65685 4.5 7 4.5Z" fill="#21272A"/>
</svg>
