<svg width="20" height="21" viewBox="0 0 20 21" fill="none" xmlns="http://www.w3.org/2000/svg">
<path fill-rule="evenodd" clip-rule="evenodd" d="M10 18.5C14.4183 18.5 18 14.9183 18 10.5C18 6.08172 14.4183 2.5 10 2.5C5.58172 2.5 2 6.08172 2 10.5C2 14.9183 5.58172 18.5 10 18.5ZM7.85752 5.98541C7.57337 5.51183 6.95911 5.35827 6.48553 5.64241C6.01195 5.92656 5.85839 6.54082 6.14254 7.0144L7.63384 9.49991H7.00003C6.44774 9.49991 6.00003 9.94762 6.00003 10.4999C6.00003 11.0522 6.44774 11.4999 7.00003 11.4999H8.83384L9.00003 11.7769V12.4999H7.00003C6.44774 12.4999 6.00003 12.9476 6.00003 13.4999C6.00003 14.0522 6.44774 14.4999 7.00003 14.4999H9.00003V15.4999C9.00003 16.0522 9.44774 16.4999 10 16.4999C10.5523 16.4999 11 16.0522 11 15.4999V14.4999H13C13.5523 14.4999 14 14.0522 14 13.4999C14 12.9476 13.5523 12.4999 13 12.4999H11V11.7769L11.1662 11.4999H13C13.5523 11.4999 14 11.0522 14 10.4999C14 9.94762 13.5523 9.49991 13 9.49991H12.3662L13.8575 7.0144C14.1417 6.54082 13.9881 5.92656 13.5145 5.64241C13.0409 5.35827 12.4267 5.51183 12.1425 5.98541L10.0338 9.49991H9.96622L7.85752 5.98541Z" fill="#21272A"/>
</svg>
