<svg width="20" height="21" viewBox="0 0 20 21" fill="none" xmlns="http://www.w3.org/2000/svg">
<path fill-rule="evenodd" clip-rule="evenodd" d="M10 18.5C14.4183 18.5 18 14.9183 18 10.5C18 6.08172 14.4183 2.5 10 2.5C5.58172 2.5 2 6.08172 2 10.5C2 14.9183 5.58172 18.5 10 18.5ZM7.00003 5.5C6.44774 5.5 6.00003 5.94772 6.00003 6.5C6.00003 7.05228 6.44774 7.5 7.00003 7.5H8.00003C8.74031 7.5 9.38666 7.9022 9.73246 8.5H7.00003C6.44774 8.5 6.00003 8.94772 6.00003 9.5C6.00003 10.0523 6.44774 10.5 7.00003 10.5H9.73246C9.38665 11.0978 8.74031 11.5 8.00003 11.5H7.00003C6.59557 11.5 6.23093 11.7436 6.07615 12.1173C5.92137 12.491 6.00692 12.9211 6.29292 13.2071L9.29292 16.2071C9.68345 16.5976 10.3166 16.5976 10.7071 16.2071C11.0977 15.8166 11.0977 15.1834 10.7071 14.7929L9.22363 13.3094C10.5222 12.8926 11.5316 11.8302 11.874 10.5H13C13.5523 10.5 14 10.0523 14 9.5C14 8.94772 13.5523 8.5 13 8.5H11.874C11.7827 8.14523 11.6439 7.80951 11.4649 7.5H13C13.5523 7.5 14 7.05228 14 6.5C14 5.94772 13.5523 5.5 13 5.5H7.00003Z" fill="#21272A"/>
</svg>
