<svg width="20" height="21" viewBox="0 0 20 21" fill="none" xmlns="http://www.w3.org/2000/svg">
<path fill-rule="evenodd" clip-rule="evenodd" d="M10 18.5C14.4183 18.5 18 14.9183 18 10.5C18 6.08172 14.4183 2.5 10 2.5C5.58172 2.5 2 6.08172 2 10.5C2 14.9183 5.58172 18.5 10 18.5ZM8.73617 7.47896C9.20793 6.6927 9.69618 6.5 10 6.5C10.3038 6.5 10.7921 6.6927 11.2638 7.47896C11.548 7.95254 12.1622 8.10611 12.6358 7.82196C13.1094 7.53781 13.263 6.92355 12.9788 6.44997C12.279 5.28361 11.2317 4.5 10 4.5C8.76829 4.5 7.721 5.28361 7.02119 6.44997C6.73632 6.92475 6.51422 7.44939 6.35097 8H6C5.44772 8 5 8.44772 5 9C5 9.55228 5.44772 10 6 10H6.01337C6.00443 10.167 6 10.3339 6 10.5C6 10.6661 6.00443 10.833 6.01337 11H6C5.44772 11 5 11.4477 5 12C5 12.5523 5.44772 13 6 13H6.35097C6.51422 13.5506 6.73632 14.0753 7.02119 14.55C7.721 15.7164 8.76829 16.5 10 16.5C11.2317 16.5 12.279 15.7164 12.9788 14.55C13.263 14.0764 13.1094 13.4622 12.6358 13.178C12.1622 12.8939 11.548 13.0475 11.2638 13.521C10.7921 14.3073 10.3038 14.5 10 14.5C9.69618 14.5 9.20793 14.3073 8.73617 13.521C8.63927 13.3595 8.5511 13.1851 8.47216 13H10C10.5523 13 11 12.5523 11 12C11 11.4477 10.5523 11 10 11H8.01695C8.00571 10.835 8 10.6681 8 10.5C8 10.3319 8.00571 10.165 8.01695 10H10C10.5523 10 11 9.55228 11 9C11 8.44772 10.5523 8 10 8H8.47216C8.5511 7.81488 8.63927 7.64047 8.73617 7.47896Z" fill="#21272A"/>
</svg>
