<svg width="20" height="21" viewBox="0 0 20 21" fill="none" xmlns="http://www.w3.org/2000/svg">
<path fill-rule="evenodd" clip-rule="evenodd" d="M10 18.5C14.4183 18.5 18 14.9183 18 10.5C18 6.08172 14.4183 2.5 10 2.5C5.58172 2.5 2 6.08172 2 10.5C2 14.9183 5.58172 18.5 10 18.5ZM11 4.5C9.34315 4.5 8 5.84315 8 7.5V9.5H7C6.44772 9.5 6 9.94772 6 10.5C6 11.0523 6.44772 11.5 7 11.5H8V12.5C8 13.0523 7.55228 13.5 7 13.5C6.44772 13.5 6 13.9477 6 14.5C6 15.0523 6.44772 15.5 7 15.5H13C13.5523 15.5 14 15.0523 14 14.5C14 13.9477 13.5523 13.5 13 13.5H9.82929C9.93985 13.1872 10 12.8506 10 12.5V11.5H11C11.5523 11.5 12 11.0523 12 10.5C12 9.94772 11.5523 9.5 11 9.5H10V7.5C10 6.94772 10.4477 6.5 11 6.5C11.5523 6.5 12 6.94772 12 7.5C12 8.05228 12.4477 8.5 13 8.5C13.5523 8.5 14 8.05228 14 7.5C14 5.84315 12.6569 4.5 11 4.5Z" fill="#21272A"/>
</svg>
