<svg width="20" height="21" viewBox="0 0 20 21" fill="none" xmlns="http://www.w3.org/2000/svg">
<path d="M3 12.5V15.5C3 17.1569 6.13401 18.5 10 18.5C13.866 18.5 17 17.1569 17 15.5V12.5C17 14.1569 13.866 15.5 10 15.5C6.13401 15.5 3 14.1569 3 12.5Z" fill="#21272A"/>
<path d="M3 7.5V10.5C3 12.1569 6.13401 13.5 10 13.5C13.866 13.5 17 12.1569 17 10.5V7.5C17 9.15685 13.866 10.5 10 10.5C6.13401 10.5 3 9.15685 3 7.5Z" fill="#21272A"/>
<path d="M17 5.5C17 7.15685 13.866 8.5 10 8.5C6.13401 8.5 3 7.15685 3 5.5C3 3.84315 6.13401 2.5 10 2.5C13.866 2.5 17 3.84315 17 5.5Z" fill="#21272A"/>
</svg>
