<svg width="20" height="21" viewBox="0 0 20 21" fill="none" xmlns="http://www.w3.org/2000/svg">
<path fill-rule="evenodd" clip-rule="evenodd" d="M3 5.5C3 4.39543 3.89543 3.5 5 3.5H15C16.1046 3.5 17 4.39543 17 5.5V13.5C17 14.6046 16.1046 15.5 15 15.5H12.7808L12.903 15.9887L13.7071 16.7929C13.9931 17.0789 14.0787 17.509 13.9239 17.8827C13.7691 18.2563 13.4045 18.5 13 18.5H7.00003C6.59557 18.5 6.23093 18.2563 6.07615 17.8827C5.92137 17.509 6.00692 17.0789 6.29292 16.7929L7.09706 15.9887L7.21925 15.5H5C3.89543 15.5 3 14.6046 3 13.5V5.5ZM8.7713 12.5C8.75657 12.4997 8.74189 12.4997 8.72725 12.5H5V5.5H15V12.5H11.2728C11.2582 12.4997 11.2435 12.4997 11.2288 12.5H8.7713Z" fill="#21272A"/>
</svg>
