<svg width="20" height="21" viewBox="0 0 20 21" fill="none" xmlns="http://www.w3.org/2000/svg">
<path fill-rule="evenodd" clip-rule="evenodd" d="M6 2.5C4.89543 2.5 4 3.39543 4 4.5V16.5C4 17.6046 4.89543 18.5 6 18.5H14C15.1046 18.5 16 17.6046 16 16.5V7.91421C16 7.38378 15.7893 6.87507 15.4142 6.5L12 3.08579C11.6249 2.71071 11.1162 2.5 10.5858 2.5H6ZM8 12.5C8 11.9477 7.55228 11.5 7 11.5C6.44772 11.5 6 11.9477 6 12.5V15.5C6 16.0523 6.44772 16.5 7 16.5C7.55228 16.5 8 16.0523 8 15.5V12.5ZM10 9.5C10.5523 9.5 11 9.94772 11 10.5V15.5C11 16.0523 10.5523 16.5 10 16.5C9.44772 16.5 9 16.0523 9 15.5V10.5C9 9.94772 9.44772 9.5 10 9.5ZM14 8.5C14 7.94772 13.5523 7.5 13 7.5C12.4477 7.5 12 7.94772 12 8.5V15.5C12 16.0523 12.4477 16.5 13 16.5C13.5523 16.5 14 16.0523 14 15.5V8.5Z" fill="#21272A"/>
</svg>
