<svg width="20" height="21" viewBox="0 0 20 21" fill="none" xmlns="http://www.w3.org/2000/svg">
<path fill-rule="evenodd" clip-rule="evenodd" d="M6 2.5C4.89543 2.5 4 3.39543 4 4.5V16.5C4 17.6046 4.89543 18.5 6 18.5H14C15.1046 18.5 16 17.6046 16 16.5V7.91421C16 7.38378 15.7893 6.87507 15.4142 6.5L12 3.08579C11.6249 2.71071 11.1162 2.5 10.5858 2.5H6ZM11 8.5C11 7.94772 10.5523 7.5 10 7.5C9.44772 7.5 9 7.94772 9 8.5V10.5H7C6.44772 10.5 6 10.9477 6 11.5C6 12.0523 6.44772 12.5 7 12.5H9V14.5C9 15.0523 9.44771 15.5 10 15.5C10.5523 15.5 11 15.0523 11 14.5L11 12.5H13C13.5523 12.5 14 12.0523 14 11.5C14 10.9477 13.5523 10.5 13 10.5H11V8.5Z" fill="#21272A"/>
</svg>
