<svg width="20" height="21" viewBox="0 0 20 21" fill="none" xmlns="http://www.w3.org/2000/svg">
<path fill-rule="evenodd" clip-rule="evenodd" d="M6 2.5C4.89543 2.5 4 3.39543 4 4.5V16.5C4 17.6046 4.89543 18.5 6 18.5H14C15.1046 18.5 16 17.6046 16 16.5V7.91421C16 7.38378 15.7893 6.87507 15.4142 6.5L12 3.08579C11.6249 2.71071 11.1162 2.5 10.5858 2.5H6ZM11 8.5C11 7.94772 10.5523 7.5 10 7.5C9.44772 7.5 9 7.94772 9 8.5V12.0858L7.70711 10.7929C7.31658 10.4024 6.68342 10.4024 6.29289 10.7929C5.90237 11.1834 5.90237 11.8166 6.29289 12.2071L9.29289 15.2071C9.68342 15.5976 10.3166 15.5976 10.7071 15.2071L13.7071 12.2071C14.0976 11.8166 14.0976 11.1834 13.7071 10.7929C13.3166 10.4024 12.6834 10.4024 12.2929 10.7929L11 12.0858V8.5Z" fill="#21272A"/>
</svg>
