<svg width="20" height="21" viewBox="0 0 20 21" fill="none" xmlns="http://www.w3.org/2000/svg">
<path d="M6 10.5C6 11.6046 5.10457 12.5 4 12.5C2.89543 12.5 2 11.6046 2 10.5C2 9.39543 2.89543 8.5 4 8.5C5.10457 8.5 6 9.39543 6 10.5Z" fill="#21272A"/>
<path d="M12 10.5C12 11.6046 11.1046 12.5 10 12.5C8.89543 12.5 8 11.6046 8 10.5C8 9.39543 8.89543 8.5 10 8.5C11.1046 8.5 12 9.39543 12 10.5Z" fill="#21272A"/>
<path d="M16 12.5C17.1046 12.5 18 11.6046 18 10.5C18 9.39543 17.1046 8.5 16 8.5C14.8954 8.5 14 9.39543 14 10.5C14 11.6046 14.8954 12.5 16 12.5Z" fill="#21272A"/>
</svg>
