<svg width="20" height="21" viewBox="0 0 20 21" fill="none" xmlns="http://www.w3.org/2000/svg">
<path d="M3 1.5C2.44772 1.5 2 1.94772 2 2.5C2 3.05228 2.44772 3.5 3 3.5H4.21922L4.52478 4.72224C4.52799 4.73637 4.5315 4.75039 4.5353 4.76429L5.89253 10.1932L4.99995 11.0858C3.74002 12.3457 4.63235 14.5 6.41416 14.5H15C15.5522 14.5 16 14.0523 16 13.5C16 12.9477 15.5522 12.5 15 12.5L6.41417 12.5L7.41416 11.5H14C14.3788 11.5 14.725 11.286 14.8944 10.9472L17.8944 4.94721C18.0494 4.63723 18.0329 4.26909 17.8507 3.97427C17.6684 3.67945 17.3466 3.5 17 3.5H6.28078L5.97014 2.25746C5.85885 1.8123 5.45887 1.5 5 1.5H3Z" fill="#21272A"/>
<path d="M16 17C16 17.8284 15.3284 18.5 14.5 18.5C13.6716 18.5 13 17.8284 13 17C13 16.1716 13.6716 15.5 14.5 15.5C15.3284 15.5 16 16.1716 16 17Z" fill="#21272A"/>
<path d="M6.5 18.5C7.32843 18.5 8 17.8284 8 17C8 16.1716 7.32843 15.5 6.5 15.5C5.67157 15.5 5 16.1716 5 17C5 17.8284 5.67157 18.5 6.5 18.5Z" fill="#21272A"/>
</svg>
