<svg width="20" height="21" viewBox="0 0 20 21" fill="none" xmlns="http://www.w3.org/2000/svg">
<path fill-rule="evenodd" clip-rule="evenodd" d="M10 18.5C14.4183 18.5 18 14.9183 18 10.5C18 6.08172 14.4183 2.5 10 2.5C5.58172 2.5 2 6.08172 2 10.5C2 14.9183 5.58172 18.5 10 18.5ZM7 9.5C7.55228 9.5 8 9.05228 8 8.5C8 7.94772 7.55228 7.5 7 7.5C6.44772 7.5 6 7.94772 6 8.5C6 9.05228 6.44772 9.5 7 9.5ZM14 8.5C14 9.05228 13.5523 9.5 13 9.5C12.4477 9.5 12 9.05228 12 8.5C12 7.94772 12.4477 7.5 13 7.5C13.5523 7.5 14 7.94772 14 8.5ZM13.5355 14.0354C13.9261 13.6449 13.9261 13.0118 13.5355 12.6212C13.145 12.2307 12.5118 12.2307 12.1213 12.6212C10.9497 13.7928 9.05025 13.7928 7.87868 12.6212C7.48816 12.2307 6.85499 12.2307 6.46447 12.6212C6.07394 13.0118 6.07394 13.6449 6.46447 14.0354C8.41709 15.9881 11.5829 15.9881 13.5355 14.0354Z" fill="#21272A"/>
</svg>
