<svg width="20" height="21" viewBox="0 0 20 21" fill="none" xmlns="http://www.w3.org/2000/svg">
<path fill-rule="evenodd" clip-rule="evenodd" d="M10 18.5C14.4183 18.5 18 14.9183 18 10.5C18 6.08172 14.4183 2.5 10 2.5C5.58172 2.5 2 6.08172 2 10.5C2 14.9183 5.58172 18.5 10 18.5ZM7 9.5C7.55228 9.5 8 9.05228 8 8.5C8 7.94772 7.55228 7.5 7 7.5C6.44772 7.5 6 7.94772 6 8.5C6 9.05228 6.44772 9.5 7 9.5ZM14 8.5C14 9.05228 13.5523 9.5 13 9.5C12.4477 9.5 12 9.05228 12 8.5C12 7.94772 12.4477 7.5 13 7.5C13.5523 7.5 14 7.94772 14 8.5ZM6.46447 14.3785C6.85499 14.769 7.48816 14.769 7.87868 14.3785C9.05025 13.2069 10.9497 13.2069 12.1213 14.3785C12.5118 14.769 13.145 14.769 13.5355 14.3785C13.9261 13.9879 13.9261 13.3548 13.5355 12.9642C11.5829 11.0116 8.41709 11.0116 6.46447 12.9642C6.07394 13.3548 6.07394 13.9879 6.46447 14.3785Z" fill="#21272A"/>
</svg>
