<svg width="20" height="21" viewBox="0 0 20 21" fill="none" xmlns="http://www.w3.org/2000/svg">
<path d="M11 3.5C10.4477 3.5 10 3.94772 10 4.5C10 5.05228 10.4477 5.5 11 5.5H13.5858L7.29289 11.7929C6.90237 12.1834 6.90237 12.8166 7.29289 13.2071C7.68342 13.5976 8.31658 13.5976 8.70711 13.2071L15 6.91421V9.5C15 10.0523 15.4477 10.5 16 10.5C16.5523 10.5 17 10.0523 17 9.5V4.5C17 3.94772 16.5523 3.5 16 3.5H11Z" fill="#21272A"/>
<path d="M5 5.5C3.89543 5.5 3 6.39543 3 7.5V15.5C3 16.6046 3.89543 17.5 5 17.5H13C14.1046 17.5 15 16.6046 15 15.5V12.5C15 11.9477 14.5523 11.5 14 11.5C13.4477 11.5 13 11.9477 13 12.5V15.5H5V7.5L8 7.5C8.55228 7.5 9 7.05228 9 6.5C9 5.94772 8.55228 5.5 8 5.5H5Z" fill="#21272A"/>
</svg>
