<svg width="20" height="21" viewBox="0 0 20 21" fill="none" xmlns="http://www.w3.org/2000/svg">
<path fill-rule="evenodd" clip-rule="evenodd" d="M3.70711 2.79289C3.31658 2.40237 2.68342 2.40237 2.29289 2.79289C1.90237 3.18342 1.90237 3.81658 2.29289 4.20711L16.2929 18.2071C16.6834 18.5976 17.3166 18.5976 17.7071 18.2071C18.0976 17.8166 18.0976 17.1834 17.7071 16.7929L16.2339 15.3197C17.7715 14.0924 18.939 12.4211 19.5424 10.5C18.2681 6.44288 14.4778 3.5 10.0002 3.5C8.37665 3.5 6.84344 3.88692 5.48779 4.57358L3.70711 2.79289ZM7.96813 7.05391L9.48201 8.5678C9.6473 8.52358 9.82102 8.5 10.0003 8.5C11.1048 8.5 12.0003 9.39543 12.0003 10.5C12.0003 10.6792 11.9767 10.853 11.9325 11.0182L13.4463 12.5321C13.7983 11.9366 14.0003 11.2419 14.0003 10.5C14.0003 8.29086 12.2094 6.5 10.0003 6.5C9.25838 6.5 8.56367 6.70197 7.96813 7.05391Z" fill="#21272A"/>
<path d="M12.4541 17.1967L9.74965 14.4923C7.74013 14.3681 6.1322 12.7601 6.00798 10.7506L2.33492 7.07754C1.50063 8.07223 0.856368 9.23169 0.458008 10.5C1.73228 14.5571 5.52257 17.5 10.0002 17.5C10.8469 17.5 11.6689 17.3948 12.4541 17.1967Z" fill="#21272A"/>
</svg>
