<svg width="20" height="21" viewBox="0 0 20 21" fill="none" xmlns="http://www.w3.org/2000/svg">
<path d="M4.5547 5.66795C4.24784 5.46338 3.8533 5.44431 3.52814 5.61833C3.20298 5.79235 3 6.13121 3 6.5V14.5C3 14.8688 3.20298 15.2077 3.52814 15.3817C3.8533 15.5557 4.24784 15.5366 4.5547 15.3321L10 11.7019V14.5C10 14.8688 10.203 15.2077 10.5281 15.3817C10.8533 15.5557 11.2478 15.5366 11.5547 15.3321L17.5547 11.3321C17.8329 11.1466 18 10.8344 18 10.5C18 10.1656 17.8329 9.85342 17.5547 9.66795L11.5547 5.66795C11.2478 5.46338 10.8533 5.44431 10.5281 5.61833C10.203 5.79235 10 6.13121 10 6.5V9.29815L4.5547 5.66795Z" fill="#21272A"/>
</svg>
