<svg width="20" height="21" viewBox="0 0 20 21" fill="none" xmlns="http://www.w3.org/2000/svg">
<path fill-rule="evenodd" clip-rule="evenodd" d="M6.62478 3.15458C7.6684 2.73213 8.80833 2.5 10 2.5C14.9706 2.5 19 6.52944 19 11.5C19 12.0523 18.5523 12.5 18 12.5C17.4477 12.5 17 12.0523 17 11.5C17 7.63401 13.866 4.5 10 4.5C9.06987 4.5 8.18446 4.68088 7.37522 5.00845C6.86328 5.21568 6.28029 4.96867 6.07306 4.45673C5.86584 3.9448 6.11285 3.3618 6.62478 3.15458ZM4.66173 5.45861C5.0758 5.82408 5.1152 6.45602 4.74974 6.87008C3.66007 8.10467 3 9.72404 3 11.5C3 12.0523 2.55228 12.5 2 12.5C1.44772 12.5 1 12.0523 1 11.5C1 9.21818 1.85048 7.13256 3.25026 5.54662C3.61573 5.13255 4.24766 5.09315 4.66173 5.45861Z" fill="#21272A"/>
<path fill-rule="evenodd" clip-rule="evenodd" d="M5 11.5C5 8.73858 7.23857 6.5 10 6.5C12.7614 6.5 15 8.73858 15 11.5C15 12.0523 14.5523 12.5 14 12.5C13.4477 12.5 13 12.0523 13 11.5C13 9.84315 11.6569 8.5 10 8.5C8.34315 8.5 7 9.84315 7 11.5C7 13.1772 6.65535 14.7764 6.03206 16.2288C5.81426 16.7363 5.22626 16.9712 4.71874 16.7533C4.21122 16.5355 3.97636 15.9475 4.19416 15.44C4.71247 14.2323 5 12.901 5 11.5ZM13.9212 13.5123C14.4666 13.5989 14.8387 14.1112 14.7521 14.6567C14.6205 15.4867 14.4378 16.2998 14.2072 17.0928C14.0531 17.6231 13.4982 17.928 12.9679 17.7739C12.4375 17.6197 12.1326 17.0648 12.2868 16.5345C12.494 15.8215 12.6584 15.0901 12.7768 14.3433C12.8634 13.7979 13.3757 13.4258 13.9212 13.5123Z" fill="#21272A"/>
<path fill-rule="evenodd" clip-rule="evenodd" d="M10 10.5C10.5523 10.5 11 10.9477 11 11.5C11 13.7363 10.5406 15.8679 9.71014 17.8036C9.49239 18.3111 8.90441 18.546 8.39687 18.3283C7.88933 18.1105 7.65441 17.5225 7.87217 17.015C8.59772 15.3239 9 13.4602 9 11.5C9 10.9477 9.44771 10.5 10 10.5Z" fill="#21272A"/>
</svg>
