<svg width="20" height="21" viewBox="0 0 20 21" fill="none" xmlns="http://www.w3.org/2000/svg">
<path fill-rule="evenodd" clip-rule="evenodd" d="M11.7568 2.53351C12.034 2.60713 12.2662 2.79624 12.3945 3.05279C12.8781 4.01991 13.239 4.60688 13.6021 5.0828C13.9696 5.56453 14.3584 5.95889 14.9497 6.55028C16.3164 7.91692 17 9.71013 17 11.5C17 13.2899 16.3164 15.0831 14.9497 16.4498C12.2161 19.1834 7.78392 19.1834 5.05025 16.4498C3.68361 15.0831 3 13.2899 3 11.5C3 9.71013 3.68361 7.91692 5.05025 6.55028C5.33625 6.26428 5.76637 6.17872 6.14004 6.33351C6.51372 6.48829 6.75736 6.85292 6.75736 7.25739C6.75736 8.3772 6.82729 9.23046 7.15481 9.91104C7.33491 10.2853 7.61585 10.6512 8.10004 10.9776C8.21568 9.91687 8.42752 8.62448 8.71375 7.39778C8.93911 6.43195 9.21939 5.46773 9.553 4.66366C9.71986 4.26148 9.90855 3.87854 10.1229 3.54791C10.3314 3.22608 10.5995 2.89858 10.9454 2.66795C11.184 2.50885 11.4795 2.45988 11.7568 2.53351ZM12.1213 15.6213C10.9497 16.7929 9.05025 16.7929 7.87868 15.6213C7.29289 15.0355 7 14.2678 7 13.5C7 13.5 7.87868 14 9.50005 14C9.50005 13 10 10 10.75 9.5C11.25 10.5 11.5355 10.7929 12.1213 11.3787C12.7071 11.9645 13 12.7322 13 13.5C13 14.2678 12.7071 15.0355 12.1213 15.6213Z" fill="#21272A"/>
</svg>
