<svg width="20" height="21" viewBox="0 0 20 21" fill="none" xmlns="http://www.w3.org/2000/svg">
<path fill-rule="evenodd" clip-rule="evenodd" d="M4 4.5C2.89543 4.5 2 5.39543 2 6.5V14.5C2 15.6046 2.89543 16.5 4 16.5H16C17.1046 16.5 18 15.6046 18 14.5V8.5C18 7.39543 17.1046 6.5 16 6.5H11L9 4.5H4ZM11 9.5C11 8.94772 10.5523 8.5 10 8.5C9.44772 8.5 9 8.94772 9 9.5V11.0858L8.70711 10.7929C8.31658 10.4024 7.68342 10.4024 7.29289 10.7929C6.90237 11.1834 6.90237 11.8166 7.29289 12.2071L9.29289 14.2071C9.68342 14.5976 10.3166 14.5976 10.7071 14.2071L12.7071 12.2071C13.0976 11.8166 13.0976 11.1834 12.7071 10.7929C12.3166 10.4024 11.6834 10.4024 11.2929 10.7929L11 11.0858V9.5Z" fill="#21272A"/>
</svg>
