<svg width="20" height="21" viewBox="0 0 20 21" fill="none" xmlns="http://www.w3.org/2000/svg">
<path fill-rule="evenodd" clip-rule="evenodd" d="M4 4.5C2.89543 4.5 2 5.39543 2 6.5V14.5C2 15.6046 2.89543 16.5 4 16.5H16C17.1046 16.5 18 15.6046 18 14.5V8.5C18 7.39543 17.1046 6.5 16 6.5H11L9 4.5H4ZM11 9.5C11 8.94772 10.5523 8.5 10 8.5C9.44772 8.5 9 8.94772 9 9.5V10.5H8C7.44772 10.5 7 10.9477 7 11.5C7 12.0523 7.44772 12.5 8 12.5H9V13.5C9 14.0523 9.44772 14.5 10 14.5C10.5523 14.5 11 14.0523 11 13.5V12.5H12C12.5523 12.5 13 12.0523 13 11.5C13 10.9477 12.5523 10.5 12 10.5H11V9.5Z" fill="#21272A"/>
</svg>
