<svg width="20" height="21" viewBox="0 0 20 21" fill="none" xmlns="http://www.w3.org/2000/svg">
<path fill-rule="evenodd" clip-rule="evenodd" d="M2 6.5C2 5.39543 2.89543 4.5 4 4.5H8L10 6.5H14C15.1046 6.5 16 7.39543 16 8.5V9.5H8C6.34315 9.5 5 10.8431 5 12.5V14C5 14.8284 4.32843 15.5 3.5 15.5C2.67157 15.5 2 14.8284 2 14V6.5Z" fill="#21272A"/>
<path d="M6 12.5C6 11.3954 6.89543 10.5 8 10.5H16C17.1046 10.5 18 11.3954 18 12.5V14.5C18 15.6046 17.1046 16.5 16 16.5H2H4C5.10457 16.5 6 15.6046 6 14.5V12.5Z" fill="#21272A"/>
</svg>
