<svg width="138" height="138" viewBox="0 0 138 138" fill="none" xmlns="http://www.w3.org/2000/svg">
<path d="M53.5 25.5L57.5 15L53.5 10L64.5 7H77.5L89 15L92.5 25.5L71 35.5L53.5 25.5Z" fill="#414BB2"/>
<path d="M108 39.5H119.5L128.5 47.5V65.5L119.5 73L104.5 58.5L108 39.5Z" fill="#414BB2"/>
<path d="M92.5 95H114.5L119.5 105V110L109 119.5L98.5 123.5H92.5L83 117L92.5 95Z" fill="#414BB2"/>
<path d="M61 117L50 123.5H36.5L26.5 110L30 95L53.5 98L61 117Z" fill="#414BB2"/>
<path d="M71 47.5L50 62.5L57.5 88.5H83L92.5 62.5L71 47.5Z" fill="#414BB2"/>
<path d="M23.5 76L14 65.5L9 58.5L14 43L23.5 35.5H36.5L41.5 58.5L23.5 76Z" fill="#414BB2"/>
<path d="M53.5 25.5L57.5 15L53.5 10L64.5 7H77.5L89 15L92.5 25.5L71 35.5L53.5 25.5Z" stroke="#414BB2"/>
<path d="M108 39.5H119.5L128.5 47.5V65.5L119.5 73L104.5 58.5L108 39.5Z" stroke="#414BB2"/>
<path d="M92.5 95H114.5L119.5 105V110L109 119.5L98.5 123.5H92.5L83 117L92.5 95Z" stroke="#414BB2"/>
<path d="M61 117L50 123.5H36.5L26.5 110L30 95L53.5 98L61 117Z" stroke="#414BB2"/>
<path d="M71 47.5L50 62.5L57.5 88.5H83L92.5 62.5L71 47.5Z" stroke="#414BB2"/>
<path d="M23.5 76L14 65.5L9 58.5L14 43L23.5 35.5H36.5L41.5 58.5L23.5 76Z" stroke="#414BB2"/>
<circle cx="69" cy="69" r="63" stroke="#414BB2" stroke-width="12"/>
</svg>
