<svg width="20" height="21" viewBox="0 0 20 21" fill="none" xmlns="http://www.w3.org/2000/svg">
<path fill-rule="evenodd" clip-rule="evenodd" d="M5 5.5C5 3.84315 6.34315 2.5 8 2.5C8.76836 2.5 9.46924 2.78885 10 3.2639C10.5308 2.78885 11.2316 2.5 12 2.5C13.6569 2.5 15 3.84315 15 5.5C15 5.85064 14.9398 6.18722 14.8293 6.5H16C17.1046 6.5 18 7.39543 18 8.5C18 9.60457 17.1046 10.5 16 10.5H11V9.5C11 8.94772 10.5523 8.5 10 8.5C9.44772 8.5 9 8.94771 9 9.5V10.5H4C2.89543 10.5 2 9.60457 2 8.5C2 7.39543 2.89543 6.5 4 6.5H5.17071C5.06015 6.18722 5 5.85064 5 5.5ZM9 6.5V5.5C9 4.94772 8.55228 4.5 8 4.5C7.44772 4.5 7 4.94772 7 5.5C7 6.05228 7.44772 6.5 8 6.5H9ZM12 6.5C12.5523 6.5 13 6.05228 13 5.5C13 4.94772 12.5523 4.5 12 4.5C11.4477 4.5 11 4.94772 11 5.5V6.5H12Z" fill="#21272A"/>
<path d="M9 11.5H3V16.5C3 17.6046 3.89543 18.5 5 18.5H9V11.5Z" fill="#21272A"/>
<path d="M11 18.5H15C16.1046 18.5 17 17.6046 17 16.5V11.5H11V18.5Z" fill="#21272A"/>
</svg>
