<svg width="20" height="21" viewBox="0 0 20 21" fill="none" xmlns="http://www.w3.org/2000/svg">
<path fill-rule="evenodd" clip-rule="evenodd" d="M10 18.5C14.4183 18.5 18 14.9183 18 10.5C18 6.08172 14.4183 2.5 10 2.5C5.58172 2.5 2 6.08172 2 10.5C2 14.9183 5.58172 18.5 10 18.5ZM4.33179 8.52741C4.70542 7.45361 5.37558 6.51864 6.24421 5.82056C6.51209 6.22966 6.97449 6.49991 7.50001 6.49991C8.32844 6.49991 9.00001 7.17148 9.00001 7.99991V8.49991C9.00001 9.60448 9.89545 10.4999 11 10.4999C12.1046 10.4999 13 9.60448 13 8.49991C13 7.55979 13.6487 6.77118 14.5228 6.55719C15.4428 7.61161 16 8.99069 16 10.4999C16 10.8407 15.9716 11.1748 15.917 11.5001H15C13.8954 11.5001 13 12.3955 13 13.5001V15.6973C12.1175 16.2078 11.0928 16.4999 9.99992 16.4999V14.5C9.99992 13.3954 9.10448 12.5 7.99992 12.5C6.89535 12.5 5.99992 11.6046 5.99992 10.5C5.99992 9.50849 5.27841 8.6855 4.33179 8.52741Z" fill="#21272A"/>
</svg>
