<svg width="20" height="21" viewBox="0 0 20 21" fill="none" xmlns="http://www.w3.org/2000/svg">
<path fill-rule="evenodd" clip-rule="evenodd" d="M4.08296 9.5H6.02863C6.11783 7.95361 6.41228 6.52907 6.86644 5.38228C5.41752 6.27135 4.37513 7.75848 4.08296 9.5ZM10 2.5C5.58172 2.5 2 6.08172 2 10.5C2 14.9183 5.58172 18.5 10 18.5C14.4183 18.5 18 14.9183 18 10.5C18 6.08172 14.4183 2.5 10 2.5ZM10 4.5C9.92395 4.5 9.76787 4.53173 9.5347 4.76184C9.29723 4.9962 9.03751 5.3849 8.79782 5.94417C8.40914 6.8511 8.12491 8.08559 8.03237 9.5H11.9676C11.8751 8.08559 11.5909 6.8511 11.2022 5.94417C10.9625 5.3849 10.7028 4.9962 10.4653 4.76184C10.2321 4.53173 10.076 4.5 10 4.5ZM13.9714 9.5C13.8822 7.95361 13.5877 6.52907 13.1336 5.38228C14.5825 6.27135 15.6249 7.75848 15.917 9.5H13.9714ZM11.9676 11.5H8.03237C8.12491 12.9144 8.40914 14.1489 8.79782 15.0558C9.03751 15.6151 9.29723 16.0038 9.5347 16.2382C9.76787 16.4683 9.92395 16.5 10 16.5C10.076 16.5 10.2321 16.4683 10.4653 16.2382C10.7028 16.0038 10.9625 15.6151 11.2022 15.0558C11.5909 14.1489 11.8751 12.9144 11.9676 11.5ZM13.1336 15.6177C13.5877 14.4709 13.8822 13.0464 13.9714 11.5H15.917C15.6249 13.2415 14.5825 14.7287 13.1336 15.6177ZM6.86644 15.6177C6.41228 14.4709 6.11783 13.0464 6.02863 11.5H4.08296C4.37513 13.2415 5.41752 14.7287 6.86644 15.6177Z" fill="#21272A"/>
</svg>
