<svg width="34" height="34" viewBox="0 0 34 34" fill="none" xmlns="http://www.w3.org/2000/svg">
<path d="M30.891 14.2255H29.7499V14.1667H16.9999V19.8333H25.0062C23.8382 23.1321 20.6995 25.5 16.9999 25.5C12.3058 25.5 8.49992 21.6941 8.49992 17C8.49992 12.3059 12.3058 8.50001 16.9999 8.50001C19.1667 8.50001 21.138 9.31743 22.639 10.6526L26.646 6.64559C24.1158 4.28755 20.7314 2.83334 16.9999 2.83334C9.17638 2.83334 2.83325 9.17647 2.83325 17C2.83325 24.8236 9.17638 31.1667 16.9999 31.1667C24.8235 31.1667 31.1666 24.8236 31.1666 17C31.1666 16.0501 31.0688 15.1229 30.891 14.2255Z" fill="#FFC107"/>
<path d="M4.46655 10.4061L9.12101 13.8196C10.3804 10.7015 13.4305 8.50001 16.9998 8.50001C19.1666 8.50001 21.1379 9.31743 22.6388 10.6526L26.6459 6.64559C24.1157 4.28755 20.7313 2.83334 16.9998 2.83334C11.5584 2.83334 6.83947 5.90539 4.46655 10.4061Z" fill="#FF3D00"/>
<path d="M16.9998 31.1667C20.6591 31.1667 23.984 29.7663 26.4979 27.489L22.1133 23.7787C20.6432 24.8968 18.8468 25.5015 16.9998 25.5C13.3151 25.5 10.1864 23.1505 9.00769 19.8716L4.38794 23.431C6.73252 28.0188 11.4939 31.1667 16.9998 31.1667Z" fill="#4CAF50"/>
<path d="M30.8911 14.2255H29.75V14.1667H17V19.8334H25.0063C24.4476 21.4033 23.4411 22.7752 22.1113 23.7795L22.1135 23.7781L26.498 27.4883C26.1878 27.7702 31.1667 24.0834 31.1667 17C31.1667 16.0501 31.0689 15.1229 30.8911 14.2255Z" fill="#1976D2"/>
</svg>
