<svg width="20" height="21" viewBox="0 0 20 21" fill="none" xmlns="http://www.w3.org/2000/svg">
<path d="M9 3.5C9 2.94772 9.44772 2.5 10 2.5C10.5523 2.5 11 2.94772 11 3.5V9C11 9.27614 11.2239 9.5 11.5 9.5C11.7761 9.5 12 9.27614 12 9V4.5C12 3.94772 12.4477 3.5 13 3.5C13.5523 3.5 14 3.94772 14 4.5V9C14 9.27614 14.2239 9.5 14.5 9.5C14.7761 9.5 15 9.27614 15 9V6.5C15 5.94772 15.4477 5.5 16 5.5C16.5523 5.5 17 5.94772 17 6.5V11.5C17 15.366 13.866 18.5 10 18.5C6.13401 18.5 3 15.366 3 11.5V9.5C3 8.94772 3.44772 8.5 4 8.5C4.55228 8.5 5 8.94772 5 9.5V12C5 12.2761 5.22386 12.5 5.5 12.5C5.77614 12.5 6 12.2761 6 12V4.5C6 3.94772 6.44772 3.5 7 3.5C7.55228 3.5 8 3.94772 8 4.5V9C8 9.27614 8.22386 9.5 8.5 9.5C8.77614 9.5 9 9.27614 9 9V3.5Z" fill="#21272A"/>
</svg>
