<svg width="20" height="21" viewBox="0 0 20 21" fill="none" xmlns="http://www.w3.org/2000/svg">
<path fill-rule="evenodd" clip-rule="evenodd" d="M9.24254 3.52985C9.77833 3.6638 10.1041 4.20673 9.97014 4.74253L9.53078 6.49999H12.4692L13.0299 4.25746C13.1638 3.72166 13.7067 3.3959 14.2425 3.52985C14.7783 3.6638 15.1041 4.20673 14.9701 4.74253L14.5308 6.49999H17C17.5523 6.49999 18 6.94771 18 7.49999C18 8.05228 17.5523 8.49999 17 8.49999H14.0308L13.0308 12.5H15C15.5523 12.5 16 12.9477 16 13.5C16 14.0523 15.5523 14.5 15 14.5H12.5308L11.9701 16.7425C11.8362 17.2783 11.2933 17.6041 10.7575 17.4701C10.2217 17.3362 9.89591 16.7933 10.0299 16.2575L10.4692 14.5H7.53078L6.97014 16.7425C6.83619 17.2783 6.29326 17.6041 5.75746 17.4701C5.22167 17.3362 4.89591 16.7933 5.02986 16.2575L5.46922 14.5H3C2.44772 14.5 2 14.0523 2 13.5C2 12.9477 2.44772 12.5 3 12.5H5.96922L6.96922 8.49999H5C4.44772 8.49999 4 8.05228 4 7.49999C4 6.94771 4.44772 6.49999 5 6.49999H7.46922L8.02986 4.25746C8.16381 3.72166 8.70674 3.3959 9.24254 3.52985ZM9.03078 8.49999L8.03078 12.5H10.9692L11.9692 8.49999H9.03078Z" fill="#21272A"/>
</svg>
