<svg width="20" height="21" viewBox="0 0 20 21" fill="none" xmlns="http://www.w3.org/2000/svg">
<path d="M10.7071 2.79289C10.3166 2.40237 9.68342 2.40237 9.29289 2.79289L2.29289 9.79289C1.90237 10.1834 1.90237 10.8166 2.29289 11.2071C2.68342 11.5976 3.31658 11.5976 3.70711 11.2071L4 10.9142V17.5C4 18.0523 4.44772 18.5 5 18.5H7C7.55228 18.5 8 18.0523 8 17.5V15.5C8 14.9477 8.44772 14.5 9 14.5H11C11.5523 14.5 12 14.9477 12 15.5V17.5C12 18.0523 12.4477 18.5 13 18.5H15C15.5523 18.5 16 18.0523 16 17.5V10.9142L16.2929 11.2071C16.6834 11.5976 17.3166 11.5976 17.7071 11.2071C18.0976 10.8166 18.0976 10.1834 17.7071 9.79289L10.7071 2.79289Z" fill="#21272A"/>
</svg>
