<svg width="20" height="21" viewBox="0 0 20 21" fill="none" xmlns="http://www.w3.org/2000/svg">
<path d="M8 2.5C7.44772 2.5 7 2.94772 7 3.5C7 4.05228 7.44772 4.5 8 4.5H10C10.5523 4.5 11 4.05228 11 3.5C11 2.94772 10.5523 2.5 10 2.5H8Z" fill="#21272A"/>
<path d="M3 5.5C3 4.39543 3.89543 3.5 5 3.5C5 5.15685 6.34315 6.5 8 6.5H10C11.6569 6.5 13 5.15685 13 3.5C14.1046 3.5 15 4.39543 15 5.5V11.5H10.4142L11.7071 10.2071C12.0976 9.81658 12.0976 9.18342 11.7071 8.79289C11.3166 8.40237 10.6834 8.40237 10.2929 8.79289L7.29289 11.7929C6.90237 12.1834 6.90237 12.8166 7.29289 13.2071L10.2929 16.2071C10.6834 16.5976 11.3166 16.5976 11.7071 16.2071C12.0976 15.8166 12.0976 15.1834 11.7071 14.7929L10.4142 13.5H15V16.5C15 17.6046 14.1046 18.5 13 18.5H5C3.89543 18.5 3 17.6046 3 16.5V5.5Z" fill="#21272A"/>
<path d="M15 11.5H17C17.5523 11.5 18 11.9477 18 12.5C18 13.0523 17.5523 13.5 17 13.5H15V11.5Z" fill="#21272A"/>
</svg>
