<svg width="20" height="21" viewBox="0 0 20 21" fill="none" xmlns="http://www.w3.org/2000/svg">
<path d="M10 2.5C9.44772 2.5 9 2.94772 9 3.5V4.5C9 5.05228 9.44772 5.5 10 5.5C10.5523 5.5 11 5.05228 11 4.5V3.5C11 2.94772 10.5523 2.5 10 2.5Z" fill="#21272A"/>
<path fill-rule="evenodd" clip-rule="evenodd" d="M4 4.5H7C7 6.15685 8.34315 7.5 10 7.5C11.6569 7.5 13 6.15685 13 4.5H16C17.1046 4.5 18 5.39543 18 6.5V15.5C18 16.6046 17.1046 17.5 16 17.5H4C2.89543 17.5 2 16.6046 2 15.5V6.5C2 5.39543 2.89543 4.5 4 4.5ZM6.5 11.5C7.32843 11.5 8 10.8284 8 10C8 9.17157 7.32843 8.5 6.5 8.5C5.67157 8.5 5 9.17157 5 10C5 10.8284 5.67157 11.5 6.5 11.5ZM8.95048 15.5C8.98327 15.3384 9.00049 15.1712 9.00049 15C9.00049 13.6193 7.8812 12.5 6.50049 12.5C5.11978 12.5 4.00049 13.6193 4.00049 15C4.00049 15.1712 4.0177 15.3384 4.0505 15.5H8.95048ZM12 9.5C11.4477 9.5 11 9.94772 11 10.5C11 11.0523 11.4477 11.5 12 11.5H15C15.5523 11.5 16 11.0523 16 10.5C16 9.94772 15.5523 9.5 15 9.5H12ZM11 13.5C11 12.9477 11.4477 12.5 12 12.5H14C14.5523 12.5 15 12.9477 15 13.5C15 14.0523 14.5523 14.5 14 14.5H12C11.4477 14.5 11 14.0523 11 13.5Z" fill="#21272A"/>
</svg>
