<svg width="20" height="21" viewBox="0 0 20 21" fill="none" xmlns="http://www.w3.org/2000/svg">
<path fill-rule="evenodd" clip-rule="evenodd" d="M3 5.5C3 4.39543 3.89543 3.5 5 3.5H6C6.55228 3.5 7 3.94772 7 4.5C7 5.05228 6.55228 5.5 6 5.5L5 5.5V15.5H15V5.5H14C13.4477 5.5 13 5.05228 13 4.5C13 3.94772 13.4477 3.5 14 3.5H15C16.1046 3.5 17 4.39543 17 5.5V15.5C17 16.6046 16.1046 17.5 15 17.5H5C3.89543 17.5 3 16.6046 3 15.5V5.5Z" fill="#21272A"/>
<path d="M4 12.5H7L8 14.5H12L13 12.5H16V16.5H4V12.5Z" fill="#21272A"/>
<path d="M7.29289 7.79289C7.68342 7.40237 8.31658 7.40237 8.70711 7.79289L9 8.08579V3.5C9 2.94772 9.44771 2.5 10 2.5C10.5523 2.5 11 2.94771 11 3.5L11 8.08579L11.2929 7.79289C11.6834 7.40237 12.3166 7.40237 12.7071 7.79289C13.0976 8.18342 13.0976 8.81658 12.7071 9.20711L10.7071 11.2071C10.5196 11.3946 10.2652 11.5 10 11.5C9.73478 11.5 9.48043 11.3946 9.29289 11.2071L7.29289 9.20711C6.90237 8.81658 6.90237 8.18342 7.29289 7.79289Z" fill="#21272A"/>
</svg>
