<svg width="20" height="21" viewBox="0 0 20 21" fill="none" xmlns="http://www.w3.org/2000/svg">
<path fill-rule="evenodd" clip-rule="evenodd" d="M18 8.5C18 11.8137 15.3137 14.5 12 14.5C11.3938 14.5 10.8087 14.4101 10.2571 14.2429L8 16.5H6V18.5H2V14.5L6.25707 10.2429C6.08989 9.69135 6 9.10617 6 8.5C6 5.18629 8.68629 2.5 12 2.5C15.3137 2.5 18 5.18629 18 8.5ZM12 4.5C11.4477 4.5 11 4.94772 11 5.5C11 6.05228 11.4477 6.5 12 6.5C13.1046 6.5 14 7.39543 14 8.5C14 9.05228 14.4477 9.5 15 9.5C15.5523 9.5 16 9.05228 16 8.5C16 6.29086 14.2091 4.5 12 4.5Z" fill="#21272A"/>
</svg>
