<svg width="20" height="21" viewBox="0 0 20 21" fill="none" xmlns="http://www.w3.org/2000/svg">
<path fill-rule="evenodd" clip-rule="evenodd" d="M11.3006 1.54627C11.7169 1.67749 12 2.06354 12 2.50001V7.50001L16 7.50001C16.3729 7.50001 16.7148 7.70747 16.887 8.0382C17.0592 8.36893 17.0331 8.768 16.8192 9.07347L9.81924 19.0735C9.56894 19.431 9.11564 19.585 8.69936 19.4537C8.28309 19.3225 8 18.9365 8 18.5L8 13.5H4C3.62713 13.5 3.28522 13.2926 3.11302 12.9618C2.94083 12.6311 2.96694 12.232 3.18077 11.9265L10.1808 1.92655C10.4311 1.56898 10.8844 1.41505 11.3006 1.54627Z" fill="#21272A"/>
</svg>
