<svg width="20" height="21" viewBox="0 0 20 21" fill="none" xmlns="http://www.w3.org/2000/svg">
<path d="M11 3.5C11 2.94772 10.5523 2.5 10 2.5C9.44771 2.5 9 2.94772 9 3.5V4.5C9 5.05228 9.44771 5.5 10 5.5C10.5523 5.5 11 5.05228 11 4.5V3.5Z" fill="#21272A"/>
<path d="M15.6568 6.25731C16.0473 5.86678 16.0473 5.23362 15.6568 4.84309C15.2663 4.45257 14.6331 4.45257 14.2426 4.84309L13.5355 5.5502C13.145 5.94072 13.145 6.57389 13.5355 6.96441C13.926 7.35494 14.5592 7.35494 14.9497 6.96441L15.6568 6.25731Z" fill="#21272A"/>
<path d="M18 10.5C18 11.0523 17.5523 11.5 17 11.5H16C15.4477 11.5 15 11.0523 15 10.5C15 9.94771 15.4477 9.5 16 9.5H17C17.5523 9.5 18 9.94771 18 10.5Z" fill="#21272A"/>
<path d="M5.05019 6.96443C5.44071 7.35496 6.07388 7.35496 6.4644 6.96443C6.85493 6.57391 6.85493 5.94074 6.4644 5.55022L5.7573 4.84311C5.36677 4.45259 4.73361 4.45259 4.34308 4.84311C3.95256 5.23363 3.95256 5.8668 4.34308 6.25732L5.05019 6.96443Z" fill="#21272A"/>
<path d="M5 10.5C5 11.0523 4.55228 11.5 4 11.5H3C2.44772 11.5 2 11.0523 2 10.5C2 9.94771 2.44772 9.5 3 9.5H4C4.55228 9.5 5 9.94771 5 10.5Z" fill="#21272A"/>
<path d="M8 16.5V15.5H12V16.5C12 17.6046 11.1046 18.5 10 18.5C8.89543 18.5 8 17.6046 8 16.5Z" fill="#21272A"/>
<path d="M12.0009 14.5C12.0155 14.1597 12.2076 13.8537 12.4768 13.6411C13.4046 12.9086 14 11.7738 14 10.5C14 8.29086 12.2091 6.5 10 6.5C7.79086 6.5 6 8.29086 6 10.5C6 11.7738 6.59545 12.9086 7.52319 13.6411C7.79241 13.8537 7.98451 14.1597 7.99911 14.5H12.0009Z" fill="#21272A"/>
</svg>
