<svg width="20" height="21" viewBox="0 0 20 21" fill="none" xmlns="http://www.w3.org/2000/svg">
<path d="M12.5858 5.08579C13.3668 4.30474 14.6331 4.30474 15.4142 5.08579C16.1952 5.86684 16.1952 7.13316 15.4142 7.91421L12.4142 10.9142C11.6331 11.6953 10.3668 11.6953 9.58577 10.9142C9.19524 10.5237 8.56208 10.5237 8.17156 10.9142C7.78103 11.3047 7.78103 11.9379 8.17156 12.3284C9.73365 13.8905 12.2663 13.8905 13.8284 12.3284L16.8284 9.32843C18.3905 7.76633 18.3905 5.23367 16.8284 3.67157C15.2663 2.10948 12.7337 2.10948 11.1716 3.67157L9.67156 5.17157C9.28103 5.5621 9.28103 6.19526 9.67156 6.58579C10.0621 6.97631 10.6952 6.97631 11.0858 6.58579L12.5858 5.08579Z" fill="#21272A"/>
<path d="M7.58579 10.0858C8.36683 9.30474 9.63316 9.30474 10.4142 10.0858C10.8047 10.4763 11.4379 10.4763 11.8284 10.0858C12.219 9.69526 12.219 9.0621 11.8284 8.67157C10.2663 7.10948 7.73367 7.10948 6.17157 8.67157L3.17157 11.6716C1.60948 13.2337 1.60948 15.7663 3.17157 17.3284C4.73367 18.8905 7.26633 18.8905 8.82843 17.3284L10.3284 15.8284C10.719 15.4379 10.719 14.8047 10.3284 14.4142C9.9379 14.0237 9.30474 14.0237 8.91421 14.4142L7.41421 15.9142C6.63316 16.6953 5.36684 16.6953 4.58579 15.9142C3.80474 15.1332 3.80474 13.8668 4.58579 13.0858L7.58579 10.0858Z" fill="#21272A"/>
</svg>
