<svg width="29" height="29" viewBox="0 0 29 29" fill="none" xmlns="http://www.w3.org/2000/svg">
<g clip-path="url(#clip0_151_76)">
<path d="M26.7243 0H2.13073C0.952626 0 0 0.930079 0 2.07999V26.775C0 27.9249 0.952626 28.8606 2.13073 28.8606H26.7243C27.9024 28.8606 28.8606 27.9249 28.8606 26.7806V2.07999C28.8606 0.930079 27.9024 0 26.7243 0ZM8.56236 24.5935H4.27836V10.8171H8.56236V24.5935ZM6.42036 8.94003C5.04497 8.94003 3.93451 7.82957 3.93451 6.45982C3.93451 5.09007 5.04497 3.97961 6.42036 3.97961C7.79011 3.97961 8.90057 5.09007 8.90057 6.45982C8.90057 7.82393 7.79011 8.94003 6.42036 8.94003ZM24.5935 24.5935H20.3152V17.897C20.3152 16.3017 20.287 14.2443 18.0886 14.2443C15.8621 14.2443 15.5239 15.9861 15.5239 17.7842V24.5935H11.2511V10.8171H15.3548V12.6998H15.4111C15.9804 11.6175 17.3784 10.4732 19.4584 10.4732C23.7931 10.4732 24.5935 13.3255 24.5935 17.0345V24.5935Z" fill="#2A81BF"/>
</g>
<defs>
<clipPath id="clip0_151_76">
<rect width="28.8606" height="28.8606" fill="white"/>
</clipPath>
</defs>
</svg>
