<svg width="24" height="24" viewBox="0 0 24 24" fill="none" xmlns="http://www.w3.org/2000/svg">
<g clip-path="url(#clip0_151_47)">
<path d="M21.7084 0H2.03356C1.09108 0 0.328979 0.744063 0.328979 1.664V21.42C0.328979 22.3399 1.09108 23.0885 2.03356 23.0885H21.7084C22.6509 23.0885 23.4175 22.3399 23.4175 21.4245V1.664C23.4175 0.744063 22.6509 0 21.7084 0ZM7.17887 19.6748H3.75167V8.65368H7.17887V19.6748ZM5.46527 7.15202C4.36496 7.15202 3.47659 6.26366 3.47659 5.16785C3.47659 4.07205 4.36496 3.18369 5.46527 3.18369C6.56107 3.18369 7.44944 4.07205 7.44944 5.16785C7.44944 6.25915 6.56107 7.15202 5.46527 7.15202ZM20.0038 19.6748H16.5811V14.3176C16.5811 13.0414 16.5586 11.3954 14.7999 11.3954C13.0186 11.3954 12.7481 12.7889 12.7481 14.2274V19.6748H9.32989V8.65368H12.6128V10.1598H12.6579C13.1133 9.29402 14.2317 8.3786 15.8957 8.3786C19.3635 8.3786 20.0038 10.6604 20.0038 13.6276V19.6748Z" fill="#2A81BF"/>
</g>
<defs>
<clipPath id="clip0_151_47">
<rect width="23.0885" height="23.0885" fill="white" transform="translate(0.328979)"/>
</clipPath>
</defs>
</svg>
