<svg width="20" height="21" viewBox="0 0 20 21" fill="none" xmlns="http://www.w3.org/2000/svg">
<path d="M10 2.5C7.23858 2.5 5 4.73858 5 7.5V9.5C3.89543 9.5 3 10.3954 3 11.5V16.5C3 17.6046 3.89543 18.5 5 18.5H15C16.1046 18.5 17 17.6046 17 16.5V11.5C17 10.3954 16.1046 9.5 15 9.5H7V7.5C7 5.84315 8.34315 4.5 10 4.5C11.3965 4.5 12.5725 5.45512 12.9055 6.74926C13.0432 7.28411 13.5884 7.6061 14.1232 7.46844C14.6581 7.33078 14.9801 6.78559 14.8424 6.25074C14.2874 4.09442 12.3312 2.5 10 2.5Z" fill="#21272A"/>
</svg>
