<svg width="20" height="21" viewBox="0 0 20 21" fill="none" xmlns="http://www.w3.org/2000/svg">
<path fill-rule="evenodd" clip-rule="evenodd" d="M3 17.5C3 16.9477 3.44772 16.5 4 16.5H16C16.5523 16.5 17 16.9477 17 17.5C17 18.0523 16.5523 18.5 16 18.5H4C3.44772 18.5 3 18.0523 3 17.5ZM6.29289 9.79289C6.68342 9.40237 7.31658 9.40237 7.70711 9.79289L9 11.0858L9 3.5C9 2.94772 9.44771 2.5 10 2.5C10.5523 2.5 11 2.94771 11 3.5L11 11.0858L12.2929 9.79289C12.6834 9.40237 13.3166 9.40237 13.7071 9.79289C14.0976 10.1834 14.0976 10.8166 13.7071 11.2071L10.7071 14.2071C10.5196 14.3946 10.2652 14.5 10 14.5C9.73478 14.5 9.48043 14.3946 9.29289 14.2071L6.29289 11.2071C5.90237 10.8166 5.90237 10.1834 6.29289 9.79289Z" fill="#21272A"/>
</svg>
