<svg width="20" height="21" viewBox="0 0 20 21" fill="none" xmlns="http://www.w3.org/2000/svg">
<path d="M3 3.5C2.44772 3.5 2 3.94772 2 4.5V16.5C2 17.0523 2.44772 17.5 3 17.5C3.55228 17.5 4 17.0523 4 16.5V4.5C4 3.94772 3.55228 3.5 3 3.5Z" fill="#21272A"/>
<path d="M13.2929 12.7929C12.9024 13.1834 12.9024 13.8166 13.2929 14.2071C13.6834 14.5976 14.3166 14.5976 14.7071 14.2071L17.7071 11.2071C17.8946 11.0196 18 10.7652 18 10.5C18 10.2348 17.8946 9.98043 17.7071 9.79289L14.7071 6.79289C14.3166 6.40237 13.6834 6.40237 13.2929 6.79289C12.9024 7.18342 12.9024 7.81658 13.2929 8.20711L14.5858 9.5L7 9.5C6.44771 9.5 6 9.94772 6 10.5C6 11.0523 6.44772 11.5 7 11.5H14.5858L13.2929 12.7929Z" fill="#21272A"/>
</svg>
