<svg width="20" height="21" viewBox="0 0 20 21" fill="none" xmlns="http://www.w3.org/2000/svg">
<path fill-rule="evenodd" clip-rule="evenodd" d="M2.94 6.9124C2.35524 7.27788 2 7.91882 2 8.6084V16.4999C2 17.6045 2.89543 18.4999 4 18.4999H16C17.1046 18.4999 18 17.6045 18 16.4999V8.6084C18 7.91882 17.6448 7.27788 17.06 6.9124L11.06 3.1624C10.4115 2.75706 9.58854 2.75706 8.94 3.1624L2.94 6.9124ZM5.5547 9.33462C5.09517 9.02826 4.4743 9.15244 4.16795 9.61197C3.8616 10.0715 3.98577 10.6924 4.4453 10.9987L9.4453 14.3321C9.7812 14.556 10.2188 14.556 10.5547 14.3321L15.5547 10.9987C16.0142 10.6924 16.1384 10.0715 15.8321 9.61197C15.5257 9.15244 14.9048 9.02826 14.4453 9.33462L10 12.2981L5.5547 9.33462Z" fill="#21272A"/>
</svg>
