<svg width="20" height="21" viewBox="0 0 20 21" fill="none" xmlns="http://www.w3.org/2000/svg">
<path fill-rule="evenodd" clip-rule="evenodd" d="M12 2.08582L8 6.08582V18.9142L12 14.9142V2.08582Z" fill="#21272A"/>
<path fill-rule="evenodd" clip-rule="evenodd" d="M3.70711 3.79292C3.42111 3.50692 2.99099 3.42137 2.61732 3.57615C2.24364 3.73093 2 4.09557 2 4.50003V14.5C2 14.7652 2.10536 15.0196 2.29289 15.2071L6 18.9142V6.08582L3.70711 3.79292Z" fill="#21272A"/>
<path fill-rule="evenodd" clip-rule="evenodd" d="M17.7071 5.79292L14 2.08582V14.9142L16.2929 17.2071C16.5789 17.4931 17.009 17.5787 17.3827 17.4239C17.7564 17.2691 18 16.9045 18 16.5V6.50003C18 6.23481 17.8946 5.98046 17.7071 5.79292Z" fill="#21272A"/>
</svg>
