<svg width="20" height="21" viewBox="0 0 20 21" fill="none" xmlns="http://www.w3.org/2000/svg">
<path fill-rule="evenodd" clip-rule="evenodd" d="M10.4963 2.63176C10.1889 2.45608 9.81146 2.45608 9.50403 2.63176L2.50403 6.63176C2.02451 6.90577 1.85792 7.51662 2.13193 7.99614C2.31631 8.31881 2.65322 8.49979 3 8.50017V15.5C2.44772 15.5 2 15.9477 2 16.5C2 17.0523 2.44772 17.5 3 17.5H17C17.5523 17.5 18 17.0523 18 16.5C18 15.9477 17.5523 15.5 17 15.5V8.50017C17.3469 8.49991 17.684 8.31892 17.8684 7.99614C18.1424 7.51662 17.9758 6.90577 17.4963 6.63176L10.4963 2.63176ZM6 9.5C5.44772 9.5 5 9.94772 5 10.5V13.5C5 14.0523 5.44772 14.5 6 14.5C6.55228 14.5 7 14.0523 7 13.5V10.5C7 9.94772 6.55228 9.5 6 9.5ZM9 10.5C9 9.94772 9.44772 9.5 10 9.5C10.5523 9.5 11 9.94772 11 10.5V13.5C11 14.0523 10.5523 14.5 10 14.5C9.44772 14.5 9 14.0523 9 13.5V10.5ZM14 9.5C13.4477 9.5 13 9.94772 13 10.5V13.5C13 14.0523 13.4477 14.5 14 14.5C14.5523 14.5 15 14.0523 15 13.5V10.5C15 9.94772 14.5523 9.5 14 9.5Z" fill="#21272A"/>
</svg>
