<svg width="20" height="21" viewBox="0 0 20 21" fill="none" xmlns="http://www.w3.org/2000/svg">
<path fill-rule="evenodd" clip-rule="evenodd" d="M3 5.5C3 4.94772 3.44772 4.5 4 4.5H16C16.5523 4.5 17 4.94772 17 5.5C17 6.05228 16.5523 6.5 16 6.5H4C3.44772 6.5 3 6.05228 3 5.5Z" fill="#21272A"/>
<path fill-rule="evenodd" clip-rule="evenodd" d="M3 10.5C3 9.94772 3.44772 9.5 4 9.5H10C10.5523 9.5 11 9.94772 11 10.5C11 11.0523 10.5523 11.5 10 11.5H4C3.44772 11.5 3 11.0523 3 10.5Z" fill="#21272A"/>
<path fill-rule="evenodd" clip-rule="evenodd" d="M3 15.5C3 14.9477 3.44772 14.5 4 14.5H16C16.5523 14.5 17 14.9477 17 15.5C17 16.0523 16.5523 16.5 16 16.5H4C3.44772 16.5 3 16.0523 3 15.5Z" fill="#21272A"/>
</svg>
