<svg width="20" height="21" viewBox="0 0 20 21" fill="none" xmlns="http://www.w3.org/2000/svg">
<path d="M7 4.5C7 2.84315 8.34315 1.5 10 1.5C11.6569 1.5 13 2.84315 13 4.5V8.5C13 10.1569 11.6569 11.5 10 11.5C8.34315 11.5 7 10.1569 7 8.5V4.5Z" fill="#21272A"/>
<path d="M11 15.4291C14.3923 14.9439 17 12.0265 17 8.5C17 7.94772 16.5523 7.5 16 7.5C15.4477 7.5 15 7.94772 15 8.5C15 11.2614 12.7614 13.5 10 13.5C7.23858 13.5 5 11.2614 5 8.5C5 7.94772 4.55228 7.5 4 7.5C3.44772 7.5 3 7.94772 3 8.5C3 12.0265 5.60771 14.9439 9 15.4291V17.5H6C5.44772 17.5 5 17.9477 5 18.5C5 19.0523 5.44772 19.5 6 19.5H14C14.5523 19.5 15 19.0523 15 18.5C15 17.9477 14.5523 17.5 14 17.5H11V15.4291Z" fill="#21272A"/>
</svg>
