<svg width="20" height="21" viewBox="0 0 20 21" fill="none" xmlns="http://www.w3.org/2000/svg">
<path d="M18 3.50001C18 3.20042 17.8657 2.91661 17.634 2.72667C17.4023 2.53673 17.0977 2.46067 16.8039 2.51943L6.80388 4.51943C6.33646 4.61291 6 5.02333 6 5.50001V14.6138C5.68722 14.5401 5.35064 14.5 5 14.5C3.34315 14.5 2 15.3954 2 16.5C2 17.6046 3.34315 18.5 5 18.5C6.65685 18.5 7.99999 17.6046 8 16.5V8.31981L16 6.71981V12.6138C15.6872 12.5401 15.3506 12.5 15 12.5C13.3431 12.5 12 13.3954 12 14.5C12 15.6046 13.3431 16.5 15 16.5C16.6569 16.5 18 15.6046 18 14.5V3.50001Z" fill="#21272A"/>
</svg>
