<svg width="30" height="31" viewBox="0 0 30 31" fill="none" xmlns="http://www.w3.org/2000/svg">
<path fill-rule="evenodd" clip-rule="evenodd" d="M6.72613 7.33115L6.08949 6.21053L5.45355 7.33149C5.4274 7.37757 5.39169 7.41751 5.34882 7.44862C5.30594 7.47973 5.25689 7.50129 5.20498 7.51186L3.94209 7.77046L4.79302 8.70101C4.83497 8.74052 4.86718 8.78922 4.88713 8.84328C4.90707 8.89734 4.9142 8.9553 4.90795 9.01258L4.76359 10.2935L5.93717 9.76035C5.98513 9.73861 6.03718 9.72736 6.08984 9.72736C6.1425 9.72736 6.19455 9.73861 6.24251 9.76035L7.41609 10.2935L7.27173 9.01258C7.26594 8.96013 7.27145 8.90704 7.28787 8.85688C7.30429 8.80673 7.33124 8.76066 7.36693 8.72178L8.23655 7.77046L6.98404 7.51393C6.93002 7.50461 6.87873 7.48341 6.83389 7.45186C6.78905 7.42031 6.75177 7.3792 6.72475 7.33149L6.72613 7.33115ZM24.5472 7.33115L23.9106 6.21053L23.2739 7.33115C23.2477 7.37715 23.212 7.41703 23.1691 7.44814C23.1263 7.47924 23.0773 7.50084 23.0254 7.51151L21.7621 7.77011L22.6131 8.70067C22.655 8.74017 22.6872 8.78887 22.7072 8.84293C22.7271 8.897 22.7343 8.95495 22.728 9.01224L22.5836 10.2931L23.7572 9.76C23.8052 9.73826 23.8572 9.72701 23.9099 9.72701C23.9626 9.72701 24.0146 9.73826 24.0626 9.76L25.2361 10.2931L25.0918 9.01224C25.0858 8.9598 25.0912 8.9067 25.1076 8.85653C25.124 8.80635 25.1509 8.76029 25.1866 8.72144L26.0563 7.77011L24.8041 7.51359C24.75 7.50426 24.6987 7.48306 24.6538 7.45152C24.6089 7.41997 24.5716 7.37886 24.5445 7.33115H24.5472ZM16.0694 5.25401L15 3.36902L13.9314 5.25228C13.9051 5.29829 13.8694 5.33817 13.8265 5.36927C13.7837 5.40038 13.7347 5.42198 13.6828 5.43265L11.5607 5.86711L13.0029 7.44504C13.045 7.4844 13.0774 7.53308 13.0973 7.58718C13.1173 7.64128 13.1243 7.69931 13.1178 7.75661L12.8755 9.90852L14.8488 9.01293C14.8967 8.99119 14.9488 8.97994 15.0014 8.97994C15.0541 8.97994 15.1061 8.99119 15.1541 9.01293L17.1274 9.90852L16.885 7.75661C16.8791 7.70417 16.8845 7.65106 16.9008 7.60089C16.9172 7.55071 16.9442 7.50465 16.9799 7.46581L18.4408 5.86711L16.3291 5.43472C16.275 5.42545 16.2237 5.40426 16.1789 5.37271C16.134 5.34115 16.0967 5.30002 16.0698 5.25228L16.0694 5.25401ZM7.45625 12.7597C7.14 12.4436 6.72393 12.2469 6.27893 12.2032C5.83393 12.1594 5.38752 12.2713 5.01577 12.5198C4.64402 12.7683 4.36994 13.138 4.2402 13.5659C4.11047 13.9938 4.13312 14.4535 4.3043 14.8666C4.47548 15.2797 4.78459 15.6206 5.17897 15.8313C5.57335 16.0421 6.02859 16.1095 6.46714 16.0223C6.90568 15.935 7.3004 15.6983 7.58403 15.3526C7.86766 15.007 8.02265 14.5736 8.02261 14.1265C8.02291 13.8726 7.97302 13.6211 7.87583 13.3866C7.77863 13.152 7.63604 12.939 7.45625 12.7597ZM25.2773 12.7597C24.9611 12.4436 24.545 12.2469 24.1 12.2032C23.655 12.1594 23.2086 12.2713 22.8369 12.5198C22.4651 12.7683 22.191 13.138 22.0613 13.5659C21.9316 13.9938 21.9542 14.4535 22.1254 14.8666C22.2966 15.2797 22.6057 15.6206 23.0001 15.8313C23.3944 16.0421 23.8497 16.1095 24.2882 16.0223C24.7268 15.935 25.1215 15.6983 25.4051 15.3526C25.6887 15.007 25.8437 14.5736 25.8437 14.1265C25.844 13.8726 25.7941 13.6211 25.6969 13.3866C25.5997 13.152 25.4571 12.939 25.2773 12.7597ZM20.3538 23.3877C19.3173 22.3514 18.0023 21.6381 16.5684 21.3346C15.1344 21.031 13.6432 21.1502 12.2756 21.6776C10.9081 22.205 9.72298 23.118 8.86419 24.3058C8.00539 25.4936 7.5098 26.9051 7.43755 28.369H22.5625C22.4723 26.4915 21.6847 24.7151 20.3538 23.3877ZM8.66271 23.3562H0.177979C0.260684 22.043 0.778164 20.7948 1.64881 19.8083C2.51945 18.8217 3.69371 18.1531 4.98641 17.9078C6.27911 17.6625 7.61668 17.8545 8.78818 18.4535C9.95969 19.0525 10.8985 20.0245 11.4565 21.2161C10.5886 21.6258 9.79809 22.1824 9.11968 22.8612C8.96066 23.0197 8.80834 23.1847 8.66271 23.3562ZM18.544 21.2161C19.1021 20.0247 20.0408 19.0529 21.2123 18.454C22.3837 17.8551 23.7212 17.6632 25.0137 17.9085C26.3063 18.1538 27.4805 18.8223 28.3511 19.8087C29.2217 20.7951 29.7393 22.0432 29.8221 23.3562H21.3374C21.1917 23.1852 21.0394 23.0202 20.8804 22.8612C20.2021 22.1824 19.4117 21.6259 18.544 21.2161ZM16.7936 14.8306C16.3787 14.4156 15.8326 14.1573 15.2485 14.0997C14.6644 14.0421 14.0785 14.1889 13.5904 14.5149C13.1024 14.841 12.7425 15.3261 12.5721 15.8878C12.4017 16.4494 12.4313 17.0527 12.6559 17.595C12.8804 18.1372 13.2861 18.5849 13.8036 18.8616C14.3212 19.1383 14.9188 19.227 15.4944 19.1125C16.0701 18.9981 16.5882 18.6875 16.9606 18.2339C17.333 17.7802 17.5365 17.2115 17.5366 16.6246C17.5369 16.2914 17.4715 15.9614 17.344 15.6535C17.2165 15.3456 17.0295 15.066 16.7936 14.8306Z" fill="#515151"/>
</svg>
