<svg width="20" height="21" viewBox="0 0 20 21" fill="none" xmlns="http://www.w3.org/2000/svg">
<path fill-rule="evenodd" clip-rule="evenodd" d="M4 4.5C4 3.39543 4.89543 2.5 6 2.5H14C15.1046 2.5 16 3.39543 16 4.5V16.5C16.5523 16.5 17 16.9477 17 17.5C17 18.0523 16.5523 18.5 16 18.5H13C12.4477 18.5 12 18.0523 12 17.5V15.5C12 14.9477 11.5523 14.5 11 14.5H9C8.44772 14.5 8 14.9477 8 15.5V17.5C8 18.0523 7.55228 18.5 7 18.5H4C3.44772 18.5 3 18.0523 3 17.5C3 16.9477 3.44772 16.5 4 16.5V4.5ZM7 5.5H9V7.5H7V5.5ZM9 9.5H7V11.5H9V9.5ZM11 5.5H13V7.5H11V5.5ZM13 9.5H11V11.5H13V9.5Z" fill="#21272A"/>
</svg>
