<svg width="20" height="21" viewBox="0 0 20 21" fill="none" xmlns="http://www.w3.org/2000/svg">
<path d="M10.8944 3.05279C10.725 2.714 10.3788 2.5 10 2.5C9.62124 2.5 9.27498 2.714 9.10558 3.05279L2.10558 17.0528C1.92823 17.4075 1.97724 17.8335 2.2305 18.1386C2.48376 18.4438 2.89342 18.5705 3.27473 18.4615L8.27472 17.033C8.70402 16.9103 9 16.5179 9 16.0714V11.5C9 10.9477 9.44772 10.5 10 10.5C10.5523 10.5 11 10.9477 11 11.5V16.0714C11 16.5179 11.296 16.9103 11.7253 17.033L16.7253 18.4615C17.1066 18.5705 17.5163 18.4438 17.7695 18.1386C18.0228 17.8335 18.0718 17.4075 17.8944 17.0528L10.8944 3.05279Z" fill="#21272A"/>
</svg>
