<svg width="20" height="21" viewBox="0 0 20 21" fill="none" xmlns="http://www.w3.org/2000/svg">
<path d="M17.4142 3.08579C16.6332 2.30474 15.3668 2.30474 14.5858 3.08579L7 10.6716V13.5H9.82842L17.4142 5.91421C18.1953 5.13316 18.1953 3.86683 17.4142 3.08579Z" fill="#21272A"/>
<path fill-rule="evenodd" clip-rule="evenodd" d="M2 6.5C2 5.39543 2.89543 4.5 4 4.5H8C8.55228 4.5 9 4.94772 9 5.5C9 6.05228 8.55228 6.5 8 6.5H4V16.5H14V12.5C14 11.9477 14.4477 11.5 15 11.5C15.5523 11.5 16 11.9477 16 12.5V16.5C16 17.6046 15.1046 18.5 14 18.5H4C2.89543 18.5 2 17.6046 2 16.5V6.5Z" fill="#21272A"/>
</svg>
