<svg width="20" height="21" viewBox="0 0 20 21" fill="none" xmlns="http://www.w3.org/2000/svg">
<path d="M14.4142 7.5L17.7071 4.20711C18.0976 3.81658 18.0976 3.18342 17.7071 2.79289C17.3166 2.40237 16.6834 2.40237 16.2929 2.79289L13 6.08579V4.5C13 3.94772 12.5523 3.5 12 3.5C11.4477 3.5 11 3.94772 11 4.5V8.49931C11 8.50031 11 8.502 11 8.503C11.0004 8.6375 11.0273 8.76575 11.0759 8.88278C11.1236 8.99805 11.1937 9.1062 11.2864 9.20055C11.2907 9.20494 11.2951 9.20929 11.2995 9.2136C11.3938 9.30626 11.502 9.37643 11.6172 9.42412C11.7351 9.47301 11.8644 9.5 12 9.5H16C16.5523 9.5 17 9.05228 17 8.5C17 7.94772 16.5523 7.5 16 7.5H14.4142Z" fill="#21272A"/>
<path d="M2 3.5C2 2.94772 2.44772 2.5 3 2.5H5.15287C5.64171 2.5 6.0589 2.85341 6.13927 3.3356L6.87858 7.77147C6.95075 8.20451 6.73206 8.63397 6.3394 8.8303L4.79126 9.60437C5.90756 12.3783 8.12168 14.5924 10.8956 15.7087L11.6697 14.1606C11.866 13.7679 12.2955 13.5492 12.7285 13.6214L17.1644 14.3607C17.6466 14.4411 18 14.8583 18 15.3471V17.5C18 18.0523 17.5523 18.5 17 18.5H15C7.8203 18.5 2 12.6797 2 5.5V3.5Z" fill="#21272A"/>
</svg>
