<svg width="20" height="21" viewBox="0 0 20 21" fill="none" xmlns="http://www.w3.org/2000/svg">
<path d="M17.9241 3.11722C17.8757 3.00014 17.804 2.8904 17.7092 2.79502C17.7078 2.7936 17.7064 2.79219 17.705 2.79078C17.5242 2.61106 17.2751 2.5 17 2.5H13C12.4477 2.5 12 2.94772 12 3.5C12 4.05228 12.4477 4.5 13 4.5H14.5858L11.2929 7.79289C10.9024 8.18342 10.9024 8.81658 11.2929 9.20711C11.6834 9.59763 12.3166 9.59763 12.7071 9.20711L16 5.91421V7.5C16 8.05228 16.4477 8.5 17 8.5C17.5523 8.5 18 8.05228 18 7.5V3.5C18 3.36441 17.973 3.23512 17.9241 3.11722Z" fill="#21272A"/>
<path d="M2 3.5C2 2.94772 2.44772 2.5 3 2.5H5.15287C5.64171 2.5 6.0589 2.85341 6.13927 3.3356L6.87858 7.77147C6.95075 8.20451 6.73206 8.63397 6.3394 8.8303L4.79126 9.60437C5.90756 12.3783 8.12168 14.5924 10.8956 15.7087L11.6697 14.1606C11.866 13.7679 12.2955 13.5492 12.7285 13.6214L17.1644 14.3607C17.6466 14.4411 18 14.8583 18 15.3471V17.5C18 18.0523 17.5523 18.5 17 18.5H15C7.8203 18.5 2 12.6797 2 5.5V3.5Z" fill="#21272A"/>
</svg>
