<svg width="20" height="21" viewBox="0 0 20 21" fill="none" xmlns="http://www.w3.org/2000/svg">
<path d="M2 3.5C2 2.94772 2.44772 2.5 3 2.5H5.15287C5.64171 2.5 6.0589 2.85341 6.13927 3.3356L6.87858 7.77147C6.95075 8.20451 6.73206 8.63397 6.3394 8.8303L4.79126 9.60437C5.90756 12.3783 8.12168 14.5924 10.8956 15.7087L11.6697 14.1606C11.866 13.7679 12.2955 13.5492 12.7285 13.6214L17.1644 14.3607C17.6466 14.4411 18 14.8583 18 15.3471V17.5C18 18.0523 17.5523 18.5 17 18.5H15C7.8203 18.5 2 12.6797 2 5.5V3.5Z" fill="#21272A"/>
<path d="M16.7071 3.79289C17.0976 4.18342 17.0976 4.81658 16.7071 5.20711L15.4142 6.5L16.7071 7.79289C17.0976 8.18342 17.0976 8.81658 16.7071 9.20711C16.3166 9.59763 15.6834 9.59763 15.2929 9.20711L14 7.91421L12.7071 9.20711C12.3166 9.59763 11.6834 9.59763 11.2929 9.20711C10.9024 8.81658 10.9024 8.18342 11.2929 7.79289L12.5858 6.5L11.2929 5.20711C10.9024 4.81658 10.9024 4.18342 11.2929 3.79289C11.6834 3.40237 12.3166 3.40237 12.7071 3.79289L14 5.08579L15.2929 3.79289C15.6834 3.40237 16.3166 3.40237 16.7071 3.79289Z" fill="#21272A"/>
</svg>
