<svg width="20" height="21" viewBox="0 0 20 21" fill="none" xmlns="http://www.w3.org/2000/svg">
<path fill-rule="evenodd" clip-rule="evenodd" d="M10 18.5C14.4183 18.5 18 14.9183 18 10.5C18 6.08172 14.4183 2.5 10 2.5C5.58172 2.5 2 6.08172 2 10.5C2 14.9183 5.58172 18.5 10 18.5ZM11 7.5C11 6.94772 10.5523 6.5 10 6.5C9.44772 6.5 9 6.94772 9 7.5V9.5H7C6.44772 9.5 6 9.94771 6 10.5C6 11.0523 6.44772 11.5 7 11.5H9V13.5C9 14.0523 9.44772 14.5 10 14.5C10.5523 14.5 11 14.0523 11 13.5V11.5H13C13.5523 11.5 14 11.0523 14 10.5C14 9.94772 13.5523 9.5 13 9.5H11V7.5Z" fill="#21272A"/>
</svg>
