<svg width="20" height="21" viewBox="0 0 20 21" fill="none" xmlns="http://www.w3.org/2000/svg">
<path fill-rule="evenodd" clip-rule="evenodd" d="M3 3.5C2.44772 3.5 2 3.94772 2 4.5C2 5.05228 2.44772 5.5 3 5.5V13.5C3 14.6046 3.89543 15.5 5 15.5H7.58579L6.29289 16.7929C5.90237 17.1834 5.90237 17.8166 6.29289 18.2071C6.68342 18.5976 7.31658 18.5976 7.70711 18.2071L10 15.9142L12.2929 18.2071C12.6834 18.5976 13.3166 18.5976 13.7071 18.2071C14.0976 17.8166 14.0976 17.1834 13.7071 16.7929L12.4142 15.5H15C16.1046 15.5 17 14.6046 17 13.5V5.5C17.5523 5.5 18 5.05228 18 4.5C18 3.94772 17.5523 3.5 17 3.5H3ZM14 7.5C14 6.94772 13.5523 6.5 13 6.5C12.4477 6.5 12 6.94772 12 7.5V11.5C12 12.0523 12.4477 12.5 13 12.5C13.5523 12.5 14 12.0523 14 11.5V7.5ZM11 8.5C11 7.94772 10.5523 7.5 10 7.5C9.44772 7.5 9 7.94772 9 8.5V11.5C9 12.0523 9.44772 12.5 10 12.5C10.5523 12.5 11 12.0523 11 11.5V8.5ZM8 9.5C8 8.94772 7.55228 8.5 7 8.5C6.44772 8.5 6 8.94772 6 9.5V11.5C6 12.0523 6.44772 12.5 7 12.5C7.55228 12.5 8 12.0523 8 11.5V9.5Z" fill="#21272A"/>
</svg>
