<svg width="20" height="21" viewBox="0 0 20 21" fill="none" xmlns="http://www.w3.org/2000/svg">
<path fill-rule="evenodd" clip-rule="evenodd" d="M5 4.5V7.5H4C2.89543 7.5 2 8.39543 2 9.5V12.5C2 13.6046 2.89543 14.5 4 14.5H5V16.5C5 17.6046 5.89543 18.5 7 18.5H13C14.1046 18.5 15 17.6046 15 16.5V14.5H16C17.1046 14.5 18 13.6046 18 12.5V9.5C18 8.39543 17.1046 7.5 16 7.5H15V4.5C15 3.39543 14.1046 2.5 13 2.5H7C5.89543 2.5 5 3.39543 5 4.5ZM13 4.5H7V7.5H13V4.5ZM13 12.5H7V16.5H13V12.5Z" fill="#21272A"/>
</svg>
