<svg width="20" height="21" viewBox="0 0 20 21" fill="none" xmlns="http://www.w3.org/2000/svg">
<path d="M10 4C10 3.17157 10.6716 2.5 11.5 2.5C12.3284 2.5 13 3.17157 13 4V4.5C13 5.05228 13.4477 5.5 14 5.5H17C17.5523 5.5 18 5.94772 18 6.5V9.5C18 10.0523 17.5523 10.5 17 10.5H16.5C15.6716 10.5 15 11.1716 15 12C15 12.8284 15.6716 13.5 16.5 13.5H17C17.5523 13.5 18 13.9477 18 14.5V17.5C18 18.0523 17.5523 18.5 17 18.5H14C13.4477 18.5 13 18.0523 13 17.5V17C13 16.1716 12.3284 15.5 11.5 15.5C10.6716 15.5 10 16.1716 10 17V17.5C10 18.0523 9.55228 18.5 9 18.5H6C5.44772 18.5 5 18.0523 5 17.5V14.5C5 13.9477 4.55228 13.5 4 13.5H3.5C2.67157 13.5 2 12.8284 2 12C2 11.1716 2.67157 10.5 3.5 10.5H4C4.55228 10.5 5 10.0523 5 9.5V6.5C5 5.94772 5.44772 5.5 6 5.5H9C9.55228 5.5 10 5.05228 10 4.5V4Z" fill="#21272A"/>
</svg>
