<svg width="20" height="21" viewBox="0 0 20 21" fill="none" xmlns="http://www.w3.org/2000/svg">
<path fill-rule="evenodd" clip-rule="evenodd" d="M3 4.5C3 3.94772 3.44772 3.5 4 3.5H7C7.55228 3.5 8 3.94772 8 4.5V7.5C8 8.05228 7.55228 8.5 7 8.5H4C3.44772 8.5 3 8.05228 3 7.5V4.5ZM5 6.5V5.5H6V6.5H5Z" fill="#21272A"/>
<path fill-rule="evenodd" clip-rule="evenodd" d="M3 13.5C3 12.9477 3.44772 12.5 4 12.5H7C7.55228 12.5 8 12.9477 8 13.5V16.5C8 17.0523 7.55228 17.5 7 17.5H4C3.44772 17.5 3 17.0523 3 16.5V13.5ZM5 15.5V14.5H6V15.5H5Z" fill="#21272A"/>
<path fill-rule="evenodd" clip-rule="evenodd" d="M13 3.5C12.4477 3.5 12 3.94772 12 4.5V7.5C12 8.05228 12.4477 8.5 13 8.5H16C16.5523 8.5 17 8.05228 17 7.5V4.5C17 3.94772 16.5523 3.5 16 3.5H13ZM14 5.5V6.5H15V5.5H14Z" fill="#21272A"/>
<path d="M11 4.5C11 3.94772 10.5523 3.5 10 3.5C9.44772 3.5 9 3.94772 9 4.5V5.5C9 6.05228 9.44772 6.5 10 6.5C10.5523 6.5 11 6.05228 11 5.5V4.5Z" fill="#21272A"/>
<path d="M10 7.5C10.5523 7.5 11 7.94772 11 8.5V9.5H13C13.5523 9.5 14 9.94772 14 10.5C14 11.0523 13.5523 11.5 13 11.5H10C9.44772 11.5 9 11.0523 9 10.5V8.5C9 7.94772 9.44772 7.5 10 7.5Z" fill="#21272A"/>
<path d="M16 9.5C15.4477 9.5 15 9.94772 15 10.5C15 11.0523 15.4477 11.5 16 11.5C16.5523 11.5 17 11.0523 17 10.5C17 9.94772 16.5523 9.5 16 9.5Z" fill="#21272A"/>
<path d="M9 13.5C9 12.9477 9.44772 12.5 10 12.5H11C11.5523 12.5 12 12.9477 12 13.5C12 14.0523 11.5523 14.5 11 14.5V16.5C11 17.0523 10.5523 17.5 10 17.5C9.44772 17.5 9 17.0523 9 16.5V13.5Z" fill="#21272A"/>
<path d="M7 11.5C7.55228 11.5 8 11.0523 8 10.5C8 9.94772 7.55228 9.5 7 9.5H4C3.44772 9.5 3 9.94771 3 10.5C3 11.0523 3.44772 11.5 4 11.5H7Z" fill="#21272A"/>
<path d="M17 13.5C17 14.0523 16.5523 14.5 16 14.5H14C13.4477 14.5 13 14.0523 13 13.5C13 12.9477 13.4477 12.5 14 12.5H16C16.5523 12.5 17 12.9477 17 13.5Z" fill="#21272A"/>
<path d="M16 17.5C16.5523 17.5 17 17.0523 17 16.5C17 15.9477 16.5523 15.5 16 15.5H13C12.4477 15.5 12 15.9477 12 16.5C12 17.0523 12.4477 17.5 13 17.5H16Z" fill="#21272A"/>
</svg>
