<svg width="20" height="21" viewBox="0 0 20 21" fill="none" xmlns="http://www.w3.org/2000/svg">
<path fill-rule="evenodd" clip-rule="evenodd" d="M5 2.5C3.89543 2.5 3 3.39543 3 4.5V18.5L6.5 16.5L10 18.5L13.5 16.5L17 18.5V4.5C17 3.39543 16.1046 2.5 15 2.5H5ZM7.5 5.5C6.67157 5.5 6 6.17157 6 7C6 7.82843 6.67157 8.5 7.5 8.5C8.32843 8.5 9 7.82843 9 7C9 6.17157 8.32843 5.5 7.5 5.5ZM13.7071 5.79289C13.3166 5.40237 12.6834 5.40237 12.2929 5.79289L6.29289 11.7929C5.90237 12.1834 5.90237 12.8166 6.29289 13.2071C6.68342 13.5976 7.31658 13.5976 7.70711 13.2071L13.7071 7.20711C14.0976 6.81658 14.0976 6.18342 13.7071 5.79289ZM12.5 10.5C11.6716 10.5 11 11.1716 11 12C11 12.8284 11.6716 13.5 12.5 13.5C13.3284 13.5 14 12.8284 14 12C14 11.1716 13.3284 10.5 12.5 10.5Z" fill="#21272A"/>
</svg>
