<svg width="20" height="21" viewBox="0 0 20 21" fill="none" xmlns="http://www.w3.org/2000/svg">
<path fill-rule="evenodd" clip-rule="evenodd" d="M5 2.5C3.89543 2.5 3 3.39543 3 4.5V18.5L6.5 16.5L10 18.5L13.5 16.5L17 18.5V4.5C17 3.39543 16.1046 2.5 15 2.5H5ZM9.70711 6.20711C10.0976 5.81658 10.0976 5.18342 9.70711 4.79289C9.31658 4.40237 8.68342 4.40237 8.29289 4.79289L5.29289 7.79289C4.90237 8.18342 4.90237 8.81658 5.29289 9.20711L8.29289 12.2071C8.68342 12.5976 9.31658 12.5976 9.70711 12.2071C10.0976 11.8166 10.0976 11.1834 9.70711 10.7929L8.41421 9.5H10C11.6569 9.5 13 10.8431 13 12.5V13.5C13 14.0523 13.4477 14.5 14 14.5C14.5523 14.5 15 14.0523 15 13.5V12.5C15 9.73858 12.7614 7.5 10 7.5H8.41421L9.70711 6.20711Z" fill="#21272A"/>
</svg>
