<svg width="20" height="21" viewBox="0 0 20 21" fill="none" xmlns="http://www.w3.org/2000/svg">
<path fill-rule="evenodd" clip-rule="evenodd" d="M4 2.5C4.55228 2.5 5 2.94772 5 3.5V5.60125C6.27009 4.30489 8.04052 3.5 10 3.5C13.0494 3.5 15.641 5.44932 16.6014 8.16675C16.7855 8.68747 16.5126 9.25879 15.9918 9.44284C15.4711 9.62689 14.8998 9.35396 14.7157 8.83325C14.0289 6.88991 12.1755 5.5 10 5.5C8.36507 5.5 6.91204 6.28502 5.99935 7.5H9C9.55228 7.5 10 7.94772 10 8.5C10 9.05228 9.55228 9.5 9 9.5H4C3.44772 9.5 3 9.05228 3 8.5V3.5C3 2.94772 3.44772 2.5 4 2.5ZM4.00817 11.5572C4.52888 11.3731 5.1002 11.646 5.28425 12.1668C5.97112 14.1101 7.82453 15.5 10 15.5C11.6349 15.5 13.088 14.715 14.0006 13.5L11 13.5C10.4477 13.5 10 13.0523 10 12.5C10 11.9477 10.4477 11.5 11 11.5H16C16.2652 11.5 16.5196 11.6054 16.7071 11.7929C16.8946 11.9804 17 12.2348 17 12.5V17.5C17 18.0523 16.5523 18.5 16 18.5C15.4477 18.5 15 18.0523 15 17.5V15.3987C13.7299 16.6951 11.9595 17.5 10 17.5C6.95059 17.5 4.35905 15.5507 3.39857 12.8332C3.21452 12.3125 3.48745 11.7412 4.00817 11.5572Z" fill="#21272A"/>
</svg>
