<svg width="20" height="21" viewBox="0 0 20 21" fill="none" xmlns="http://www.w3.org/2000/svg">
<path fill-rule="evenodd" clip-rule="evenodd" d="M7.70711 3.79289C8.09763 4.18342 8.09763 4.81658 7.70711 5.20711L5.41421 7.5H11C14.866 7.5 18 10.634 18 14.5V16.5C18 17.0523 17.5523 17.5 17 17.5C16.4477 17.5 16 17.0523 16 16.5V14.5C16 11.7386 13.7614 9.5 11 9.5H5.41421L7.70711 11.7929C8.09763 12.1834 8.09763 12.8166 7.70711 13.2071C7.31658 13.5976 6.68342 13.5976 6.29289 13.2071L2.29289 9.20711C1.90237 8.81658 1.90237 8.18342 2.29289 7.79289L6.29289 3.79289C6.68342 3.40237 7.31658 3.40237 7.70711 3.79289Z" fill="#21272A"/>
</svg>
