<svg width="20" height="21" viewBox="0 0 20 21" fill="none" xmlns="http://www.w3.org/2000/svg">
<path d="M8.4453 15.3321C8.75216 15.5367 9.1467 15.5557 9.47186 15.3817C9.79701 15.2077 10 14.8688 10 14.5L10 11.7019L15.4453 15.3321C15.7522 15.5367 16.1467 15.5557 16.4719 15.3817C16.797 15.2077 17 14.8688 17 14.5V6.50003C17 6.13124 16.797 5.79238 16.4719 5.61836C16.1467 5.44434 15.7522 5.46341 15.4453 5.66798L10 9.29818V6.50003C10 6.13124 9.79702 5.79238 9.47186 5.61836C9.1467 5.44434 8.75216 5.46341 8.4453 5.66798L2.4453 9.66798C2.1671 9.85345 2 10.1657 2 10.5C2 10.8344 2.1671 11.1466 2.4453 11.3321L8.4453 15.3321Z" fill="#21272A"/>
</svg>
