<svg width="29" height="29" viewBox="0 0 29 29" fill="none" xmlns="http://www.w3.org/2000/svg">
<path fill-rule="evenodd" clip-rule="evenodd" d="M14.4303 0C6.4639 0 0 6.4639 0 14.4303C0 22.3967 6.4639 28.8606 14.4303 28.8606C22.3811 28.8606 28.8606 22.3967 28.8606 14.4303C28.8606 6.4639 22.3811 0 14.4303 0ZM23.9618 6.65171C25.6834 8.74896 26.7165 11.4253 26.7478 14.3207C26.3408 14.2425 22.2715 13.413 18.1709 13.9295C18.077 13.726 17.9987 13.5069 17.9049 13.2878C17.6544 12.6931 17.3727 12.0827 17.091 11.5036C21.6298 9.65676 23.6957 6.99604 23.9618 6.65171ZM14.4303 2.12855C17.5605 2.12855 20.4247 3.30239 22.6002 5.22747C22.3811 5.54049 20.5185 8.02902 16.1362 9.67237C14.1173 5.96306 11.8792 2.92676 11.5349 2.45722C12.4582 2.23811 13.4287 2.12855 14.4303 2.12855ZM9.18724 3.28673C9.51589 3.72496 11.707 6.77692 13.7573 10.408C7.99771 11.9418 2.91111 11.9105 2.36332 11.9105C3.16152 8.09162 5.74395 4.91444 9.18724 3.28673ZM2.09725 14.446C2.09725 14.3207 2.09725 14.1955 2.09725 14.0704C2.62938 14.086 8.6081 14.1643 14.759 12.3174C15.119 13.006 15.4476 13.7103 15.7607 14.4146C15.6041 14.4616 15.432 14.5086 15.2755 14.5555C8.92112 16.6058 5.54049 22.2089 5.25877 22.6784C3.30238 20.5029 2.09725 17.6075 2.09725 14.446ZM14.4303 26.7634C11.5818 26.7634 8.95243 25.793 6.87083 24.1653C7.08994 23.7114 9.59408 18.8909 16.5432 16.465C16.5745 16.4493 16.5902 16.4493 16.6215 16.4337C18.3587 20.9255 19.0631 24.6974 19.2508 25.7773C17.764 26.419 16.1362 26.7634 14.4303 26.7634ZM21.3011 24.6505C21.1759 23.8992 20.5185 20.2995 18.9065 15.8702C22.7724 15.2598 26.153 16.2615 26.5756 16.4024C26.0435 19.83 24.0714 22.788 21.3011 24.6505Z" fill="#2A81BF"/>
</svg>
