<svg width="20" height="21" viewBox="0 0 20 21" fill="none" xmlns="http://www.w3.org/2000/svg">
<path d="M5 3.5C4.44772 3.5 4 3.94772 4 4.5C4 5.05228 4.44772 5.5 5 5.5C10.5228 5.5 15 9.97715 15 15.5C15 16.0523 15.4477 16.5 16 16.5C16.5523 16.5 17 16.0523 17 15.5C17 8.87258 11.6274 3.5 5 3.5Z" fill="#21272A"/>
<path d="M4 9.5C4 8.94772 4.44772 8.5 5 8.5C8.86599 8.5 12 11.634 12 15.5C12 16.0523 11.5523 16.5 11 16.5C10.4477 16.5 10 16.0523 10 15.5C10 12.7386 7.76142 10.5 5 10.5C4.44772 10.5 4 10.0523 4 9.5Z" fill="#21272A"/>
<path d="M3 15.5C3 14.3954 3.89543 13.5 5 13.5C6.10457 13.5 7 14.3954 7 15.5C7 16.6046 6.10457 17.5 5 17.5C3.89543 17.5 3 16.6046 3 15.5Z" fill="#21272A"/>
</svg>
