<svg width="20" height="21" viewBox="0 0 20 21" fill="none" xmlns="http://www.w3.org/2000/svg">
<path d="M7.70711 10.7929C7.31658 10.4024 6.68342 10.4024 6.29289 10.7929C5.90237 11.1834 5.90237 11.8166 6.29289 12.2071L9.29289 15.2071C9.68342 15.5976 10.3166 15.5976 10.7071 15.2071L13.7071 12.2071C14.0976 11.8166 14.0976 11.1834 13.7071 10.7929C13.3166 10.4024 12.6834 10.4024 12.2929 10.7929L11 12.0858L11 6.5H16C17.1046 6.5 18 7.39543 18 8.5V15.5C18 16.6046 17.1046 17.5 16 17.5H4C2.89543 17.5 2 16.6046 2 15.5V8.5C2 7.39543 2.89543 6.5 4 6.5H9L9 12.0858L7.70711 10.7929Z" fill="#21272A"/>
<path d="M9 4.5C9 3.94772 9.44772 3.5 10 3.5C10.5523 3.5 11 3.94772 11 4.5L11 6.5H9L9 4.5Z" fill="#21272A"/>
</svg>
