<svg width="20" height="21" viewBox="0 0 20 21" fill="none" xmlns="http://www.w3.org/2000/svg">
<path d="M9.70711 7.79289C9.31658 7.40237 8.68342 7.40237 8.29289 7.79289C7.90237 8.18342 7.90237 8.81658 8.29289 9.20711L11.2929 12.2071C11.6834 12.5976 12.3166 12.5976 12.7071 12.2071L15.7071 9.20711C16.0976 8.81658 16.0976 8.18342 15.7071 7.79289C15.3166 7.40237 14.6834 7.40237 14.2929 7.79289L13 9.08579L13 5.5H16C17.1046 5.5 18 6.39543 18 7.5V12.5C18 13.6046 17.1046 14.5 16 14.5H8C6.89543 14.5 6 13.6046 6 12.5V7.5C6 6.39543 6.89543 5.5 8 5.5H11L11 9.08579L9.70711 7.79289Z" fill="#21272A"/>
<path d="M11 3.5C11 2.94772 11.4477 2.5 12 2.5C12.5523 2.5 13 2.94772 13 3.5L13 5.5H11L11 3.5Z" fill="#21272A"/>
<path d="M4 9.5C2.89543 9.5 2 10.3954 2 11.5V16.5C2 17.6046 2.89543 18.5 4 18.5H12C13.1046 18.5 14 17.6046 14 16.5H4V9.5Z" fill="#21272A"/>
</svg>
