<svg width="20" height="21" viewBox="0 0 20 21" fill="none" xmlns="http://www.w3.org/2000/svg">
<path fill-rule="evenodd" clip-rule="evenodd" d="M9.99998 2.5C10.5523 2.5 11 2.94772 11 3.5V4.82297L14.9544 6.40474L16.5528 5.60557C17.0467 5.35858 17.6474 5.55881 17.8944 6.05279C18.1414 6.54676 17.9412 7.14744 17.4472 7.39443L16.214 8.01101L17.9522 13.4307C18.0727 13.8065 17.961 14.218 17.6669 14.4812C16.9599 15.114 16.0238 15.5 15 15.5C13.9761 15.5 13.0401 15.114 12.3331 14.4812C12.039 14.218 11.9272 13.8065 12.0477 13.4307L13.7631 8.08227L11 6.97703V16.5H13C13.5523 16.5 14 16.9477 14 17.5C14 18.0523 13.5523 18.5 13 18.5H6.99997C6.44769 18.5 5.99997 18.0523 5.99997 17.5C5.99997 16.9477 6.44769 16.5 6.99997 16.5H8.99997V6.97703L6.23689 8.08227L7.9522 13.4307C8.07272 13.8065 7.96096 14.218 7.66689 14.4812C6.95988 15.114 6.02381 15.5 4.99997 15.5C3.97614 15.5 3.04007 15.114 2.33306 14.4812C2.03899 14.218 1.92723 13.8065 2.04775 13.4307L3.78592 8.01101L2.55276 7.39443C2.05878 7.14744 1.85856 6.54676 2.10555 6.05279C2.35254 5.55881 2.95321 5.35858 3.44719 5.60557L5.04553 6.40474L8.99997 4.82297V3.5C8.99997 2.94772 9.44769 2.5 9.99998 2.5ZM4.99997 10.7745L4.18174 13.3258C4.43132 13.4378 4.708 13.5 4.99997 13.5C5.29194 13.5 5.56863 13.4378 5.81821 13.3258L4.99997 10.7745ZM15 10.7745L14.1817 13.3258C14.4313 13.4378 14.708 13.5 15 13.5C15.2919 13.5 15.5686 13.4378 15.8182 13.3258L15 10.7745Z" fill="#21272A"/>
</svg>
