<svg width="20" height="21" viewBox="0 0 20 21" fill="none" xmlns="http://www.w3.org/2000/svg">
<path fill-rule="evenodd" clip-rule="evenodd" d="M5.5 2.5C3.567 2.5 2 4.067 2 6C2 7.933 3.567 9.5 5.5 9.5C6.10276 9.5 6.66993 9.34763 7.1651 9.07931L8.58582 10.5L7.16515 11.9207C6.66997 11.6524 6.10278 11.5 5.5 11.5C3.567 11.5 2 13.067 2 15C2 16.933 3.567 18.5 5.5 18.5C7.433 18.5 9 16.933 9 15C9 14.3973 8.84764 13.8301 8.57934 13.335L16.7072 5.20711C17.0977 4.81658 17.0977 4.18342 16.7072 3.79289C16.3167 3.40237 15.6835 3.40237 15.293 3.79289L10 9.08582L8.57931 7.6651C8.84763 7.16993 9 6.60276 9 6C9 4.067 7.433 2.5 5.5 2.5ZM4 6C4 5.17157 4.67157 4.5 5.5 4.5C6.32843 4.5 7 5.17157 7 6C7 6.82843 6.32843 7.5 5.5 7.5C4.67157 7.5 4 6.82843 4 6ZM4 15C4 14.1716 4.67157 13.5 5.5 13.5C6.32843 13.5 7 14.1716 7 15C7 15.8284 6.32843 16.5 5.5 16.5C4.67157 16.5 4 15.8284 4 15Z" fill="#21272A"/>
<path d="M12.8284 11.9142C12.4379 11.5237 11.8047 11.5237 11.4142 11.9142C11.0237 12.3047 11.0237 12.9379 11.4142 13.3284L15.2929 17.2071C15.6834 17.5976 16.3166 17.5976 16.7071 17.2071C17.0976 16.8166 17.0976 16.1834 16.7071 15.7929L12.8284 11.9142Z" fill="#21272A"/>
</svg>
