<svg width="20" height="21" viewBox="0 0 20 21" fill="none" xmlns="http://www.w3.org/2000/svg">
<path d="M9 9.5C9 8.39543 9.89543 7.5 11 7.5C12.1046 7.5 13 8.39543 13 9.5C13 10.6046 12.1046 11.5 11 11.5C10.4474 11.5 9.94881 11.2772 9.58579 10.9142C9.22276 10.5512 9 10.0526 9 9.5Z" fill="#21272A"/>
<path fill-rule="evenodd" clip-rule="evenodd" d="M10 18.5C14.4183 18.5 18 14.9183 18 10.5C18 6.08172 14.4183 2.5 10 2.5C5.58172 2.5 2 6.08172 2 10.5C2 14.9183 5.58172 18.5 10 18.5ZM11 5.5C8.79086 5.5 7 7.29086 7 9.5C7 10.2414 7.20229 10.9364 7.55397 11.5318L5.29289 13.7929C4.90237 14.1834 4.90237 14.8166 5.29289 15.2071C5.68342 15.5976 6.31658 15.5976 6.70711 15.2071L8.96818 12.946C9.56362 13.2977 10.2586 13.5 11 13.5C13.2091 13.5 15 11.7091 15 9.5C15 7.29086 13.2091 5.5 11 5.5Z" fill="#21272A"/>
</svg>
