<svg width="20" height="21" viewBox="0 0 20 21" fill="none" xmlns="http://www.w3.org/2000/svg">
<path fill-rule="evenodd" clip-rule="evenodd" d="M10 3.5C10.2652 3.5 10.5196 3.60536 10.7071 3.79289L13.7071 6.79289C14.0976 7.18342 14.0976 7.81658 13.7071 8.20711C13.3166 8.59763 12.6834 8.59763 12.2929 8.20711L10 5.91421L7.70711 8.20711C7.31658 8.59763 6.68342 8.59763 6.29289 8.20711C5.90237 7.81658 5.90237 7.18342 6.29289 6.79289L9.29289 3.79289C9.48043 3.60536 9.73478 3.5 10 3.5ZM6.29289 12.7929C6.68342 12.4024 7.31658 12.4024 7.70711 12.7929L10 15.0858L12.2929 12.7929C12.6834 12.4024 13.3166 12.4024 13.7071 12.7929C14.0976 13.1834 14.0976 13.8166 13.7071 14.2071L10.7071 17.2071C10.3166 17.5976 9.68342 17.5976 9.29289 17.2071L6.29289 14.2071C5.90237 13.8166 5.90237 13.1834 6.29289 12.7929Z" fill="#21272A"/>
</svg>
