<svg width="20" height="21" viewBox="0 0 20 21" fill="none" xmlns="http://www.w3.org/2000/svg">
<path fill-rule="evenodd" clip-rule="evenodd" d="M2 5.5C2 4.39543 2.89543 3.5 4 3.5H16C17.1046 3.5 18 4.39543 18 5.5V7.5C18 8.60457 17.1046 9.5 16 9.5H4C2.89543 9.5 2 8.60457 2 7.5V5.5ZM16 6.5C16 7.05228 15.5523 7.5 15 7.5C14.4477 7.5 14 7.05228 14 6.5C14 5.94772 14.4477 5.5 15 5.5C15.5523 5.5 16 5.94772 16 6.5Z" fill="#21272A"/>
<path fill-rule="evenodd" clip-rule="evenodd" d="M2 13.5C2 12.3954 2.89543 11.5 4 11.5H16C17.1046 11.5 18 12.3954 18 13.5V15.5C18 16.6046 17.1046 17.5 16 17.5H4C2.89543 17.5 2 16.6046 2 15.5V13.5ZM16 14.5C16 15.0523 15.5523 15.5 15 15.5C14.4477 15.5 14 15.0523 14 14.5C14 13.9477 14.4477 13.5 15 13.5C15.5523 13.5 16 13.9477 16 14.5Z" fill="#21272A"/>
</svg>
