<svg width="20" height="21" viewBox="0 0 20 21" fill="none" xmlns="http://www.w3.org/2000/svg">
<path fill-rule="evenodd" clip-rule="evenodd" d="M2.16611 5.49891C5.17437 5.45809 7.91528 4.31033 10 2.44446C12.0847 4.31033 14.8256 5.45809 17.8339 5.49891C17.9431 6.14968 18 6.81821 18 7.50003C18 12.7249 14.6608 17.1698 10 18.8172C5.33923 17.1698 2 12.7249 2 7.50003C2 6.81821 2.05686 6.14968 2.16611 5.49891ZM13.7071 9.20711C14.0976 8.81658 14.0976 8.18342 13.7071 7.79289C13.3166 7.40237 12.6834 7.40237 12.2929 7.79289L9 11.0858L7.70711 9.79289C7.31658 9.40237 6.68342 9.40237 6.29289 9.79289C5.90237 10.1834 5.90237 10.8166 6.29289 11.2071L8.29289 13.2071C8.68342 13.5976 9.31658 13.5976 9.70711 13.2071L13.7071 9.20711Z" fill="#21272A"/>
</svg>
