<svg width="20" height="21" viewBox="0 0 20 21" fill="none" xmlns="http://www.w3.org/2000/svg">
<path fill-rule="evenodd" clip-rule="evenodd" d="M10 2.5C7.79086 2.5 6 4.29086 6 6.5V7.5H5C4.49046 7.5 4.06239 7.88314 4.00612 8.38957L3.00612 17.3896C2.97471 17.6723 3.06518 17.955 3.25488 18.1669C3.44458 18.3789 3.71556 18.5 4 18.5H16C16.2844 18.5 16.5554 18.3789 16.7451 18.1669C16.9348 17.955 17.0253 17.6723 16.9939 17.3896L15.9939 8.38957C15.9376 7.88314 15.5096 7.5 15 7.5H14V6.5C14 4.29086 12.2091 2.5 10 2.5ZM12 7.5V6.5C12 5.39543 11.1046 4.5 10 4.5C8.89543 4.5 8 5.39543 8 6.5V7.5H12ZM6 10.5C6 9.94772 6.44772 9.5 7 9.5C7.55228 9.5 8 9.94772 8 10.5C8 11.0523 7.55228 11.5 7 11.5C6.44772 11.5 6 11.0523 6 10.5ZM13 9.5C12.4477 9.5 12 9.94772 12 10.5C12 11.0523 12.4477 11.5 13 11.5C13.5523 11.5 14 11.0523 14 10.5C14 9.94772 13.5523 9.5 13 9.5Z" fill="#21272A"/>
</svg>
