<svg width="20" height="21" viewBox="0 0 20 21" fill="none" xmlns="http://www.w3.org/2000/svg">
<path d="M3 3.5C2.44772 3.5 2 3.94772 2 4.5C2 5.05228 2.44772 5.5 3 5.5H14C14.5523 5.5 15 5.05228 15 4.5C15 3.94772 14.5523 3.5 14 3.5H3Z" fill="#21272A"/>
<path d="M3 7.5C2.44772 7.5 2 7.94772 2 8.5C2 9.05228 2.44772 9.5 3 9.5H8C8.55228 9.5 9 9.05228 9 8.5C9 7.94772 8.55228 7.5 8 7.5H3Z" fill="#21272A"/>
<path d="M3 11.5C2.44772 11.5 2 11.9477 2 12.5C2 13.0523 2.44772 13.5 3 13.5H7C7.55228 13.5 8 13.0523 8 12.5C8 11.9477 7.55228 11.5 7 11.5H3Z" fill="#21272A"/>
<path d="M13 16.5C13 17.0523 13.4477 17.5 14 17.5C14.5523 17.5 15 17.0523 15 16.5L15 10.9142L16.2929 12.2071C16.6834 12.5976 17.3166 12.5976 17.7071 12.2071C18.0976 11.8166 18.0976 11.1834 17.7071 10.7929L14.7071 7.79289C14.5196 7.60536 14.2652 7.5 14 7.5C13.7348 7.5 13.4804 7.60536 13.2929 7.79289L10.2929 10.7929C9.90237 11.1834 9.90237 11.8166 10.2929 12.2071C10.6834 12.5976 11.3166 12.5976 11.7071 12.2071L13 10.9142L13 16.5Z" fill="#21272A"/>
</svg>
