<svg width="20" height="21" viewBox="0 0 20 21" fill="none" xmlns="http://www.w3.org/2000/svg">
<path d="M3 3.5C2.44772 3.5 2 3.94772 2 4.5C2 5.05228 2.44772 5.5 3 5.5H14C14.5523 5.5 15 5.05228 15 4.5C15 3.94772 14.5523 3.5 14 3.5H3Z" fill="#21272A"/>
<path d="M3 7.5C2.44772 7.5 2 7.94772 2 8.5C2 9.05228 2.44772 9.5 3 9.5H10C10.5523 9.5 11 9.05228 11 8.5C11 7.94772 10.5523 7.5 10 7.5H3Z" fill="#21272A"/>
<path d="M3 11.5C2.44772 11.5 2 11.9477 2 12.5C2 13.0523 2.44772 13.5 3 13.5H7C7.55228 13.5 8 13.0523 8 12.5C8 11.9477 7.55228 11.5 7 11.5H3Z" fill="#21272A"/>
<path d="M15 8.5C15 7.94772 14.5523 7.5 14 7.5C13.4477 7.5 13 7.94771 13 8.5L13 14.0858L11.7071 12.7929C11.3166 12.4024 10.6834 12.4024 10.2929 12.7929C9.90237 13.1834 9.90237 13.8166 10.2929 14.2071L13.2929 17.2071C13.4804 17.3946 13.7348 17.5 14 17.5C14.2652 17.5 14.5196 17.3946 14.7071 17.2071L17.7071 14.2071C18.0976 13.8166 18.0976 13.1834 17.7071 12.7929C17.3166 12.4024 16.6834 12.4024 16.2929 12.7929L15 14.0858L15 8.5Z" fill="#21272A"/>
</svg>
