<svg width="20" height="21" viewBox="0 0 20 21" fill="none" xmlns="http://www.w3.org/2000/svg">
<path fill-rule="evenodd" clip-rule="evenodd" d="M5 2.5C5.55228 2.5 6 2.94772 6 3.5V4.5H7C7.55228 4.5 8 4.94772 8 5.5C8 6.05228 7.55228 6.5 7 6.5H6V7.5C6 8.05228 5.55228 8.5 5 8.5C4.44772 8.5 4 8.05228 4 7.5V6.5H3C2.44772 6.5 2 6.05228 2 5.5C2 4.94772 2.44772 4.5 3 4.5H4V3.5C4 2.94772 4.44772 2.5 5 2.5ZM5 12.5C5.55228 12.5 6 12.9477 6 13.5V14.5H7C7.55228 14.5 8 14.9477 8 15.5C8 16.0523 7.55228 16.5 7 16.5H6V17.5C6 18.0523 5.55228 18.5 5 18.5C4.44772 18.5 4 18.0523 4 17.5V16.5H3C2.44772 16.5 2 16.0523 2 15.5C2 14.9477 2.44772 14.5 3 14.5H4V13.5C4 12.9477 4.44772 12.5 5 12.5Z" fill="#21272A"/>
<path fill-rule="evenodd" clip-rule="evenodd" d="M11.9999 2.5C12.4537 2.5 12.8505 2.80548 12.9667 3.24411L14.1459 7.69893L17.4997 9.63381C17.8092 9.81241 17.9999 10.1426 17.9999 10.5C17.9999 10.8574 17.8092 11.1876 17.4997 11.3662L14.1459 13.3011L12.9667 17.7559C12.8505 18.1945 12.4537 18.5 11.9999 18.5C11.5462 18.5 11.1493 18.1945 11.0332 17.7559L9.85402 13.3011L6.50027 11.3662C6.19072 11.1876 6 10.8574 6 10.5C6 10.1426 6.19072 9.81241 6.50027 9.63382L9.85402 7.69893L11.0332 3.24411C11.1493 2.80548 11.5462 2.5 11.9999 2.5Z" fill="#21272A"/>
</svg>
