<svg width="20" height="21" viewBox="0 0 20 21" fill="none" xmlns="http://www.w3.org/2000/svg">
<path d="M18 3.5C18 3.15342 17.8205 2.83156 17.5257 2.64935C17.2309 2.46714 16.8628 2.45058 16.5528 2.60557L8.76393 6.5H5C3.34315 6.5 2 7.84315 2 9.5C2 11.1569 3.34315 12.5 5 12.5H5.27925L7.05132 17.8162C7.18744 18.2246 7.56958 18.5 8.00001 18.5H9.00001C9.55229 18.5 10 18.0523 10 17.5V13.118L16.5528 16.3944C16.8628 16.5494 17.2309 16.5329 17.5257 16.3507C17.8205 16.1684 18 15.8466 18 15.5V3.5Z" fill="#21272A"/>
</svg>
