<svg width="20" height="21" viewBox="0 0 20 21" fill="none" xmlns="http://www.w3.org/2000/svg">
<path d="M9.04893 4.42704C9.34828 3.50573 10.6517 3.50573 10.951 4.42704L12.0206 7.71883C12.1545 8.13086 12.5384 8.40982 12.9717 8.40982H16.4329C17.4016 8.40982 17.8044 9.64943 17.0207 10.2188L14.2205 12.2533C13.87 12.5079 13.7233 12.9593 13.8572 13.3713L14.9268 16.6631C15.2261 17.5844 14.1717 18.3505 13.3879 17.7811L10.5878 15.7467C10.2373 15.4921 9.76269 15.4921 9.4122 15.7467L6.61203 17.7811C5.82832 18.3505 4.77384 17.5844 5.07319 16.6631L6.14276 13.3713C6.27663 12.9593 6.12997 12.5079 5.77949 12.2533L2.97932 10.2188C2.1956 9.64943 2.59838 8.40982 3.5671 8.40982H7.0283C7.46153 8.40982 7.84548 8.13086 7.97936 7.71883L9.04893 4.42704Z" fill="#21272A"/>
</svg>
