<svg width="20" height="21" viewBox="0 0 20 21" fill="none" xmlns="http://www.w3.org/2000/svg">
<path fill-rule="evenodd" clip-rule="evenodd" d="M5.05025 4.13579C5.44078 4.52631 5.44078 5.15948 5.05025 5.55C2.31658 8.28367 2.31658 12.7158 5.05025 15.4495C5.44078 15.84 5.44078 16.4732 5.05025 16.8637C4.65973 17.2542 4.02656 17.2542 3.63604 16.8637C0.12132 13.349 0.12132 7.65051 3.63604 4.13579C4.02656 3.74526 4.65973 3.74526 5.05025 4.13579ZM14.9498 4.13602C15.3403 3.7455 15.9735 3.7455 16.364 4.13602C19.8787 7.65074 19.8787 13.3492 16.364 16.8639C15.9735 17.2545 15.3403 17.2545 14.9498 16.8639C14.5592 16.4734 14.5592 15.8403 14.9498 15.4497C17.6834 12.7161 17.6834 8.28391 14.9498 5.55023C14.5592 5.15971 14.5592 4.52655 14.9498 4.13602ZM7.87869 6.96422C8.26921 7.35474 8.26921 7.98791 7.87869 8.37843C6.70711 9.55 6.70711 11.4495 7.87869 12.6211C8.26921 13.0116 8.26921 13.6448 7.87868 14.0353C7.48816 14.4258 6.855 14.4258 6.46447 14.0353C4.51185 12.0827 4.51185 8.91684 6.46447 6.96422C6.855 6.57369 7.48816 6.57369 7.87869 6.96422ZM12.1213 6.96445C12.5119 6.57392 13.145 6.57392 13.5355 6.96445C15.4882 8.91707 15.4882 12.0829 13.5355 14.0355C13.145 14.426 12.5119 14.426 12.1213 14.0355C11.7308 13.645 11.7308 13.0118 12.1213 12.6213C13.2929 11.4497 13.2929 9.55023 12.1213 8.37866C11.7308 7.98814 11.7308 7.35497 12.1213 6.96445ZM10 9.49998C10.5523 9.49998 11 9.9477 11 10.5V10.51C11 11.0623 10.5523 11.51 10 11.51C9.44772 11.51 9 11.0623 9 10.51V10.5C9 9.9477 9.44772 9.49998 10 9.49998Z" fill="#21272A"/>
</svg>
