<svg width="20" height="21" viewBox="0 0 20 21" fill="none" xmlns="http://www.w3.org/2000/svg">
<path d="M3.70711 2.79289C3.31658 2.40237 2.68342 2.40237 2.29289 2.79289C1.90237 3.18342 1.90237 3.81658 2.29289 4.20711L9.21426 11.1285C9.26325 11.1906 9.31947 11.2469 9.38164 11.2958L16.2929 18.2071C16.6834 18.5976 17.3166 18.5976 17.7071 18.2071C18.0976 17.8166 18.0976 17.1834 17.7071 16.7929L17.0323 16.1181C19.8626 12.5844 19.6398 7.41177 16.3641 4.13603C15.9736 3.74551 15.3404 3.74551 14.9499 4.13603C14.5593 4.52656 14.5593 5.15972 14.9499 5.55025C17.4435 8.04386 17.6625 11.9508 15.6068 14.6926L14.172 13.2578C15.4582 11.3164 15.2461 8.67494 13.5357 6.96446C13.1451 6.57394 12.512 6.57394 12.1214 6.96446C11.7309 7.35498 11.7309 7.98815 12.1214 8.37867C13.0451 9.30233 13.2406 10.6784 12.7078 11.7936L10.7164 9.80219C10.7103 9.79595 10.7042 9.78979 10.6979 9.7837L3.70711 2.79289Z" fill="#21272A"/>
<path d="M3.23766 8.6865C3.38012 8.15291 3.06305 7.60485 2.52946 7.46239C1.99586 7.31992 1.44781 7.637 1.30535 8.17059C0.5045 11.1701 1.27982 14.5074 3.63615 16.8637C4.02667 17.2542 4.65984 17.2542 5.05036 16.8637C5.44089 16.4732 5.44089 15.84 5.05036 15.4495C3.21924 13.6184 2.6134 11.0246 3.23766 8.6865Z" fill="#21272A"/>
<path d="M7.40075 11.9995C7.12434 11.5214 6.51266 11.3578 6.03452 11.6343C5.55639 11.9107 5.39285 12.5223 5.66926 13.0005C5.88367 13.3714 6.14907 13.7198 6.46458 14.0353C6.85511 14.4258 7.48827 14.4258 7.8788 14.0353C8.26932 13.6448 8.26932 13.0116 7.8788 12.6211C7.68771 12.43 7.52865 12.2208 7.40075 11.9995Z" fill="#21272A"/>
</svg>
