<svg width="20" height="21" viewBox="0 0 20 21" fill="none" xmlns="http://www.w3.org/2000/svg">
<path d="M10 2.5C10.5523 2.5 11 2.94772 11 3.5V4.5C11 5.05228 10.5523 5.5 10 5.5C9.44772 5.5 9 5.05228 9 4.5V3.5C9 2.94772 9.44772 2.5 10 2.5Z" fill="#21272A"/>
<path d="M14 10.5C14 12.7091 12.2091 14.5 10 14.5C7.79086 14.5 6 12.7091 6 10.5C6 8.29086 7.79086 6.5 10 6.5C12.2091 6.5 14 8.29086 14 10.5Z" fill="#21272A"/>
<path d="M13.5356 15.4497L14.2427 16.1568C14.6332 16.5473 15.2664 16.5473 15.6569 16.1568C16.0474 15.7663 16.0474 15.1331 15.6569 14.7426L14.9498 14.0355C14.5593 13.645 13.9261 13.645 13.5356 14.0355C13.1451 14.426 13.1451 15.0592 13.5356 15.4497Z" fill="#21272A"/>
<path d="M15.6568 4.84309C16.0473 5.23362 16.0473 5.86678 15.6568 6.25731L14.9497 6.96441C14.5592 7.35494 13.926 7.35494 13.5355 6.96441C13.145 6.57389 13.145 5.94072 13.5355 5.5502L14.2426 4.84309C14.6331 4.45257 15.2663 4.45257 15.6568 4.84309Z" fill="#21272A"/>
<path d="M17 11.5C17.5523 11.5 18 11.0523 18 10.5C18 9.94772 17.5523 9.5 17 9.5H16C15.4477 9.5 15 9.94772 15 10.5C15 11.0523 15.4477 11.5 16 11.5H17Z" fill="#21272A"/>
<path d="M10 15.5C10.5523 15.5 11 15.9477 11 16.5V17.5C11 18.0523 10.5523 18.5 10 18.5C9.44772 18.5 9 18.0523 9 17.5V16.5C9 15.9477 9.44772 15.5 10 15.5Z" fill="#21272A"/>
<path d="M5.05031 6.96443C5.44083 7.35496 6.074 7.35496 6.46452 6.96443C6.85505 6.57391 6.85505 5.94074 6.46452 5.55022L5.75742 4.84311C5.36689 4.45259 4.73373 4.45259 4.3432 4.84311C3.95268 5.23363 3.95268 5.8668 4.3432 6.25732L5.05031 6.96443Z" fill="#21272A"/>
<path d="M6.46443 15.4497L5.75732 16.1568C5.3668 16.5473 4.73363 16.5473 4.34311 16.1568C3.95259 15.7663 3.95259 15.1331 4.34311 14.7426L5.05022 14.0355C5.44074 13.645 6.07391 13.645 6.46443 14.0355C6.85496 14.426 6.85496 15.0592 6.46443 15.4497Z" fill="#21272A"/>
<path d="M4 11.5C4.55228 11.5 5 11.0523 5 10.5C5 9.94772 4.55228 9.5 4 9.5H3C2.44772 9.5 2 9.94772 2 10.5C2 11.0523 2.44772 11.5 3 11.5H4Z" fill="#21272A"/>
</svg>
