<svg width="20" height="21" viewBox="0 0 20 21" fill="none" xmlns="http://www.w3.org/2000/svg">
<path fill-rule="evenodd" clip-rule="evenodd" d="M18 10.5C18 14.9183 14.4183 18.5 10 18.5C5.58172 18.5 2 14.9183 2 10.5C2 6.08172 5.58172 2.5 10 2.5C14.4183 2.5 18 6.08172 18 10.5ZM16 10.5C16 11.4926 15.759 12.4289 15.3322 13.2536L13.8076 11.729C13.9325 11.3418 14 10.9288 14 10.5C14 10.1714 13.9604 9.85198 13.8856 9.54638L15.4484 7.9836C15.8024 8.74889 16 9.60137 16 10.5ZM10.8346 14.4128L12.4156 15.9939C11.6766 16.3193 10.8594 16.5 10 16.5C9.10137 16.5 8.24889 16.3024 7.4836 15.9484L9.04638 14.3856C9.35198 14.4604 9.67136 14.5 10 14.5C10.2862 14.5 10.5654 14.4699 10.8346 14.4128ZM6.15807 11.6171C6.05516 11.2626 6 10.8877 6 10.5C6 10.1681 6.04043 9.8456 6.11663 9.53722L6.0378 9.61604L4.50611 8.08436C4.18068 8.82343 4 9.64061 4 10.5C4 11.4539 4.22258 12.3557 4.61864 13.1565L6.15807 11.6171ZM7.24639 5.16778C8.07107 4.74104 9.00739 4.5 10 4.5C10.9539 4.5 11.8557 4.72258 12.6565 5.11864L11.1171 6.65807C10.7626 6.55516 10.3877 6.5 10 6.5C9.57122 6.5 9.1582 6.56747 8.77097 6.69236L7.24639 5.16778ZM12 10.5C12 11.6046 11.1046 12.5 10 12.5C8.89543 12.5 8 11.6046 8 10.5C8 9.39543 8.89543 8.5 10 8.5C11.1046 8.5 12 9.39543 12 10.5Z" fill="#21272A"/>
</svg>
