<svg width="20" height="21" viewBox="0 0 20 21" fill="none" xmlns="http://www.w3.org/2000/svg">
<path d="M8 5.5C7.44772 5.5 7 5.94771 7 6.5C7 7.05228 7.44772 7.5 8 7.5L13.5858 7.5L12.2929 8.79289C11.9024 9.18342 11.9024 9.81658 12.2929 10.2071C12.6834 10.5976 13.3166 10.5976 13.7071 10.2071L16.7071 7.20711C16.8946 7.01957 17 6.76522 17 6.5C17 6.23478 16.8946 5.98043 16.7071 5.79289L13.7071 2.79289C13.3166 2.40237 12.6834 2.40237 12.2929 2.79289C11.9024 3.18342 11.9024 3.81658 12.2929 4.20711L13.5858 5.5L8 5.5Z" fill="#21272A"/>
<path d="M12 15.5C12.5523 15.5 13 15.0523 13 14.5C13 13.9477 12.5523 13.5 12 13.5L6.41421 13.5L7.70711 12.2071C8.09763 11.8166 8.09763 11.1834 7.70711 10.7929C7.31658 10.4024 6.68342 10.4024 6.29289 10.7929L3.29289 13.7929C3.10536 13.9804 3 14.2348 3 14.5C3 14.7652 3.10536 15.0196 3.29289 15.2071L6.29289 18.2071C6.68342 18.5976 7.31658 18.5976 7.70711 18.2071C8.09763 17.8166 8.09763 17.1834 7.70711 16.7929L6.41421 15.5L12 15.5Z" fill="#21272A"/>
</svg>
