<svg width="20" height="21" viewBox="0 0 20 21" fill="none" xmlns="http://www.w3.org/2000/svg">
<path d="M5 12.5C5 13.0523 5.44771 13.5 6 13.5C6.55228 13.5 7 13.0523 7 12.5L7 6.91421L8.29289 8.20711C8.68342 8.59763 9.31658 8.59763 9.70711 8.20711C10.0976 7.81658 10.0976 7.18342 9.70711 6.79289L6.70711 3.79289C6.51957 3.60536 6.26522 3.5 6 3.5C5.73478 3.5 5.48043 3.60536 5.29289 3.79289L2.29289 6.79289C1.90237 7.18342 1.90237 7.81658 2.29289 8.20711C2.68342 8.59763 3.31658 8.59763 3.70711 8.20711L5 6.91421L5 12.5Z" fill="#21272A"/>
<path d="M15 8.5C15 7.94772 14.5523 7.5 14 7.5C13.4477 7.5 13 7.94772 13 8.5L13 14.0858L11.7071 12.7929C11.3166 12.4024 10.6834 12.4024 10.2929 12.7929C9.90237 13.1834 9.90237 13.8166 10.2929 14.2071L13.2929 17.2071C13.4804 17.3946 13.7348 17.5 14 17.5C14.2652 17.5 14.5196 17.3946 14.7071 17.2071L17.7071 14.2071C18.0976 13.8166 18.0976 13.1834 17.7071 12.7929C17.3166 12.4024 16.6834 12.4024 16.2929 12.7929L15 14.0858L15 8.5Z" fill="#21272A"/>
</svg>
