<svg width="20" height="21" viewBox="0 0 20 21" fill="none" xmlns="http://www.w3.org/2000/svg">
<path fill-rule="evenodd" clip-rule="evenodd" d="M6 2.5C4.89543 2.5 4 3.39543 4 4.5V16.5C4 17.6046 4.89543 18.5 6 18.5H14C15.1046 18.5 16 17.6046 16 16.5V4.5C16 3.39543 15.1046 2.5 14 2.5H6ZM7 4.5C6.44772 4.5 6 4.94772 6 5.5C6 6.05228 6.44772 6.5 7 6.5H13C13.5523 6.5 14 6.05228 14 5.5C14 4.94772 13.5523 4.5 13 4.5H7ZM13 11.5C13.5523 11.5 14 11.9477 14 12.5V15.5C14 16.0523 13.5523 16.5 13 16.5C12.4477 16.5 12 16.0523 12 15.5V12.5C12 11.9477 12.4477 11.5 13 11.5ZM10 14.5C9.44772 14.5 9 14.9477 9 15.5C9 16.0523 9.44772 16.5 10 16.5H10.01C10.5623 16.5 11.01 16.0523 11.01 15.5C11.01 14.9477 10.5623 14.5 10.01 14.5H10ZM6 15.5C6 14.9477 6.44772 14.5 7 14.5H7.01C7.56228 14.5 8.01 14.9477 8.01 15.5C8.01 16.0523 7.56228 16.5 7.01 16.5H7C6.44772 16.5 6 16.0523 6 15.5ZM7 11.5C6.44772 11.5 6 11.9477 6 12.5C6 13.0523 6.44772 13.5 7 13.5H7.01C7.56228 13.5 8.01 13.0523 8.01 12.5C8.01 11.9477 7.56228 11.5 7.01 11.5H7ZM9 12.5C9 11.9477 9.44772 11.5 10 11.5H10.01C10.5623 11.5 11.01 11.9477 11.01 12.5C11.01 13.0523 10.5623 13.5 10.01 13.5H10C9.44772 13.5 9 13.0523 9 12.5ZM13 8.5C12.4477 8.5 12 8.94772 12 9.5C12 10.0523 12.4477 10.5 13 10.5H13.01C13.5623 10.5 14.01 10.0523 14.01 9.5C14.01 8.94772 13.5623 8.5 13.01 8.5H13ZM9 9.5C9 8.94772 9.44772 8.5 10 8.5H10.01C10.5623 8.5 11.01 8.94772 11.01 9.5C11.01 10.0523 10.5623 10.5 10.01 10.5H10C9.44772 10.5 9 10.0523 9 9.5ZM7 8.5C6.44772 8.5 6 8.94772 6 9.5C6 10.0523 6.44772 10.5 7 10.5H7.01C7.56228 10.5 8.01 10.0523 8.01 9.5C8.01 8.94772 7.56228 8.5 7.01 8.5H7Z" fill="#21272A"/>
</svg>
