<svg width="20" height="21" viewBox="0 0 20 21" fill="none" xmlns="http://www.w3.org/2000/svg">
<path d="M3 4.5C3 3.94772 3.44772 3.5 4 3.5H16C16.5523 3.5 17 3.94772 17 4.5V6.5C17 7.05228 16.5523 7.5 16 7.5H4C3.44772 7.5 3 7.05228 3 6.5V4.5Z" fill="#21272A"/>
<path d="M3 10.5C3 9.94771 3.44772 9.5 4 9.5H10C10.5523 9.5 11 9.94771 11 10.5V16.5C11 17.0523 10.5523 17.5 10 17.5H4C3.44772 17.5 3 17.0523 3 16.5V10.5Z" fill="#21272A"/>
<path d="M14 9.5C13.4477 9.5 13 9.94771 13 10.5V16.5C13 17.0523 13.4477 17.5 14 17.5H16C16.5523 17.5 17 17.0523 17 16.5V10.5C17 9.94771 16.5523 9.5 16 9.5H14Z" fill="#21272A"/>
</svg>
