<svg width="20" height="21" viewBox="0 0 20 21" fill="none" xmlns="http://www.w3.org/2000/svg">
<path fill-rule="evenodd" clip-rule="evenodd" d="M2 5.5C2 4.39543 2.89543 3.5 4 3.5H16C17.1046 3.5 18 4.39543 18 5.5V15.5C18 16.6046 17.1046 17.5 16 17.5H4C2.89543 17.5 2 16.6046 2 15.5V5.5ZM5.29289 6.79289C5.68342 6.40237 6.31658 6.40237 6.70711 6.79289L9.70711 9.79289C10.0976 10.1834 10.0976 10.8166 9.70711 11.2071L6.70711 14.2071C6.31658 14.5976 5.68342 14.5976 5.29289 14.2071C4.90237 13.8166 4.90237 13.1834 5.29289 12.7929L7.58579 10.5L5.29289 8.20711C4.90237 7.81658 4.90237 7.18342 5.29289 6.79289ZM11 12.5C10.4477 12.5 10 12.9477 10 13.5C10 14.0523 10.4477 14.5 11 14.5H14C14.5523 14.5 15 14.0523 15 13.5C15 12.9477 14.5523 12.5 14 12.5H11Z" fill="#21272A"/>
</svg>
