<svg width="20" height="21" viewBox="0 0 20 21" fill="none" xmlns="http://www.w3.org/2000/svg">
<path d="M18 10C18 10.8284 17.3285 11.5 16.5 11.5C15.6716 11.5 15 10.8284 15 10V4C15 3.17157 15.6716 2.5 16.5 2.5C17.3285 2.5 18 3.17157 18 4V10Z" fill="#21272A"/>
<path d="M14 10.1667V4.73607C14 3.97852 13.572 3.286 12.8945 2.94721L12.8446 2.92229C12.2892 2.64458 11.6767 2.5 11.0558 2.5L5.63964 2.5C4.68628 2.5 3.86545 3.17292 3.67848 4.10777L2.47848 10.1078C2.23097 11.3453 3.17755 12.5 4.43964 12.5H8.00004V16.5C8.00004 17.6046 8.89547 18.5 10 18.5C10.5523 18.5 11 18.0523 11 17.5V16.8333C11 15.9679 11.2807 15.1257 11.8 14.4333L13.2 12.5667C13.7193 11.8743 14 11.0321 14 10.1667Z" fill="#21272A"/>
</svg>
