<svg width="20" height="21" viewBox="0 0 20 21" fill="none" xmlns="http://www.w3.org/2000/svg">
<path fill-rule="evenodd" clip-rule="evenodd" d="M7.00001 2.5C7.55229 2.5 8.00001 2.94772 8.00001 3.5V4.5H8.73223C8.744 4.49979 8.75581 4.49979 8.76765 4.5H11C11.5523 4.5 12 4.94772 12 5.5C12 6.05228 11.5523 6.5 11 6.5H9.57801C9.21635 8.18748 8.63076 9.79154 7.85405 11.2796C8.14482 11.6338 8.44964 11.976 8.76767 12.3055C9.15124 12.7028 9.14007 13.3359 8.74272 13.7195C8.34537 14.103 7.7123 14.0919 7.32873 13.6945C7.13962 13.4986 6.95468 13.2987 6.77405 13.0948C5.88895 14.4101 4.84387 15.6084 3.66692 16.6618C3.2554 17.0301 2.6232 16.9951 2.25487 16.5836C1.88655 16.172 1.92157 15.5398 2.3331 15.1715C3.54619 14.0858 4.60214 12.8288 5.4631 11.4389C4.90663 10.6499 4.40868 9.81652 3.97558 8.94503C3.7298 8.45045 3.93148 7.85027 4.42606 7.60449C4.92064 7.3587 5.52083 7.56039 5.76661 8.05497C6.00021 8.52502 6.25495 8.98278 6.52961 9.42699C6.947 8.49272 7.28247 7.51402 7.52698 6.5H3.00001C2.44772 6.5 2.00001 6.05228 2.00001 5.5C2.00001 4.94772 2.44772 4.5 3.00001 4.5H6.00001V3.5C6.00001 2.94772 6.44772 2.5 7.00001 2.5ZM13 8.5C13.3788 8.5 13.725 8.714 13.8944 9.05279L16.8854 15.0348C16.8919 15.0471 16.8982 15.0596 16.9041 15.0722L17.8944 17.0528C18.1414 17.5468 17.9412 18.1474 17.4472 18.3944C16.9532 18.6414 16.3526 18.4412 16.1056 17.9472L15.382 16.5H10.618L9.89444 17.9472C9.64745 18.4412 9.04677 18.6414 8.5528 18.3944C8.05882 18.1474 7.85859 17.5468 8.10558 17.0528L9.09589 15.0722C9.10187 15.0596 9.1081 15.0471 9.11458 15.0348L12.1056 9.05279C12.275 8.714 12.6212 8.5 13 8.5ZM11.618 14.5H14.382L13 11.7361L11.618 14.5Z" fill="#21272A"/>
</svg>
