<svg width="20" height="21" viewBox="0 0 20 21" fill="none" xmlns="http://www.w3.org/2000/svg">
<path fill-rule="evenodd" clip-rule="evenodd" d="M12 13.5C11.4477 13.5 11 13.9477 11 14.5C11 15.0523 11.4477 15.5 12 15.5H17C17.5523 15.5 18 15.0523 18 14.5V9.5C18 8.94772 17.5523 8.5 17 8.5C16.4477 8.5 16 8.94772 16 9.5V12.0858L11.7071 7.79289C11.3166 7.40237 10.6834 7.40237 10.2929 7.79289L8 10.0858L3.70711 5.79289C3.31658 5.40237 2.68342 5.40237 2.29289 5.79289C1.90237 6.18342 1.90237 6.81658 2.29289 7.20711L7.29289 12.2071C7.68342 12.5976 8.31658 12.5976 8.70711 12.2071L11 9.91421L14.5858 13.5H12Z" fill="#21272A"/>
</svg>
