<svg width="20" height="21" viewBox="0 0 20 21" fill="none" xmlns="http://www.w3.org/2000/svg">
<path fill-rule="evenodd" clip-rule="evenodd" d="M12 7.5C11.4477 7.5 11 7.05228 11 6.5C11 5.94772 11.4477 5.5 12 5.5H17C17.5523 5.5 18 5.94772 18 6.5V11.5C18 12.0523 17.5523 12.5 17 12.5C16.4477 12.5 16 12.0523 16 11.5V8.91421L11.7071 13.2071C11.3166 13.5976 10.6834 13.5976 10.2929 13.2071L8 10.9142L3.70711 15.2071C3.31658 15.5976 2.68342 15.5976 2.29289 15.2071C1.90237 14.8166 1.90237 14.1834 2.29289 13.7929L7.29289 8.79289C7.68342 8.40237 8.31658 8.40237 8.70711 8.79289L11 11.0858L14.5858 7.5H12Z" fill="#21272A"/>
</svg>
