<svg width="20" height="21" viewBox="0 0 20 21" fill="none" xmlns="http://www.w3.org/2000/svg">
<path d="M8 17C8 17.8284 7.32843 18.5 6.5 18.5C5.67157 18.5 5 17.8284 5 17C5 16.1716 5.67157 15.5 6.5 15.5C7.32843 15.5 8 16.1716 8 17Z" fill="#21272A"/>
<path d="M15 17C15 17.8284 14.3284 18.5 13.5 18.5C12.6716 18.5 12 17.8284 12 17C12 16.1716 12.6716 15.5 13.5 15.5C14.3284 15.5 15 16.1716 15 17Z" fill="#21272A"/>
<path d="M3 4.5C2.44772 4.5 2 4.94772 2 5.5V15.5C2 16.0523 2.44772 16.5 3 16.5H4.05001C4.28164 15.3589 5.29052 14.5 6.5 14.5C7.70948 14.5 8.71836 15.3589 8.94999 16.5H10C10.5523 16.5 11 16.0523 11 15.5V5.5C11 4.94772 10.5523 4.5 10 4.5H3Z" fill="#21272A"/>
<path d="M14 7.5C13.4477 7.5 13 7.94772 13 8.5V14.55C13.1616 14.5172 13.3288 14.5 13.5 14.5C14.7095 14.5 15.7184 15.3589 15.95 16.5H17C17.5523 16.5 18 16.0523 18 15.5V10.5C18 10.2348 17.8946 9.98043 17.7071 9.79289L15.7071 7.79289C15.5196 7.60536 15.2652 7.5 15 7.5H14Z" fill="#21272A"/>
</svg>
