<svg width="29" height="29" viewBox="0 0 29 29" fill="none" xmlns="http://www.w3.org/2000/svg">
<g clip-path="url(#clip0_151_74)">
<path d="M9.07926 26.1549C19.9674 26.1549 25.9244 17.132 25.9244 9.30973C25.9244 9.05607 25.9188 8.79677 25.9075 8.54312C27.0663 7.70508 28.0663 6.66705 28.8606 5.4778C27.7814 5.95797 26.6355 6.27157 25.4622 6.40788C26.6976 5.66733 27.6227 4.50397 28.0658 3.13344C26.9036 3.82224 25.6325 4.30812 24.3072 4.57027C23.4142 3.62142 22.2335 2.99317 20.9476 2.78265C19.6618 2.57213 18.3424 2.79106 17.1934 3.40561C16.0444 4.02016 15.1299 4.99608 14.5913 6.1825C14.0526 7.36892 13.9198 8.69975 14.2133 9.96924C11.8599 9.85114 9.5576 9.23979 7.45564 8.17483C5.35368 7.10987 3.49898 5.61506 2.01179 3.78732C1.25592 5.09052 1.02462 6.63265 1.3649 8.10026C1.70519 9.56788 2.59152 10.8509 3.84376 11.6885C2.90365 11.6586 1.98414 11.4055 1.16119 10.95V11.0233C1.16035 12.3909 1.63315 13.7167 2.49922 14.7751C3.36529 15.8335 4.57119 16.5594 5.91192 16.8293C5.04105 17.0675 4.12705 17.1023 3.24062 16.9307C3.61895 18.1069 4.35504 19.1356 5.34615 19.8733C6.33727 20.611 7.53397 21.0208 8.76923 21.0456C6.67212 22.6929 4.08158 23.5864 1.41485 23.5822C0.941923 23.5815 0.469465 23.5525 0 23.4954C2.70912 25.2334 5.86055 26.1565 9.07926 26.1549Z" fill="#2A81BF"/>
</g>
<defs>
<clipPath id="clip0_151_74">
<rect width="28.8606" height="28.8606" fill="white"/>
</clipPath>
</defs>
</svg>
