<svg width="20" height="21" viewBox="0 0 20 21" fill="none" xmlns="http://www.w3.org/2000/svg">
<path fill-rule="evenodd" clip-rule="evenodd" d="M3 17.5C3 16.9477 3.44772 16.5 4 16.5H16C16.5523 16.5 17 16.9477 17 17.5C17 18.0523 16.5523 18.5 16 18.5H4C3.44772 18.5 3 18.0523 3 17.5ZM6.29289 7.20711C5.90237 6.81658 5.90237 6.18342 6.29289 5.79289L9.29289 2.79289C9.48043 2.60536 9.73478 2.5 10 2.5C10.2652 2.5 10.5196 2.60536 10.7071 2.79289L13.7071 5.79289C14.0976 6.18342 14.0976 6.81658 13.7071 7.20711C13.3166 7.59763 12.6834 7.59763 12.2929 7.20711L11 5.91421L11 13.5C11 14.0523 10.5523 14.5 10 14.5C9.44771 14.5 9 14.0523 9 13.5L9 5.91421L7.70711 7.20711C7.31658 7.59763 6.68342 7.59763 6.29289 7.20711Z" fill="#21272A"/>
</svg>
