<svg width="20" height="21" viewBox="0 0 20 21" fill="none" xmlns="http://www.w3.org/2000/svg">
<path d="M11 6.5C11 8.15685 9.65685 9.5 8 9.5C6.34315 9.5 5 8.15685 5 6.5C5 4.84315 6.34315 3.5 8 3.5C9.65685 3.5 11 4.84315 11 6.5Z" fill="#21272A"/>
<path d="M14 17.5C14 14.1863 11.3137 11.5 8 11.5C4.68629 11.5 2 14.1863 2 17.5H14Z" fill="#21272A"/>
<path d="M13 8.5C12.4477 8.5 12 8.94771 12 9.5C12 10.0523 12.4477 10.5 13 10.5H17C17.5523 10.5 18 10.0523 18 9.5C18 8.94771 17.5523 8.5 17 8.5H13Z" fill="#21272A"/>
</svg>
