<svg width="20" height="21" viewBox="0 0 20 21" fill="none" xmlns="http://www.w3.org/2000/svg">
<path d="M8 9.5C9.65685 9.5 11 8.15685 11 6.5C11 4.84315 9.65685 3.5 8 3.5C6.34315 3.5 5 4.84315 5 6.5C5 8.15685 6.34315 9.5 8 9.5Z" fill="#21272A"/>
<path d="M8 11.5C11.3137 11.5 14 14.1863 14 17.5H2C2 14.1863 4.68629 11.5 8 11.5Z" fill="#21272A"/>
<path d="M16 7.5C16 6.94772 15.5523 6.5 15 6.5C14.4477 6.5 14 6.94772 14 7.5V8.5H13C12.4477 8.5 12 8.94771 12 9.5C12 10.0523 12.4477 10.5 13 10.5H14V11.5C14 12.0523 14.4477 12.5 15 12.5C15.5523 12.5 16 12.0523 16 11.5V10.5H17C17.5523 10.5 18 10.0523 18 9.5C18 8.94772 17.5523 8.5 17 8.5H16V7.5Z" fill="#21272A"/>
</svg>
