<svg width="20" height="21" viewBox="0 0 20 21" fill="none" xmlns="http://www.w3.org/2000/svg">
<path fill-rule="evenodd" clip-rule="evenodd" d="M18 10.5C18 14.9183 14.4183 18.5 10 18.5C5.58172 18.5 2 14.9183 2 10.5C2 6.08172 5.58172 2.5 10 2.5C14.4183 2.5 18 6.08172 18 10.5ZM12 7.5C12 8.60457 11.1046 9.5 10 9.5C8.89543 9.5 8 8.60457 8 7.5C8 6.39543 8.89543 5.5 10 5.5C11.1046 5.5 12 6.39543 12 7.5ZM9.99993 11.5C7.98239 11.5 6.24394 12.695 5.45374 14.4157C6.55403 15.692 8.18265 16.5 9.99998 16.5C11.8173 16.5 13.4459 15.6921 14.5462 14.4158C13.756 12.695 12.0175 11.5 9.99993 11.5Z" fill="#21272A"/>
</svg>
