<svg width="20" height="21" viewBox="0 0 20 21" fill="none" xmlns="http://www.w3.org/2000/svg">
<path d="M4.6485 3.58366C5.15459 3.80478 5.3856 4.39429 5.16448 4.90038C4.41582 6.61389 4 8.50707 4 10.5C4 12.4929 4.41582 14.3861 5.16448 16.0996C5.3856 16.6057 5.15459 17.1952 4.6485 17.4164C4.14242 17.6375 3.5529 17.4065 3.33178 16.9004C2.47486 14.9391 2 12.7737 2 10.5C2 8.22632 2.47486 6.06091 3.33178 4.09964C3.5529 3.59355 4.14242 3.36254 4.6485 3.58366Z" fill="#21272A"/>
<path d="M12.9613 7.5C12.0499 7.5 11.188 7.91427 10.6186 8.62592L10.2911 9.03528L10.1799 8.75722C9.87619 7.9979 9.14078 7.5 8.32297 7.5H8C7.44772 7.5 7 7.94772 7 8.5C7 9.05228 7.44772 9.5 8 9.5H8.32297L8.8551 10.8303L7.81962 12.1247C7.62985 12.3619 7.34253 12.5 7.03875 12.5H7C6.44772 12.5 6 12.9477 6 13.5C6 14.0523 6.44772 14.5 7 14.5H7.03875C7.9501 14.5 8.81204 14.0857 9.38136 13.3741L9.70885 12.9647L9.82008 13.2428C10.1238 14.0021 10.8592 14.5 11.677 14.5H12C12.5523 14.5 13 14.0523 13 13.5C13 12.9477 12.5523 12.5 12 12.5H11.677L11.1449 11.1697L12.1804 9.87531C12.3702 9.63809 12.6575 9.5 12.9613 9.5H13C13.5523 9.5 14 9.05228 14 8.5C14 7.94772 13.5523 7.5 13 7.5H12.9613Z" fill="#21272A"/>
<path d="M14.8355 4.90038C14.6144 4.39429 14.8454 3.80478 15.3515 3.58366C15.8576 3.36254 16.4471 3.59355 16.6682 4.09964C17.5251 6.06091 18 8.22632 18 10.5C18 12.7737 17.5251 14.9391 16.6682 16.9004C16.4471 17.4065 15.8576 17.6375 15.3515 17.4164C14.8454 17.1952 14.6144 16.6057 14.8355 16.0996C15.5842 14.3861 16 12.4929 16 10.5C16 8.50707 15.5842 6.61389 14.8355 4.90038Z" fill="#21272A"/>
</svg>
