<svg width="20" height="21" viewBox="0 0 20 21" fill="none" xmlns="http://www.w3.org/2000/svg">
<path d="M2 6.5C2 5.39543 2.89543 4.5 4 4.5H10C11.1046 4.5 12 5.39543 12 6.5V14.5C12 15.6046 11.1046 16.5 10 16.5H4C2.89543 16.5 2 15.6046 2 14.5V6.5Z" fill="#21272A"/>
<path d="M14.5528 7.60557C14.214 7.77497 14 8.12123 14 8.5V12.5C14 12.8788 14.214 13.225 14.5528 13.3944L16.5528 14.3944C16.8628 14.5494 17.2309 14.5329 17.5257 14.3507C17.8205 14.1684 18 13.8466 18 13.5V7.5C18 7.15342 17.8205 6.83156 17.5257 6.64935C17.2309 6.46714 16.8628 6.45058 16.5528 6.60557L14.5528 7.60557Z" fill="#21272A"/>
</svg>
