<svg width="20" height="21" viewBox="0 0 20 21" fill="none" xmlns="http://www.w3.org/2000/svg">
<path fill-rule="evenodd" clip-rule="evenodd" d="M3 4.5C3 3.94772 3.44772 3.5 4 3.5H16C16.5523 3.5 17 3.94772 17 4.5C17 5.05228 16.5523 5.5 16 5.5H4C3.44772 5.5 3 5.05228 3 4.5ZM3 8.5C3 7.94772 3.44772 7.5 4 7.5H16C16.5523 7.5 17 7.94772 17 8.5C17 9.05228 16.5523 9.5 16 9.5H4C3.44772 9.5 3 9.05228 3 8.5ZM3 12.5C3 11.9477 3.44772 11.5 4 11.5H16C16.5523 11.5 17 11.9477 17 12.5C17 13.0523 16.5523 13.5 16 13.5H4C3.44772 13.5 3 13.0523 3 12.5ZM3 16.5C3 15.9477 3.44772 15.5 4 15.5H16C16.5523 15.5 17 15.9477 17 16.5C17 17.0523 16.5523 17.5 16 17.5H4C3.44772 17.5 3 17.0523 3 16.5Z" fill="#21272A"/>
</svg>
