<svg width="20" height="21" viewBox="0 0 20 21" fill="none" xmlns="http://www.w3.org/2000/svg">
<path d="M2 4.5C2 3.94772 2.44772 3.5 3 3.5H5C5.55228 3.5 6 3.94772 6 4.5V16.5C6 17.0523 5.55228 17.5 5 17.5H3C2.44772 17.5 2 17.0523 2 16.5V4.5Z" fill="#21272A"/>
<path d="M8 4.5C8 3.94772 8.44772 3.5 9 3.5H11C11.5523 3.5 12 3.94772 12 4.5V16.5C12 17.0523 11.5523 17.5 11 17.5H9C8.44772 17.5 8 17.0523 8 16.5V4.5Z" fill="#21272A"/>
<path d="M15 3.5C14.4477 3.5 14 3.94772 14 4.5V16.5C14 17.0523 14.4477 17.5 15 17.5H17C17.5523 17.5 18 17.0523 18 16.5V4.5C18 3.94772 17.5523 3.5 17 3.5H15Z" fill="#21272A"/>
</svg>
