<svg width="20" height="21" viewBox="0 0 20 21" fill="none" xmlns="http://www.w3.org/2000/svg">
<path fill-rule="evenodd" clip-rule="evenodd" d="M9.38268 3.57615C9.75636 3.73093 10 4.09557 10 4.50003V16.5C10 16.9045 9.75636 17.2691 9.38268 17.4239C9.00901 17.5787 8.57889 17.4931 8.29289 17.2071L4.58579 13.5H2C1.44772 13.5 1 13.0523 1 12.5V8.50003C1 7.94774 1.44772 7.50003 2 7.50003H4.58579L8.29289 3.79292C8.57889 3.50692 9.00901 3.42137 9.38268 3.57615Z" fill="#21272A"/>
<path fill-rule="evenodd" clip-rule="evenodd" d="M12.2929 7.79289C12.6834 7.40237 13.3166 7.40237 13.7071 7.79289L15 9.08579L16.2929 7.79289C16.6834 7.40237 17.3166 7.40237 17.7071 7.79289C18.0976 8.18342 18.0976 8.81658 17.7071 9.20711L16.4142 10.5L17.7071 11.7929C18.0976 12.1834 18.0976 12.8166 17.7071 13.2071C17.3166 13.5976 16.6834 13.5976 16.2929 13.2071L15 11.9142L13.7071 13.2071C13.3166 13.5976 12.6834 13.5976 12.2929 13.2071C11.9024 12.8166 11.9024 12.1834 12.2929 11.7929L13.5858 10.5L12.2929 9.20711C11.9024 8.81658 11.9024 8.18342 12.2929 7.79289Z" fill="#21272A"/>
</svg>
