<svg width="20" height="21" viewBox="0 0 20 21" fill="none" xmlns="http://www.w3.org/2000/svg">
<path fill-rule="evenodd" clip-rule="evenodd" d="M9.38268 3.57615C9.75636 3.73093 10 4.09557 10 4.50003V16.5C10 16.9045 9.75636 17.2691 9.38268 17.4239C9.00901 17.5787 8.57889 17.4931 8.29289 17.2071L4.58579 13.5H2C1.44772 13.5 1 13.0523 1 12.5V8.50003C1 7.94774 1.44772 7.50003 2 7.50003H4.58579L8.29289 3.79292C8.57889 3.50692 9.00901 3.42137 9.38268 3.57615Z" fill="#21272A"/>
<path fill-rule="evenodd" clip-rule="evenodd" d="M14.6568 3.42888C15.0474 3.03836 15.6805 3.03836 16.0711 3.42888C17.8796 5.23743 19 7.7388 19 10.4999C19 13.2611 17.8796 15.7625 16.0711 17.571C15.6805 17.9615 15.0474 17.9615 14.6568 17.571C14.2663 17.1805 14.2663 16.5473 14.6568 16.1568C16.1057 14.708 17 12.7094 17 10.4999C17 8.29053 16.1057 6.2919 14.6568 4.84309C14.2663 4.45257 14.2663 3.8194 14.6568 3.42888ZM11.8284 6.25731C12.2189 5.86678 12.8521 5.86678 13.2426 6.25731C13.7685 6.78319 14.1976 7.40687 14.5003 8.09958C14.822 8.83592 15 9.64847 15 10.4999C15 12.1565 14.3273 13.6579 13.2426 14.7426C12.8521 15.1331 12.2189 15.1331 11.8284 14.7426C11.4379 14.3521 11.4379 13.7189 11.8284 13.3284C12.5534 12.6034 13 11.6048 13 10.4999C13 9.92922 12.8811 9.3889 12.6676 8.90032C12.4663 8.43958 12.1802 8.02327 11.8284 7.67152C11.4379 7.281 11.4379 6.64783 11.8284 6.25731Z" fill="#21272A"/>
</svg>
