<svg width="20" height="21" viewBox="0 0 20 21" fill="none" xmlns="http://www.w3.org/2000/svg">
<path fill-rule="evenodd" clip-rule="evenodd" d="M17.7781 8.72183C13.4823 4.42606 6.51752 4.42606 2.22176 8.72183C1.83123 9.11235 1.19807 9.11235 0.807542 8.72183C0.417017 8.3313 0.417017 7.69814 0.807542 7.30761C5.88436 2.2308 14.1155 2.2308 19.1923 7.30761C19.5828 7.69814 19.5828 8.3313 19.1923 8.72183C18.8018 9.11235 18.1686 9.11235 17.7781 8.72183ZM14.9497 11.5503C12.216 8.81659 7.78385 8.81659 5.05018 11.5503C4.65966 11.9408 4.02649 11.9408 3.63597 11.5503C3.24544 11.1597 3.24544 10.5266 3.63597 10.136C7.15069 6.62133 12.8492 6.62133 16.3639 10.136C16.7544 10.5266 16.7544 11.1597 16.3639 11.5503C15.9734 11.9408 15.3402 11.9408 14.9497 11.5503ZM12.1213 14.3787C10.9497 13.2071 9.05018 13.2071 7.87861 14.3787C7.48809 14.7692 6.85492 14.7692 6.4644 14.3787C6.07387 13.9882 6.07387 13.355 6.4644 12.9645C8.41702 11.0119 11.5828 11.0119 13.5355 12.9645C13.926 13.355 13.926 13.9882 13.5355 14.3787C13.1449 14.7692 12.5118 14.7692 12.1213 14.3787ZM8.99993 16.5C8.99993 15.9477 9.44765 15.5 9.99993 15.5H10.0099C10.5622 15.5 11.0099 15.9477 11.0099 16.5C11.0099 17.0523 10.5622 17.5 10.0099 17.5H9.99993C9.44765 17.5 8.99993 17.0523 8.99993 16.5Z" fill="#21272A"/>
</svg>
