<svg width="20" height="21" viewBox="0 0 20 21" fill="none" xmlns="http://www.w3.org/2000/svg">
<path fill-rule="evenodd" clip-rule="evenodd" d="M10 18.5C14.4183 18.5 18 14.9183 18 10.5C18 6.08172 14.4183 2.5 10 2.5C5.58172 2.5 2 6.08172 2 10.5C2 14.9183 5.58172 18.5 10 18.5ZM8.70711 7.79289C8.31658 7.40237 7.68342 7.40237 7.29289 7.79289C6.90237 8.18342 6.90237 8.81658 7.29289 9.20711L8.58579 10.5L7.29289 11.7929C6.90237 12.1834 6.90237 12.8166 7.29289 13.2071C7.68342 13.5976 8.31658 13.5976 8.70711 13.2071L10 11.9142L11.2929 13.2071C11.6834 13.5976 12.3166 13.5976 12.7071 13.2071C13.0976 12.8166 13.0976 12.1834 12.7071 11.7929L11.4142 10.5L12.7071 9.20711C13.0976 8.81658 13.0976 8.18342 12.7071 7.79289C12.3166 7.40237 11.6834 7.40237 11.2929 7.79289L10 9.08579L8.70711 7.79289Z" fill="#21272A"/>
</svg>
